/* XPM */
static char *_c75e57d663d4935ac6e7d8b39de8b2fvr9vh6XkBtavJ7La[] = {
/* columns rows colors chars-per-pixel */
"64 64 224 2 ",
"   c None",
".  c #57150C",
"X  c #55170E",
"o  c #5A170D",
"O  c #5A1C12",
"+  c #6A1F0F",
"@  c #661D11",
"#  c #67261A",
"$  c #69291D",
"%  c #7B2B17",
"&  c #71291B",
"*  c #742919",
"=  c #7C2B19",
"-  c #792F20",
";  c #773224",
":  c #7E392B",
">  c #7B4034",
",  c #7F493B",
"<  c #7B553E",
"1  c #7D563F",
"2  c #802C16",
"3  c #90341C",
"4  c #8C3621",
"5  c #8A3926",
"6  c #863929",
"7  c #8B3B2B",
"8  c #8B3D2F",
"9  c #8C3D2C",
"0  c #953821",
"q  c #903B28",
"w  c #923C29",
"e  c #9E3E28",
"r  c #8F3F35",
"t  c #A03F24",
"y  c #A53F28",
"u  c #A43F2B",
"i  c #94452F",
"p  c #8B433B",
"a  c #8B463F",
"s  c #974032",
"d  c #984032",
"f  c #92443F",
"g  c #9D453A",
"h  c #A34126",
"j  c #A94128",
"k  c #AB472F",
"l  c #B2452C",
"z  c #B44C2D",
"x  c #B94E2F",
"c  c #A74330",
"v  c #A24631",
"b  c #A04532",
"n  c #A84230",
"m  c #AF4634",
"M  c #A64539",
"N  c #A9493A",
"B  c #AF493B",
"V  c #AE4C39",
"C  c #A94B3D",
"Z  c #B04531",
"A  c #B64731",
"S  c #B44734",
"D  c #B74931",
"F  c #B44E33",
"G  c #B34D36",
"H  c #B54F36",
"J  c #BA4930",
"K  c #BE4C32",
"L  c #BF4E36",
"P  c #BE4F36",
"I  c #BB4B38",
"U  c #BA4A39",
"Y  c #B85136",
"T  c #C14C32",
"R  c #C14C34",
"E  c #C44D35",
"W  c #C64F35",
"Q  c #C05233",
"!  c #C35037",
"~  c #C95134",
"^  c #CA5137",
"/  c #CE5637",
"(  c #C05539",
")  c #C95439",
"_  c #CA553B",
"`  c #CF573B",
"'  c #CE593C",
"]  c #D35B3A",
"[  c #D25D3D",
"{  c #D75F3D",
"}  c #D6603F",
"|  c #D9623F",
" . c #8D4743",
".. c #8D4840",
"X. c #954540",
"o. c #9D4A47",
"O. c #944E4D",
"+. c #994D4F",
"@. c #815A42",
"#. c #835A42",
"$. c #845940",
"%. c #865C42",
"&. c #865B46",
"*. c #855E46",
"=. c #885E43",
"-. c #855F48",
";. c #9B4E51",
":. c #9B5556",
">. c #AB4942",
",. c #A64D4A",
"<. c #B04A41",
"1. c #B34E43",
"2. c #B24D49",
"3. c #B65743",
"4. c #BB5645",
"5. c #BD5842",
"6. c #BC5A43",
"7. c #BF584C",
"8. c #A15251",
"9. c #A65559",
"0. c #A2595C",
"q. c #A1585F",
"w. c #AB585E",
"e. c #B95C56",
"r. c #BB5D59",
"t. c #8A6043",
"y. c #8E6346",
"u. c #8C644B",
"i. c #936747",
"p. c #916748",
"a. c #91664B",
"s. c #90664C",
"d. c #976A4C",
"f. c #976B4E",
"g. c #9A6E4D",
"h. c #9C704F",
"j. c #9D7051",
"k. c #9F7351",
"l. c #9F7454",
"z. c #A2674A",
"x. c #A47753",
"c. c #A27455",
"v. c #A67A55",
"b. c #A87B58",
"n. c #AA7D59",
"m. c #A75D64",
"M. c #A55E67",
"N. c #C25744",
"B. c #C65B45",
"V. c #C75B46",
"C. c #C85C44",
"Z. c #CB5E47",
"A. c #CD5E46",
"S. c #C25C4C",
"D. c #D35D41",
"F. c #CC6048",
"G. c #CE6148",
"H. c #D66247",
"J. c #D46544",
"K. c #D66545",
"L. c #D76645",
"P. c #DA6541",
"I. c #D96846",
"U. c #D7674C",
"Y. c #D1684B",
"T. c #D8694C",
"R. c #C76653",
"E. c #C76455",
"W. c #CD6752",
"Q. c #CE6859",
"!. c #C37958",
"~. c #D67257",
"^. c #D37A5D",
"/. c #CB6A65",
"(. c #CD6D66",
"). c #AD805C",
"_. c #AD815D",
"`. c #B0835E",
"'. c #B1845F",
"]. c #B3875F",
"[. c #B38762",
"{. c #B58661",
"}. c #B78B63",
"|. c #B58A64",
" X c #BA8E66",
".X c #BC9167",
"XX c #BE926B",
"oX c #BF946B",
"OX c #C2966C",
"+X c #C2976D",
"@X c #C3996F",
"#X c #C49A6F",
"$X c #C59A71",
"%X c #C79D72",
"&X c #CA9F74",
"*X c #D79F79",
"=X c #CAA173",
"-X c #CBA176",
";X c #CCA377",
":X c #CDA579",
">X c #CEA579",
",X c #CEA77A",
"<X c #D0A177",
"1X c #D0A87B",
"2X c #D0A87C",
"3X c #D0A97D",
"4X c #D2AA7C",
"5X c #D4AC7F",
"6X c #D4AE7F",
"7X c #D4AD80",
"8X c #D5AE82",
"9X c #D5AF82",
"0X c #D6B082",
"qX c #D6B083",
"wX c #D6B184",
"eX c #D7B184",
"rX c #D8B384",
"tX c #D8B486",
"yX c #D8B586",
"uX c #D9B586",
"iX c #D9B587",
"pX c #D9B488",
"aX c #D9B688",
"sX c #D9B689",
/* pixels */
"                                                                                                                                ",
"                                                                                                                                ",
"                                                                                                                                ",
"                                                                                                                                ",
"                                                                                                                                ",
"                                                                                                                                ",
"                                                                                                                                ",
"                                                                                                                                ",
"                                                                                                                                ",
"                                                                                                                                ",
"                                                                                                                                ",
"                                                                                                                                ",
"                                                                                                                                ",
"                                                                              2X|.                                              ",
"                                                                            yX=Xv.@.                                            ",
"                                                                            5X.Xi.                                              ",
"                                                                          yX;Xn.$.                                              ",
"                                                                          8XoXf.                                                ",
"                                                                          ,X_.%.                                                ",
"                                                                        0XOXg.                                                  ",
"                                                                        1X`.=.                                                  ",
"                                                                      rX#Xh.<                                                   ",
"                                                                      2X'.t.                                                    ",
"                                                                    yX%Xj.1                                                     ",
"                                                                    5X}.y.                                                      ",
"                                                                  yX&Xx.@.                                                      ",
"                                                                  8X Xa.                                                        ",
"                                                                sX-Xb.*.                                                        ",
"                                                                8XXXf.                                                          ",
"                                                              sX,X_.u.                                                          ",
"                                                              0XOXj.                                                            ",
"                                                            sX,X'.s.                                                            ",
"                                                            eX@Xl.                                                              ",
"                                                            2X[.s.                                                              ",
"                                                          eX$Xc.-.                                                              ",
"                                                        *X<X{.a.                                                                ",
"                                                      ~.^.!.z.&.                                                                ",
"                                              Z.V.N.V.G.Z.H i ,                                                                 ",
"                                          J.} [ ' _ ! P D u 5 >                                                                 ",
"                                        I.P.| { ] / ^ T A n s ..                                                                ",
"                                    Y.J.J.T.U.H.D.` ^ E I <.,.8.                                                                ",
"                                    Y z F 5.R.W.A._ E R I 2.w.M.0.                                                              ",
"                                    v 4 * - 7 v G P K J S >.9.M.0.:.                                                            ",
"                                      6 # X X @ = 0 j l Z M o.;.+.O.                                                            ",
"                                        : $ O o + 2 0 c B N g X.f  .                                                            ",
"                                            ; & % 3 u 1.r.e.C d r a                                                             ",
"                                                q e m 7./.(.S.k w p                                                             ",
"                                                    V 4.E.Q.G.Q t 8                                                             ",
"                                                        3.5.( x h 9                                                             ",
"                                                                                                                                ",
"                                                                                                                                ",
"                                                                                                                                ",
"                                                                                                                                ",
"                                                                                                                                ",
"                                                                                                                                ",
"                                                                                                                                ",
"                                                                                                                                ",
"                                                                                                                                ",
"                                                                                                                                ",
"                                                                                                                                ",
"                                                                                                                                ",
"                                                                                                                                ",
"                                                                                                                                ",
"                                                                                                                                "
};
