/* XPM */
static char *_84d3e24ccd84842d42b2fa5fb2f0004rIr8VLEzndFiw0RR[] = {
/* columns rows colors chars-per-pixel */
"64 64 204 2 ",
"   c None",
".  c #000000",
"X  c #0A0601",
"o  c #0D0801",
"O  c #080B0A",
"+  c #130C01",
"@  c #1D1401",
"#  c #1D1608",
"$  c #0D161A",
"%  c #121414",
"&  c #211700",
"*  c #251A00",
"=  c #2A1E00",
"-  c #271E0B",
";  c #221C11",
":  c #371E15",
">  c #11201B",
",  c #2E2100",
"<  c #2F240D",
"1  c #332600",
"2  c #372800",
"3  c #382900",
"4  c #312818",
"5  c #131E24",
"6  c #172628",
"7  c #1B2931",
"8  c #293338",
"9  c #343939",
"0  c #222525",
"q  c #483825",
"w  c #5D3627",
"e  c #4E282C",
"r  c #683D2C",
"t  c #584A32",
"y  c #55472F",
"u  c #6A4733",
"i  c #6A5A3E",
"p  c #7C4936",
"a  c #590447",
"s  c #6F045A",
"d  c #5E314C",
"f  c #62214F",
"g  c #7D0566",
"h  c #334A56",
"j  c #364B4B",
"k  c #3E5866",
"l  c #434949",
"z  c #4C5454",
"x  c #545C5C",
"c  c #575757",
"v  c #6C584E",
"b  c #746244",
"n  c #7A6849",
"m  c #76715E",
"M  c #415C6B",
"N  c #5A6364",
"B  c #4B796B",
"V  c #4B6A7A",
"C  c #58727F",
"Z  c #656D6D",
"A  c #6A7373",
"S  c #6D7B7E",
"D  c #737D7D",
"F  c #7B766E",
"G  c #86533E",
"H  c #86066D",
"J  c #8E0774",
"K  c #985A44",
"L  c #88694A",
"P  c #8B7653",
"I  c #937C56",
"U  c #8B694B",
"Y  c #A8664C",
"T  c #B56D52",
"R  c #BC7356",
"E  c #AD6F52",
"W  c #817E65",
"Q  c #CA7A5C",
"!  c #D27F60",
"~  c #568B7D",
"^  c #978059",
"/  c #A0875F",
"(  c #B0805C",
")  c #999478",
"_  c #968260",
"`  c #A58C62",
"'  c #A68E67",
"]  c #AC9266",
"[  c #AC956C",
"{  c #B49A6C",
"}  c #B2966B",
"|  c #B89F72",
" . c #BDA273",
".. c #D98464",
"X. c #C08461",
"o. c #E58B69",
"O. c #EF916E",
"+. c #FC9A75",
"@. c #F69974",
"#. c #C3A675",
"$. c #CAAC7A",
"%. c #C7A776",
"&. c #CEB07C",
"*. c #D2B27E",
"=. c #FAA57B",
"-. c #ECA87B",
";. c #557689",
":. c #597D91",
">. c #4F6F81",
",. c #5D8397",
"<. c #7C8686",
"1. c #7D8989",
"2. c #61879B",
"3. c #6E8E89",
"4. c #65A18F",
"5. c #6CAC99",
"6. c #77AB9C",
"7. c #6891A7",
"8. c #6A94AA",
"9. c #719DB5",
"0. c #6A94AA",
"q. c #5FA6AB",
"w. c #74A1B9",
"e. c #73B5A1",
"r. c #7EC8B3",
"t. c #7DADC6",
"y. c #7DD0CB",
"u. c #828D8D",
"i. c #869293",
"p. c #899494",
"a. c #8E9A9A",
"s. c #929E9E",
"d. c #849090",
"f. c #A0939A",
"g. c #ABA686",
"h. c #B9B998",
"j. c #96A2A2",
"k. c #9AA6A6",
"l. c #9DAAAA",
"z. c #9BB2B9",
"x. c #A1AEAE",
"c. c #B9ABB4",
"v. c #A6B4B4",
"b. c #A9B6B6",
"n. c #ACBBBB",
"m. c #B5BABD",
"M. c #DDBC85",
"N. c #D5B681",
"B. c #C2B892",
"V. c #E5BD87",
"C. c #FDB987",
"Z. c #C7B4AF",
"A. c #E3C289",
"S. c #E9C78D",
"D. c #EFCC90",
"F. c #F1CE92",
"G. c #FECD93",
"H. c #F6D295",
"J. c #FAD496",
"K. c #FDD799",
"L. c #FED99A",
"P. c #FEC48D",
"I. c #DCD3A9",
"U. c #C4C5A3",
"Y. c #F4E6B6",
"T. c #82B3CD",
"R. c #88BAD5",
"E. c #CDBDC7",
"W. c #98C3D8",
"Q. c #8CC1DE",
"!. c #B4C3C3",
"~. c #BCCBCB",
"^. c #B8C7C7",
"/. c #8EC5E2",
"(. c #92CAE8",
"). c #9EDAFA",
"_. c #9AD4F3",
"`. c #96D0EE",
"'. c #A3DCFA",
"]. c #B3D9EB",
"[. c #AEE0FB",
"{. c #B2E2FB",
"}. c #BCE6FA",
"|. c #C3D3D3",
" X c #CBDBDB",
".X c #C7D8D8",
"XX c #F6F2C7",
"oX c #EAD8E3",
"OX c #CFE0E0",
"+X c #CAE3E9",
"@X c #D3E5E5",
"#X c #D7E8E9",
"$X c #DAECEC",
"%X c #C5EBFB",
"&X c #CBEEFC",
"*X c #D5F3FD",
"=X c #DDF6FC",
"-X c #DFF8FD",
";X c #DEF0F0",
":X c #D7EDF1",
">X c #E2F4F4",
",X c #E5FAFC",
"<X c #EBFEFE",
"1X c #FEEBF7",
/* pixels */
"                                                                                                                                ",
"                                                                                                                                ",
"                                                                                                                                ",
"                                                                X @ & @ + . .                                                   ",
"                                                            . & 1 3 3 3 3 1 = @ X .                                             ",
"                                                          . * 3 3 3 3 3 3 3 3 3 2 , & X                                         ",
"                                                        . @ 3 3 3 3 3 3 3 3 3 3 3 3 1 X                                         ",
"                                                        o 2 3 3 3 3 3 = @ * 1 3 3 1 o                                           ",
"                                                      . , 3 3 3 3 3 1 P H./ X @ , # P .                                         ",
"                                                      & 3 3 3 3 3 3 = $.y * @ i ` b & +                                         ",
"                                                    . , 3 3 3 3 3 3 @ { 1 = * - D.P 1 = .                                       ",
"                                              $ N j . , 3 3 3 3 3 3 q ` < N.A. .F.&.] L .                                       ",
"                                              V *Xn.. * 3 3 3 3 3 3 n A.*. .f.' L.L.D.#.L                                       ",
"                                  . . . l A i.N 8.N !.@ 3 2 3 3 3 2 P L.A.c.1Xc.S.L.{ Z.{                                       ",
"                      V :.Z k.!.|. X$X,X<X<X$X!.9 $X,X+ 3 & & 2 3 1 I L. .oXE.c.P J.Z.c.%.                                      ",
"                    M _.).`.T.z. X<X,X|.!.n.~.D ^.<X<Xz 1 t #.@ 2 1 ` $.{ F v L K K.[ c M..                                     ",
"                  7 (.).).).).).}.<X<X<X<X<X$XZ <X<X<X1.+ ` *.%.@ , ` ` ` A.L.I O.C.F.{ V..                                     ",
"                  . M w.(.).).).%X<X<X<X,X$Xs.~.<X<X<Xb.; u U J.$.< I S. .J.L.U Y T @./ $.                                      ",
"                    <.|.a.C w.(.].b.u.x x 1.9 ,X<X<X<Xn.` #.%.M.L.A.] L.^ ` K.N.A.{ P &.I                                       ",
"                    u.<X<X,X|.a.i.n. X>X*XR.p.<X<X<X<X$Xi.b #.S.L.L.L.L.H.n ' [ [  .I $.i                                       ",
"                    p.<X<X<X<X#X<X<X<X*X).9.^.<X<X<X<X<X<X$Xb.x ' L.L.L.#.*.h.I.B.I.m A.q                                       ",
"                    a.<X<X<X<Xv.<X<X,X'.).V $X<X<X<X<X<X<X<X<Xn.: ` L.L.H.| W g.) d a H.;                                       ",
"                    k.<X<X<X<Xj.<X<X{.).).z <X<X<X<X<X<X<X<X<X@XK p %.L.L.{ P g J J s D.4                                       ",
"                    a.<X<X<X<Xk.<X*X).)./.a.<X<X<X<X<X<X<X<X<X<Xv @.u F.L.] v J J J H N.y                                       ",
"                    1.<X<X<X<Xx.<X}.).).T.!.<X<X<X<X<X<X<X<X<X<X<.O.Q ( K.` e H J J J } b                                       ",
"                    S <X<X<X<Xv.<X'.).).w.|.<X<X<X<X<X<X<X<X<X<Xj.o.+.w =.*.U.F f s m g.i                                       ",
"                    V ,X<X<X<Xn.=X).).).7.@X<X<X<X<X<X<X<X<X<X<Xl...+.Y R Y Y.h.XXh.g.} b                                       ",
"                    >.%X<X<X<Xb.*X).).).,.@X<X<X<X<X<X<X<X<X<X<Xj...+...e .._ B.XX) X.-.q                                       ",
"                    :.'.,X<X<Xb.*X).).).:.#X<X<X<X<X<X<X<X<X<X<Xu.V.=.@.K r T G | R O.w                                         ",
"                    7.).[.,X<Xn.&X).).).,.@X<X<X<X<X<X<X<X<X<X<XA H.J.=.+.O.T r p o.r                                           ",
"                    8.).).[.:Xn.&X).).).7.@X<X<X<X<X<X<X<X<X<X<Xz L.L.J.+.+.+.w   .                                             ",
"                    9.).).)./.^.&X).).).7.@X<X<X<X<X<X<X<X<X<X>Xt L.L.L.G.+.! .                                                 ",
"                    w.).).).R.|.&X).).).7.@X<X<X<X<X<X<X<X<X<X|.I L.L.L.L.P.T                                                   ",
"                    t.).).).T. X&X).).).:.@X<X<X<X<X<X<X<X<X<Xk.$.L.L.L.L.L.E                                                   ",
"                  . t.).).).T. X*X).).).>.$X<X<X<X<X<X<X<X<X,Xc H.L.L.L.L.L.}                                                   ",
"                  . T.).).).t.#X=X).).).V OX<X<X<X<X<X<X<X<X^.] L.L.L.L.L.L.$..                                                 ",
"                  . /.).).).t.@X,X).(.2.d.Z Z s.k.v.^.^.^.^.A M.L.L.L.L.L.L.F.o                                                 ",
"                  . _.).).)./.OX#X,.u.@X<X<X Xx.A O > B 4.5.~ I J.L.L.L.L.L.J.;                                                 ",
"                  . h V >.:.2.i.z |.<X<X<X<X<X<X<X>X Xv.d.3.~ 6 y ] $.*.&.| i q.y.r.5.~ j O .                                   ",
"                                  O N i.v.|.$X<X<X<X<X<X<X<X,X@X|.!.x.a.p.1.1.6.3.4.5.e.e.5.B 0                                 ",
"                                    . W.@X^.k.<.1.l.^. X;X<X<X<X<X<X<X<X<X<X<X<X<X<X$X@X@X@X@X X.                               ",
"                                      9.%X<X<X<X<X#X|.v.p.A A p.x.~.@X,X<X<X<X<X<X<X<X<X<X<X<X X.                               ",
"                                      7 Q.&X<X<X<X<X<X<X<X<X,X$X X^.l.<.D u.j.n.!.!.!.!.!.n.x.x                                 ",
"                                        8 t.%X<X<X<X<X<X<X<X<X<X<X<X<X<X<X,X#X@X X X|.~.~.~.l..                                 ",
"                                          . h z.>X<X<X<X,X,X<X<X<X<X<X<X<X<X<X<X<X<X<X<X<X>XN                                   ",
"                                              . x $X<X<X<X*X}.*X,X<X<X<X<X<X<X<X<X<X<X<X@XN                                     ",
"                                                  s.<X<X<X<X,X&X'.[.}.&X*X=X-X-X=X=X+Xj.%                                       ",
"                                                  x <X<X<X<X<X<X<X*X%X{.'.).).).'.W.5                                           ",
"                                                  . >X<X<X<X<X<X<X<X<X<X<X<X<X<X,Xz                                             ",
"                                                  . OX<X<X<X<X<X<X<X<X<X<X<X<X<X.X.                                             ",
"                                                  . ~.<X<X<X<X<X<X<X<X<X<X<X<X<Xv.                                              ",
"                                                  . |.<X<X<X<X<X<X<X<X<X<X<X<X<Xk.                                              ",
"                                                  $ ].<X<X<X<X<X<X<X<X<X<X<X<X<Xk.                                              ",
"                                                  ;.).-X<X<X<X<X<X<X<X<X<X<X<X<Xn.                                              ",
"                                                . R.).{.<X<X<X<X<X<X<X<X<X<X<X<XOX.                                             ",
"                                                ,.).).).*X<X<X<X<X<X<X<X<X<X<X<X<Xz                                             ",
"                                              k _.).).).'.,X<X<X<X<X<XOX<X<X<X<X<Xn..                                           ",
"                                            h (.).).).).).[.,X<X<X<X<X^.<X<X<X<X<X>Xl                                           ",
"                                          . h ,.9.R.`.).).).{.,X<X<X<Xl.<X<X<X<X<X<X!..                                         ",
"                                                    . h >.7.t.W.=X<X<Xa.<X<X<X<X<X<X,XN                                         ",
"                                                              . 9 a.|.1.$X@X@X@X@X@X Xk..                                       ",
"                                                                      . . . . . . . . .                                         ",
"                                                                                                                                ",
"                                                                                                                                "
};
