/* XPM */
static char *_1fbb89d209648dfbe9ba62590583cf56qKTs6DtYgZPUD5J[] = {
/* columns rows colors chars-per-pixel */
"64 64 173 2 ",
"   c None",
".  c #050202",
"X  c #0B0503",
"o  c #0E0A05",
"O  c #0F0B0A",
"+  c #120A05",
"@  c #1F0F06",
"#  c #140E0B",
"$  c #191307",
"%  c #16120C",
"&  c #1A150D",
"*  c #1F180D",
"=  c #1B1610",
"-  c #1D1913",
";  c #230F05",
":  c #260E08",
">  c #261104",
",  c #24140E",
"<  c #2E160C",
"1  c #221A0E",
"2  c #2E190F",
"3  c #341C0C",
"4  c #3A190E",
"5  c #2D1611",
"6  c #241D12",
"7  c #2A1E13",
"8  c #221F1B",
"9  c #311612",
"0  c #371C10",
"q  c #3C1B14",
"w  c #262114",
"e  c #2B2315",
"r  c #25221C",
"t  c #2B241B",
"y  c #2E281C",
"u  c #332315",
"i  c #3E2316",
"p  c #312519",
"a  c #3B251D",
"s  c #332B1D",
"d  c #392F1D",
"f  c #3A321E",
"g  c #272522",
"h  c #2A2723",
"j  c #2D2A25",
"k  c #2D2C28",
"l  c #332722",
"z  c #3A2721",
"x  c #332D24",
"c  c #392E24",
"v  c #342E29",
"b  c #3C2F29",
"n  c #363125",
"m  c #3B3324",
"M  c #36312A",
"N  c #3B342A",
"B  c #3E392C",
"V  c #383632",
"C  c #3D3A33",
"Z  c #471D1C",
"A  c #551614",
"S  c #551A1A",
"D  c #581D1B",
"F  c #6C0E0E",
"G  c #601C18",
"H  c #41220B",
"J  c #50230E",
"K  c #462511",
"L  c #4C2616",
"P  c #442917",
"I  c #4C2B15",
"U  c #40261C",
"Y  c #4B251F",
"T  c #4C2A1C",
"R  c #532B14",
"E  c #5A2F15",
"W  c #522F18",
"Q  c #4D351F",
"!  c #573317",
"~  c #553019",
"^  c #5D341B",
"/  c #59381F",
"(  c #69241A",
")  c #60351D",
"_  c #62381F",
"`  c #703F1D",
"'  c #4E2524",
"]  c #402F21",
"[  c #482F22",
"{  c #502322",
"}  c #512923",
"|  c #5D2929",
" . c #423621",
".. c #4B3122",
"X. c #433923",
"o. c #413728",
"O. c #413B2E",
"+. c #4C3B2B",
"@. c #533524",
"#. c #5A3D23",
"$. c #503E2D",
"%. c #433D32",
"&. c #4D3E36",
"*. c #453F38",
"=. c #642C20",
"-. c #643923",
";. c #6B3E25",
":. c #623329",
">. c #6E362C",
",. c #6F3B2E",
"<. c #603931",
"1. c #7E3F31",
"2. c #464035",
"3. c #484236",
"4. c #46413A",
"5. c #4B453C",
"6. c #4F483E",
"7. c #564130",
"8. c #51493D",
"9. c #5E523C",
"0. c #68452E",
"q. c #6C4423",
"w. c #734327",
"e. c #75452C",
"r. c #7F452C",
"t. c #7E492C",
"y. c #7C4525",
"u. c #674734",
"i. c #6C4A33",
"p. c #774D35",
"a. c #7F4B31",
"s. c #744D38",
"d. c #7B5037",
"f. c #444643",
"g. c #4F4540",
"h. c #4F4941",
"j. c #4C4D4A",
"k. c #534C42",
"l. c #5C4F42",
"z. c #575145",
"x. c #595247",
"c. c #5B554A",
"v. c #5B5752",
"b. c #6A5C44",
"n. c #70634C",
"m. c #6E6857",
"M. c #7A6F55",
"N. c #746D5A",
"B. c #7E745C",
"V. c #9C0B14",
"C. c #AA0A17",
"Z. c #E20D27",
"A. c #80472D",
"S. c #834B2E",
"D. c #86542F",
"F. c #8D522D",
"G. c #874430",
"H. c #944E34",
"J. c #895235",
"K. c #8D5D37",
"L. c #82543D",
"P. c #975D38",
"I. c #A95B3C",
"U. c #8F6035",
"Y. c #88603F",
"T. c #95764F",
"R. c #8C7C5F",
"E. c #837254",
"W. c #A37946",
"Q. c #B67F4F",
"!. c #837760",
"~. c #8E8065",
"^. c #C3985E",
/* pixels */
"                                                                                                                                ",
"                                                                                                                                ",
"                                                                                                                                ",
"                                                                                                                                ",
"                                                                                                                                ",
"                                                                                                                                ",
"                                                        b +.7.                                                                  ",
"                                                      p C C N l.                                                                ",
"                                                      ] C j.%.8.v.                                                              ",
"                                                      $.v f.O.8.                                                                ",
"                                                      +.c V N &.                                                                ",
"                                                      +.B B B %.                                                                ",
"                                                      o.B B B O.%.%.                                                            ",
"                                                    m B B B B B O.%.C                                                           ",
"                                                  m s m B B %.2.3.3.2.                                                          ",
"                                    c m c       m m x x m O.b.E.R.~.!.m.                                                        ",
"                                    s m m m x s m s e 6 x O.9.b.n.M.B.N.<.{ |                                                   ",
"                                    p s s s p s s s y e n n %.2.3.5.5.%.} Y ' V V                                               ",
"                                    7 y y e e y e t y s n n B N n n x x z a z v M                                               ",
"                                    7 e 1 * 1 e 6 t s X.n %.%.x t x x t r r t h M                                               ",
"                                    7 y w 6 6 t 6 t m +.x %.n w U >.:.p - 9 A t M                                               ",
"                                    7 p y e w e 6 w s X.s B y 6 T 1.,.u & C.Z.q l                                               ",
"                                    6 p y w w e w y i.#.p Y p * 6 a a * % F V.5 Z                                               ",
"                    # # #           6 p y w w e w p A.;.a G i u @ P d.u.6 + % , S                                               ",
"                  # + X o           7 p y w w e w p H.r.T ( ^ w.y.F.P.p...U 7 9 D           l 4.4.                              ",
"                  = + + o & l       x y e 6 1 6 w y G.I.t.( K I R J R q 2 i [               t # N                               ",
"                *.    6 o # &         e w 6 1 6 7 6 i a.e.^ 4 i / U.Q.Y.u a l     r = % = &                                     ",
"              O.%.B                   w w 6 1 6 e e e y ~ ) L 0 #.W.^.T.....t       8 + X X O                                   ",
"              m e 6                   6 6 1 * 1 e y y e I E ^ -.;.D.K.0.s.@.        t = o . . . .                               ",
"                                        * * $ $ * 6 w w I R K _ e.S.J.L.L...                                                    ",
"                                          - e 7 * 1 6 1 W ^ 3 3 ~ w.t.e.@.                                                      ",
"                                            o.m s s t w ^ ` H > ; < 3 2 p s                                                     ",
"              g.5.*.%.%.O.N c x x x j j j y y p s m m s Q q.! H 3 @ + 1 e y c n N                                               ",
"    k.6.5.*.%.%.N N c x s y y s s s y s s y y s s s d m X.X.X. . .f s s x x n N M c                                             ",
"  5.3.2.5.5.2.%.N n c x x x x x n n x x x s y p f m f f f d d f f f f s s s y r r r t t t                                       ",
"*.3.5.5.8.k.8.2.O.N N m m m m m m m m n n n c s s m f f f m  .m f d s p y y t r 8 8 g h h h h h g g                             ",
"4.3.5.6.k.z.z.k.6.2.%.O.B B B B B B B B B N N N m m n m m m m m m d s p y y t r r r h j j h h h h j j h h j x                   ",
"  *.5.6.8.k.z.c.c.z.k.5.2.2.%.O.O.O.O.O.O.O.O.B B B B B B N N m n m x x l x x j j x k j j j j j j j j k k j j j j               ",
"    5.5.5.6.k.z.c.c.c.c.z.8.8.5.2.2.%.%.O.O.O.O.O.O.O.O.O.B B B B N N n n N M c x x x x j j j j j j k k k k k k j j h j         ",
"          5.5.6.h.k.z.c.c.c.c.z.z.k.8.5.2.3.%.O.O.O.O.O.O.O.B B B B N N N m n N v c x x x x x k k k k k k k k k j g g h j k     ",
"              6.5.6.5.6.k.k.k.z.z.z.z.z.k.k.8.5.3.%.%.O.%.C B B N N N N N N n n M c x x x x k j j j j j j j j h h g g h j k k   ",
"                      8.6.5.5.5.6.h.k.k.k.k.k.k.8.8.6.5.5.*.%.O.B N N n N v c c x x x x j j j j h h h h h h h h h h j j k k j   ",
"                            6.5.5.4.4.%.%.%.&.&.3.4.4.4.3.*.*.%.%.%.C B B N N M M c x x x x j x j j j j x x j j j x j j j h h   ",
"                                    k.N r a =.} j x v M N N N N N N N M M v v v v v v v v v v x x x x x x x x x x x x h         ",
"                                              & = - - 7 e e t t t e t r r r t t x l l l x x x c c l x c                         ",
"                                                  & & 6 6 6 6 7 6 - = % # # %                                                   ",
"                                                  # * 6 1 1 * * = & & o X X X                                                   ",
"                                                    $ 1 * & $ & & % % o . . .                                                   ",
"                                                    * - - = = = & % & # . . .                                                   ",
"                                                      - - - - - & : : o . .                                                     ",
"                                                      - - - - - & + + o . .                                                     ",
"                                                    - - - = & = = % # # X .                                                     ",
"                                                    & & & &                                                                     ",
"                                                                                                                                ",
"                                                                                                                                ",
"                                                                                                                                ",
"                                                                                                                                ",
"                                                                                                                                ",
"                                                                                                                                ",
"                                                                                                                                ",
"                                                                                                                                ",
"                                                                                                                                ",
"                                                                                                                                ",
"                                                                                                                                "
};
