/* XPM */
static char *fe6e4ea12f424269ab0bffb7c5ece9cfu0eL2YvB8IJh8Fyq[] = {
/* columns rows colors chars-per-pixel */
"64 64 132 2 ",
"   c None",
".  c #030303",
"X  c #0A0706",
"o  c #070708",
"O  c #080709",
"+  c #0C0C0C",
"@  c #130E0E",
"#  c #1B0D0F",
"$  c #0E0E10",
"%  c #110F10",
"&  c #0E1111",
"*  c #131314",
"=  c #1B1716",
"-  c #171618",
";  c #181718",
":  c #171D1F",
">  c #1B1B1B",
",  c #210C0F",
"<  c #221011",
"1  c #2A1115",
"2  c #211D1E",
"3  c #311114",
"4  c #341218",
"5  c #2A221F",
"6  c #1C1F21",
"7  c #221F20",
"8  c #1F2020",
"9  c #242324",
"0  c #282627",
"q  c #272728",
"w  c #292728",
"e  c #2C2B2B",
"r  c #302225",
"t  c #322D2D",
"y  c #392F2B",
"u  c #2D2E30",
"i  c #2F3334",
"p  c #2C3B3E",
"a  c #333333",
"s  c #3B3B3B",
"d  c #47191F",
"f  c #441D22",
"g  c #492326",
"h  c #462A2E",
"j  c #4E2D2D",
"k  c #552128",
"l  c #5B252D",
"z  c #5E2C31",
"x  c #453333",
"c  c #493630",
"v  c #4C3C36",
"b  c #553537",
"n  c #5A3336",
"m  c #523E3A",
"M  c #5E3F3A",
"N  c #61262C",
"B  c #632E34",
"V  c #6A2931",
"C  c #712C34",
"Z  c #623137",
"A  c #653239",
"S  c #693138",
"D  c #67383C",
"F  c #723037",
"G  c #783136",
"H  c #72343A",
"J  c #7F333D",
"K  c #75383D",
"L  c #584239",
"P  c #2C3F44",
"I  c #763F45",
"U  c #7E3B44",
"Y  c #444444",
"T  c #414A4B",
"R  c #4A4A4A",
"E  c #404F54",
"W  c #4A5151",
"Q  c #495A5C",
"!  c gray33",
"~  c gray35",
"^  c #654C44",
"/  c #764146",
"(  c #7C444B",
")  c #79594E",
"_  c #6A5650",
"`  c #775B53",
"'  c #7E5E50",
"]  c #7D6059",
"[  c #455D64",
"{  c #4A6266",
"}  c #676767",
"|  c gray43",
" . c #696969",
".. c #84373E",
"X. c #81343D",
"o. c #8A3940",
"O. c #8B3D46",
"+. c #8E3B43",
"@. c #8B3E48",
"#. c #8F4048",
"$. c #964047",
"%. c #90434C",
"&. c #91424A",
"*. c #91484F",
"=. c #8F4753",
"-. c #975158",
";. c #A0474F",
":. c #A04951",
">. c #A1505A",
",. c #A65259",
"<. c #816257",
"1. c #816358",
"2. c #83675C",
"3. c #81685E",
"4. c #936F5F",
"5. c #B15E66",
"6. c #B35B64",
"7. c #856B63",
"8. c #8A6A61",
"9. c #8C6E64",
"0. c #946F65",
"q. c #917165",
"w. c #937164",
"e. c #977266",
"r. c #927067",
"t. c #AF626B",
"y. c #658086",
"u. c #718C90",
"i. c #799095",
"p. c #849C9F",
"a. c #8FB0B7",
"s. c #9FC0C5",
/* pixels */
"                                                                                                                                ",
"                                                                                                                                ",
"                                                                                                                                ",
"                                                          ! ! ! Y s                                                             ",
"                                                  s } | }  . .! Y Y                                                             ",
"                                                  s R ~ R s a s Y Y Y                                                           ",
"                                                    e ! s + . > a s                                                             ",
"                                                    e s a a s s a a                                                             ",
"                                                      i T W Y a e e                                                             ",
"                                                      Q p.i.E @ -                                                               ",
"                                                      { s.a.[ X - 9 >                                                           ",
"                                                  9 & p u.y.P . O + + > e                                                       ",
"                                              9 $ * + + 6 : + . o + - - O >                                   x                 ",
"                                            9 O + * * * - * + O o - 9 > * o                                 A B < 9             ",
"                                            + o O O * - 9 9 - + o > a 9 > O e                             / %.*.d # 7           ",
"                                          s > + + - - - a s a + . 9 s e 9 O >                             ( >.5.C 3 # 9         ",
"                                          9 > * + > > - s R Y 9 . 9 Y e 9 O o                             I O.:.o.V 4 2         ",
"                                        a > - * O * > - e Y R a - e Y 9 - o .                             B J ..G V f r         ",
"                                        e > * $ o O > > ; a Y Y e e s > O o O a                         x g z D n n h           ",
"                                      a > - * + o o * > * e Y Y s e a ; o o * 9                         ] m                     ",
"                                      e > * * O o . + - * a Y Y s e e 9 o O - * e                     r.8.                      ",
"                                    9 > - * - > - o + + * s R Y a e a e + O > - e                   r.1.                        ",
"                                    > * * * > e 9 o o + $ s R R s 9 a e @ * * > 9 a               e.<.                          ",
"                                  e > * * >       * O $ $ s R R Y t e 9 * e > > 9 e e           4.'                             ",
"                                  e > * 6         a * * + a R R Y a ; > * 9   9 > 9 9 > 8 9 e c L                               ",
"                                  > > * 9         a * * + a R Y a > - > * -     9 > > * + * * = 5                               ",
"                                e 9 - 9           a * $ + a Y Y s e 9 s e - 9     9 + O X + + % >                               ",
"                                e > * 9           9 * + + a R R Y s a Y s 9 - 9     9 = = - > > *                               ",
"                                > - * e           * $ * * a Y R R s e s Y a > + >     w 2 > q 9                                 ",
"                              9 > * > e           * * * * a Y Y s e - > e e * . + >       e                                     ",
"                            e 9 9 > 9           e - * * - e s a 9 - > > > 9 > + o + >                                           ",
"                          u 9 9 9 e             > * * * * 9 e 9 2 9 e 9 e e w 9 > * * >                                         ",
"                          9 e 9 9 t           9 + $ * % % > 2 9 e e e 9 e e e e e 9 > - >                                       ",
"                          m v 5 2 9           - + * * * > 9 w e e e w w e w 9 w e e e 9 > e                                     ",
"                        7.7._ y 9           e * $ * * > w e e 9 9 7 > 9 9 2 9 w e e e e w e                                     ",
"                      9.r.`                 + + * * * 9 e e e 9 ; + o % % > w e e e e e e e e                                   ",
"                    9.0.)                 - + * * * - w e e e 9 O . . . . O > 9 e e e e e e e a                                 ",
"                  3.2.`                 > * * * * * > e e e 9 * . . . . . . o + > 9 e e e e e a                                 ",
"                b M ^                 > - * * * * * 9 e e 9 * . . . . . . . . . o * > w e e e e                                 ",
"      Z =.t.-.U S j                 > - * * * * - - w e 9 - . . . . . o 9 e         - 7 e e e e                                 ",
"      z @.6.,.#.H                 > - * * - > > > > e e > o . . . + >               e 9 e e e e                                 ",
"    y f N &.;.$.K               9 > > > > > > > > 9 e 9 + . . . + 9                 a e e e e e                                 ",
"      > , l X.+.F             9 > > > > > - > 9 9 e e ; o . + -                     a e e e e                                   ",
"        > # k F B           9 > > > * + * - > w e e 9 - + *                         a 9 e e e                                   ",
"          * 1 f b         9 ; - - > > > 9 9 > 9 9 9 9 9                           e e e 9 9                                     ",
"            2 t           9 9 >     a w e e 9 9 9 9                               e w w > >                                     ",
"                          9         e e e e e e e e                             a e e 9 9                                       ",
"                                  9 9 e e e e e e                             a e e e e a                                       ",
"                                  e e e e e e a                               a e e e q                                         ",
"                                  e e e e e a                                   > > 9 9                                         ",
"                                w e e e e a                                     > o + 9                                         ",
"                                w w e e a                                     > + . . -                                         ",
"                              e e 9 e a                                       . . . . O >                                       ",
"                              a e 9 e                                           > - o o * e                                     ",
"                              e e 9 e                                             9 * . o - a                                   ",
"                            e e e a                                                 9 + O O + e                                 ",
"                          a 9 w e a                                                     . . O                                   ",
"                          a % * 9 e                                                                                             ",
"                          > o o 9                                                                                               ",
"                        9 > + o *                                                                                               ",
"                        > > > * + -                                                                                             ",
"                          * * + >                                                                                               ",
"                                                                                                                                ",
"                                                                                                                                "
};
