/* XPM */
static char *_df25702d24d44758146116ce5463e49AZbDQvdcY6PGQkgx[] = {
/* columns rows colors chars-per-pixel */
"64 64 141 2 ",
"   c None",
".  c #2B2B2D",
"X  c #2E2E33",
"o  c #302F34",
"O  c #2F3034",
"+  c #313236",
"@  c #34353C",
"#  c #37383D",
"$  c #39393F",
"%  c #363640",
"&  c #373841",
"*  c #3B3C44",
"=  c #3E3E48",
"-  c #3E4047",
";  c #3F4149",
":  c #404147",
">  c #42434C",
",  c #48484F",
"<  c #454651",
"1  c #474954",
"2  c #494A55",
"3  c #4C4E5A",
"4  c #4E515D",
"5  c #51535E",
"6  c #4F5160",
"7  c #535562",
"8  c #585763",
"9  c #565965",
"0  c #595A66",
"q  c #5B5D6A",
"w  c #5E5F70",
"e  c #5E616E",
"r  c #5F6170",
"t  c #61626F",
"y  c #636473",
"u  c #686774",
"i  c #676874",
"p  c #666876",
"a  c #676976",
"s  c #666877",
"d  c #676977",
"f  c #666876",
"g  c #686B77",
"h  c #696A76",
"j  c #656779",
"k  c #666779",
"l  c #656778",
"z  c #656879",
"x  c #676978",
"c  c #676979",
"v  c #67687A",
"b  c #67697B",
"n  c #676B7A",
"m  c #676A7B",
"M  c #676C7A",
"N  c #666979",
"B  c #686978",
"V  c #686979",
"C  c #686A79",
"Z  c #696B79",
"A  c #6A6B79",
"S  c #68697B",
"D  c #686A7A",
"F  c #696A7A",
"G  c #696B7A",
"H  c #696A7B",
"J  c #696B7B",
"K  c #686C78",
"L  c #6B6D79",
"P  c #6A6C7A",
"I  c #6B6C7A",
"U  c #6A6C7B",
"Y  c #6A6D7B",
"T  c #6C6E7B",
"R  c #6C6F7B",
"E  c #696A7C",
"W  c #686B7C",
"Q  c #696B7C",
"!  c #6A6B7C",
"~  c #6A6B7E",
"^  c #696C7D",
"/  c #696D7D",
"(  c #6A6C7C",
")  c #6A6D7C",
"_  c #6B6D7C",
"`  c #6A6D7D",
"'  c #6B6F7C",
"]  c #6B6D7E",
"[  c #696E7E",
"{  c #6C6D7F",
"}  c #6A6C7C",
"|  c #6E707B",
" . c #6E727E",
".. c #6E717F",
"X. c #71717E",
"o. c #6C6F80",
"O. c #6D6F80",
"+. c #6D6F81",
"@. c #6F7280",
"#. c #6F7284",
"$. c #6E7181",
"%. c #707382",
"&. c #717483",
"*. c #737582",
"=. c #747482",
"-. c #707384",
";. c #717485",
":. c #737584",
">. c #727585",
",. c #737585",
"<. c #727785",
"1. c #717486",
"2. c #737486",
"3. c #747587",
"4. c #747586",
"5. c #727483",
"6. c #757887",
"7. c #727588",
"8. c #747788",
"9. c #747689",
"0. c #767788",
"q. c #777989",
"w. c #777D8B",
"e. c #76798A",
"r. c #7A7D8E",
"t. c #7C7D8D",
"y. c #7A7C8B",
"u. c #7C7E90",
"i. c #7C8190",
"p. c #7F8190",
"a. c #7D8290",
"s. c #808193",
"d. c #808593",
"f. c #808394",
"g. c #818395",
"h. c #818495",
"j. c #838494",
"k. c #878996",
"l. c #8C8E9C",
"z. c #90929F",
"x. c #9193A2",
/* pixels */
"                                5 7 5                                                                                           ",
"                                  4 5 5                                                                                         ",
"                                    4 5 5 5                                                                                     ",
"                                        5 5 4                                                                                   ",
"                                          4 7 4                                                                                 ",
"                                            3 4 5 4                                                                             ",
"                                              3 4 4 t U U U ( G s y y y e q q u                                                 ",
"                                              4 3 3 y T ( ( ( Q G s y y e q q :.                                                ",
"                                        5 7 9 7 3 3 y U ( ( Q G y y y e q q q t.                                                ",
"                                  2 3 5 7 7 9 9 2 2 y U U Q Q k y y e e q q q s.i.                                              ",
"                                3 3 4 5 7 7 9 7 1 1 y U G v y y y e e q 9 9 y f.s.                                              ",
"                                1 3 3 4 7 7 9 7 < < y U v y y y e e q 9 9 9 ( h.u.G y y q q 9 7 5 3                             ",
"                                    3 4 7 7 7 7 < < y G s y y t q q q 9 7 7 ,.h.9.G y y q 0 7 7 5                               ",
"                                    y 4 5 7 7 7 > > y y y y e q q 0 9 7 7 7 w.f.+.y y r q 9 7 5                                 ",
"                                &.,.,.5 4 7 7 5 > > y y y e q q 0 9 9 7 7 7 i.t.v y y q 0 9 q                                   ",
"                          |  .&.9.9.3.5 4 6 7 5 > > e t e q q 0 9 7 7 7 4 q j.-.v y r q 0 0 G ( v U y s                         ",
"y 0                   g T $.%.,.7.,.3.5 4 4 7 4 = = q q q q 0 9 7 7 7 4 3 ( i.Q y y e 0 9 0 G ( ( M v G s y t t 0               ",
"  8 5           y y G G Q { +.#.,.,.,.5 3 3 4 4 = = q q q 0 9 7 7 7 5 4 3 q.q.k y r q 9 7 0 U ( ( Q G v s y y t q 9 7 5 3 2 >   ",
"      2 < 7 q t y y y v G Q ( +.$.-.-.7 3 3 4 3 = = q q 0 9 7 7 7 4 5 3 5 t.%.y y e 0 9 7 0 ( ( ( Q v s y y e q 0 7 5 3 2 1 > * ",
"        < 7 0 q q y y y v G ( ( { $.+.7 3 3 3 3 * = q 0 9 7 7 7 4 4 3 3 0 t.G y r q 0 7 7 0 U v G v v y y e q 0 7 5 3 1 > :     ",
"        t 7 9 9 q e r y y y v G ( ( { 7 2 3 3 3 * = 0 9 7 7 5 4 3 3 3 3 y ,.y y e q 9 7 7 q M v v y y y e q 0 5 5               ",
"        s 7 7 7 9 0 q q y y y y G G ( 7 2 3 3 2 * = 9 7 7 7 4 3 3 3 3 2 U ( y e q 9 9 7 4 q M v s y e q                         ",
"      g G 4 4 7 7 9 0 q q e y y y v 6.&.2 2 3 2 * * 9 7 7 4 3 3 3 3 2 1 T v y e q 9 7 5 4 q v s y y                             ",
"      ( G 3 3 4 4 7 7 9 0 q e t y %.l.l.s 2 3 2 & * 7 5 4 4 3 3 3 2 1 1 { y t q 0 7 7 4 4 q k y y s g                           ",
"    G ( Q 3 2 3 3 4 4 7 9 0 q q G k.x.z.k.e 3 2 % * 7 4 4 3 3 3 2 1 1 4 U y e q 9 7 7 3 3 q y y e y g y                         ",
"  G Q ( Q 1 > 1 2 3 3 4 7 7 9 0 ( t.s.j.k.y.4 1 # * 5 3 3 3 2 2 1 < < 9 y y q 0 7 7 5 4 3 q y q q q y                           ",
"y U Q ( U 1 ; > < 2 2 3 4 5 7 9 s G { $.%.:.0 1 # = 5 3 3 3 2 2 < < < 0 y e q 9 7 5 5 3 3 q q 0                                 ",
"y ( Q ( ( < * = > < < 1 3 3 4 7 y v G G G U t < # = 4 3 2 2 2 < < < > 0 t q q 9 7 5 5 3 1 9                                     ",
"y ( ( ( { > # * = = > < 1 2 3 5 y y k v G G y < # = 4 2 2 1 < < > > ; 0 e q 9 7 7 4 3 1                                 2       ",
"t G G Q { < @ @ $ * = > > < 2 4 y y y k k k s 2 # = 5 2 2 < < > > > ; 0 q 0 9 7 7 3                                   2         ",
"          > X @ @ @ $ = > > < 3 y y y y y y y 3 # = 3 2 < < > > > ; ; 9 q 9 7 7 9 U                                             ",
"                        * = ; 2 r y y y y y y 5 # = 3 < < < > > > = = 7 0 9 7 7 q 3.                                            ",
"                            = 2 t y y y y y y 9 # = 2 < > > > > = = * 7 9 7 7 4 e q.3.                          8               ",
"                              1 q y r r y y y 0 # = 2 > > > : = = = * 7 9 7 5 3 y q.6.&.            s g i h                     ",
"                                0 q e e y t y q # = 1 > > = = = = = * 7 7 7 4 3 y q.q.,.{ ( G G v s y y G 3.                    ",
"                                  9 q q e e e e * = < > > = = * = * * 7 7 5 3 3 G q.q.$.( G v k y y y t { y.9.y.                ",
"                                      q q q q e ; = > = = = = * * * * 5 7 5 3 3 ( q.3.( v s y y y e e q %.9.e.e.%.q 9 9         ",
"                                    y e 0 q q q 2 = > = = = * * * * * 4 5 4 3 3  .3.%.k y y y y e q q e %.,.q.q.U 9 9 9 9 7 0 7 ",
"                                y y v r 0 0 0 q 5 - > = = * * * * $ * 4 4 3 3 3 $.,.( y y t e q q 0 9 e $.$.8.q.e 7 9 9 7 7 9 9 ",
"                              9 y y v r 9 9 9 9 9 ; > = * * * $ $ $ * 4 4 3 3 3 $.&.y y e q q q 0 9 9 e ( ( -.3.9 7 7 7 7 7 7 7 ",
"                              5 y y k e 7 7 7 9 7 > > = * * $ $ $ $ * 4 4 3 2 3 %. .e q q 0 0 9 7 7 7 y G G ( U 7 7 7 7 7 7 7 7 ",
"                                e y y q 7 7 7 7 7 1 > * * $ $ $ $ $ * 4 3 3 2 4 %.s q 0 0 9 7 7 7 5 5 y y y y q 7 5 7 7 7 7 7 7 ",
"                                y y y q 7 7 7 7 5 2 ; * $ $ $ $ # # * 3 3 2 1 7  .e 0 9 7 7 7 5 4 3 3 y y r w 7 5 5 7 5 5 4 4 4 ",
"                                s y y q 5 4 5 5 5 4 = * $ $ $ # # @ * 3 3 2 < 7 U 0 9 7 7 5 4 3 3 3 3 q q q 0 7 4 4 3 3 3       ",
"                            , 8 g q e q 3 3 4 4 5 4 = * # # $ # @ @ * 3 2 1 > q y 7 7 7 4 3 3 2 1 < 4 0 9 9 7 4 2 2             ",
"                    > 1 1 1 2 5 G q q q 3 3 3 3 4 4 = $ # # # # @ @ * 2 1 > > q 0 7 5 3 3 3 2 1 < > 4 5 4 4                     ",
"          > > , < 1 1 1 1 1 2 3 y e q 0 3 3 3 3 2 4 > $ # # # # # # * 2 1 > > q 7 3 3 2 2 < < > > > 4                           ",
"        > < < < < < < < < < < 2 y r 0 9 2 2 2 2 2 2 > # # # # # # # * 1 < > > q 3 2 2 < < > > = = < T {                         ",
"      > > < < < < < > > > > < > y y 9 7 < < 1 2 2 2 < # # # # # # # * < < > > 7 2 < > > > = = * * > %.X.y                       ",
"    $   = > > > > > > > > > > > q y 7 7 < > > < < 1 < * # # @ @ @ # * < < > > 2 > > > = = * * # + =                             ",
"            * = > > > > > > > : 7 y 7 7 > > > > < < < & # # # # @ @ * < > > > > > = = = = % #                                   ",
"                * * : : > > = - 3 r 7 5 > = ; > > > > * # # # # @ + * > > > = = = = * % % <                                     ",
"                    $ = = = = = < r 5 4 > = = = = > > * # # # # @ @ * > > > = = * $ # # # 5 t                                   ",
"                      * * * * = > q 4 3 = * = = = = ; * # # # # @ + $ > > = = * # # @ @ # 3 q 8                                 ",
"                      # * * * * = 0 5 3 * & * * * = = * # @ # # @ @ $ > > = * # @ @ @ + @ 1 7 8                                 ",
"                      @ * $ * $ * 5 7 2 * % # $ * * * * # @ @ @ @ @ $ > - = * # @ @ @ @ @ > 2 3 5                               ",
"                      @ * # $ $ $ 2 5 < * # # # # $ $ $ @ + + + + + # = * * * + + + + + + # = > < >                             ",
"                      @ # # # @ # > 3 > # @ # # @ @ @ @ + + X X X X + * $ # + X X X X X X X + # * >                             ",
"                      + @ @ +           @ + + + @ @ o                                                                           ",
"                      + + O                   X + + o                                                                           ",
"                    X +                             +                                                                           ",
"                                                      .                                                                         ",
"                                                        .                                                                       ",
"                                                                                                                                "
};
