/* XPM */
static char *_1e76bc2f61641cdec1430c20c7ec0ddNadLLJm1PHr7JcKT[] = {
/* columns rows colors chars-per-pixel */
"64 64 73 1 ",
"  c #1F1A12",
". c #241F17",
"X c #2D2921",
"o c #39362E",
"O c #3A3730",
"+ c #3F3B33",
"@ c #403D35",
"# c #45423A",
"$ c #4A453D",
"% c #4D493F",
"& c #4D4940",
"* c #524D44",
"= c #565146",
"- c #585247",
"; c #555249",
": c #5A554B",
"> c #5D584E",
", c #5E5950",
"< c #615B4F",
"1 c #625D52",
"2 c #666155",
"3 c #686357",
"4 c #6A655A",
"5 c #6E695D",
"6 c #706B5F",
"7 c #736E61",
"8 c #767165",
"9 c #787367",
"0 c #7B766A",
"q c #7E796C",
"w c #817B6E",
"e c #827E72",
"r c #858176",
"t c #898477",
"y c #878379",
"u c #8B867A",
"i c #8E897B",
"p c #918B7E",
"a c #8D8B82",
"s c #938F81",
"d c #969184",
"f c #999486",
"g c #969389",
"h c #9A9689",
"j c #9D998C",
"k c #9F9B90",
"l c #A59F8F",
"z c #A49F91",
"x c #A6A08F",
"c c #A6A191",
"v c #A9A495",
"b c #ACA798",
"n c #ADA899",
"m c #AFAA9C",
"M c #B0AB9E",
"N c #B1AC9F",
"B c #AEABA0",
"V c #B3AFA1",
"C c #B3AFA3",
"Z c #B3B0A2",
"A c #B4B0A2",
"S c #B4B0A4",
"D c #B7B2A6",
"F c #B7B4A7",
"G c #B8B4A7",
"H c #B6B3A8",
"J c #B7B4A9",
"K c #B8B4A8",
"L c #BAB7AC",
"P c #BBB8AC",
"I c #BCB9AE",
"U c #BFBBB0",
"Y c #BFBCB1",
/* pixels */
">0875>8=:3:5*:1>71>4*>1*====-11-21**=1>51-1-65:5>:1-7:*7:=**==*=",
"5w6832717649<2415537>24255778q0804545w0t040588607385051t774178>4",
"#fzclccccvcbccvccvcvlzcccvzvlbs-iVVVnmNMmmnVVVmZVmVmMmVFDVDDAV>X",
"$bbmmMMmmmMmnmMnbbbbccvcbvcclns$gIKAMNDDAVNDVNNNNDKVFDVVDDADVK>.",
"#cMMMmmnbnmnnnnnnbccvcbccvcccbd>jIGDNADDDDVVNVVNVAADDNVNDKADVK>.",
"@jmMmbmnmbnnbbmbbvlzcccccbbbvns>jUDVNAKKVMMMMNNMNNADKVDVFAADVJ>.",
"+hnMmbnnnmbbmmnvbcllcbcccccccbs>hIDANVDAVNmMmnNNVANAKDADAVVKDL,.",
"@hvMmbnMmbbmnbbnbzcccvcccclccbs>gIDAmMFDNNmnnNNMAKDANVGDDDDKAK>.",
"@jmmMmbnnnbmMmnbbcbbclcccclccbs>dIKANMFDNNnbnnmMNAAAVDDVKDKKKK>.",
"@jmbmnnbbnnnnnbbcvccclcccccccbs>gIDAVNFDMVNVVNVVmKKDFDKDKPKKVL,.",
"@jnbnvbbnnMncbcbcccbclcccclcvnd>dKVVNVFANVNNGDADVJKDFGKKDIDANJ>.",
"@jvnnbnbMmMnccbccvccclcccccccbd>dGVVMMDVVVNNDDAVDFKDKDGVDAVDVH>.",
"@jvnbnbbnnnbbvcxcvcccccclllllbs>sDmMNnNNVVNDVDKKKADAJKKVMANNAD>.",
"@jnbbvvnbbnbbcvvcccccllllllllbs>dDnVVmmMNNNVVNVVDDNVVFNMnMMMND>.",
"+hnmbnbnmbbncbccbccccclllllllbs>dDVKAmmNVVNNVAVVADNVVVNMbmNNNJ>.",
"+hbnbbbmmnbbccbclcclcclllllllbs>sDNFDNMDAVVVVVVAVNNMMMMNMMVADJ>.",
"@jnbnbbnnnbcbccccbbcllllllllcbs>jKMVDDNDVNNVVVVVANVVMMMANMMDDJ>.",
"@jbbbvbbbbcvblccccccllzcllllcbs>jKNVVmnNNMMMVDDVVNNDVNNNVNNDVH>.",
"@jmnbnbbbbcblcccbccclllclllllbs>gKNVmmnbMNMNNAAVAVADVVAVMNVVDL,.",
"@jnbbnnnbbcccvvclcvllcccclcclbs>gKNNnnNnmMNNVADDFVDDAAVVNVVVKI,.",
"@jnbnbbbbbbbcbcccclllcccllcccbs>gKNVMNmmMMVVDDDKDVVDJDbVVKVADK>.",
"@hbbmbbbbbbcclccccllllccclcccbs>dKNVNMNNMMVAVAKGFDDKDDAVVDDVDD>.",
"+gcbnbncvcbcclcvccllllcccclccbs>gIVnMMVVNNMDDDKDDVKDKKKDDVVDNV:.",
"Osbnnmbvccvbccccccllllcccccccbs>gIMbMMVDAVVGADDKDVAVKKKAADVVND:.",
"+gnbnnbbcbbbcvlcclllllcczcbclbd:gKMnMMVKKDADAVKDGAVDKPDAVDNMAP,.",
"@jbbbbbcccvcccclccclllcccccccbh,gIVVVDDDKGGKKDKDDDDKKKDDVAAVKI,.",
"@jcbcbbcccclcccccccllcclllcccbl4aKAKDKKDDKKKDDDKDDKPKKDNADDFKK>.",
"@hcbvbblccclclcccllclcclllcccvl4aPDDADKDDKKKDDFDAJKKKKDDAVAKVK>.",
"+fcvcccclzclcllcllcclcclllcclcf1aIDDDDDGKDDDDGKDDDKDKKAKVVVAAD>.",
"+slclccclllllccllllllllllllllcs=aIDKKKDKKDDVMADDDDKDDDFDVAADDJ>.",
"opcvcbcccccccvbccccccbbccccccbd=sIKKPKPIIPPGADKADKKKKKKDKDKKGL,.",
"$edddfdpdpdipdpspiiiisiipuiips0=ecjkcjzzjzkhjhhdgjhgjhhhhjdhhg:@",
"<28877648555575771556017914256125975w075578595274q0598755q5747*=",
";yspsdpfzdpdssssdssdfjdhjddssdu5qhddjhfhddjhfdpfffhfdffdfjdfdj&+",
"@kbcvbbVLmnbbbbcbbcbvbnnnbbbbnj:yNbNNbnnbnNnbbcbbccbvvvvbvvcbn$ ",
"@jbccbbnDmbbbbccccbbccbbbccccbj1rnvbnbzcbbccclcccclvcvllllllcb#.",
"+hnbbbbbKVcbnbccvcnnbbcbbcbbcbh>rNbbbczvbcccclvcllccccllllllcm# ",
"+hbNbbbbDKccbbccbbnnbclcccbNnnf&rNbvclvbclccvvccllccllllllllbV*.",
"@jbDMmnbnDclcbbccbnbclccccbNnnz1uNvcclccclclcccccllccllllllcNV;.",
"+hcmnMmnVDclllcbccbbclcbcvbbbmj>rbbvlcclllllllcccllclllllllcNV&.",
"@hvnbbbDKDvllllcvcbnbccbvcbbnVz1ebcclccllcclllllcclccllllllcnV=.",
"+hbbccnKKDbcllcvccvbbvbbvcbAVDm4eblllllllcclllllnbcbbclllllcnb:.",
"+dvcccDKKAbbclccclcnbccccvnKDZb4ebllllllllllllllbccvbclllllvnv-.",
"+dbnbbDKDnbbcllccccbbccbbcnDAMv4rblccllllllllcccccccclcclcvcbb:.",
"+dvbcnDDDNccbbcllclcbccbbcnVKDv4rbcczllllllllcccbvcclcclcccccb:.",
"@hNbcbDVKAblccclcclccccbbcbmKIb4ebccllccllcbbcbbncccbvbccclcbb:.",
"+fNbcmKmKDNbbbllcclcbcccvcbbDYm4uNccclllcbbbccbbcccbbncbccllcn:.",
"+dbcvNFVVAMbcclcbvlcbbccccvvVIz-aDvcccclbbccllcccbbbccbcclllcb:.",
"+dbcbbDnbvbccllccclcVVbclcbbnKv>rncccbbcbccbclllcbccccczllllcv:.",
"+fnnbMKmnxbbcllccccbVDncvcbnbAz:ebcvbbcbbccvccvclcllllllllllcv-.",
"@jbnbnKnMbMAnbccvbbnMDVlvvcbbKb2envbnbcNNbcclcczlllllllllllzbm:.",
"+fcvcbVNDcbnbbzccvccnNbccvcMVKm4rncbnbbDDVblllllllllcllcMnvbmV:.",
"+dcncvNmmcvbcccbcccbbbnnbvcnZYV4rNccccnmvcccclzcvcllcccVAmbcnV:.",
"@hcncbDNbbbblcbncccvvbNnvvcbVYm4ebclcbmblllcbcbbccllccmDVnbvmV:.",
"@hbbcnVKDNbbbbbnbvlcbbNnccvvnPB4ebcnVDDblcccccccccllllccbbcccb:.",
"@hvnbnMDKANmvccccbccvbbcllvbcVm40cvNDKKDVncclvbcclllllbccbcbcm:.",
"+hcvbbcNKDPDbblllcvccbbMnlcvcmv4ebccbMADVnbbvbnbvclccccbcccccn:.",
"@jcbbncbFVDKbcvllzvbccbVVblcbVv4rncvcbnMnvccccbnnbnccvnmcccccb:.",
"@jbbbbcVKDDIbcclcccbcccNAvllnKb4rnccvvcbbcbbcccbVKKAMDVVmncccb:.",
"@hbnbcvNIDKDmblllccbllzvbcllcnh,0ccvczlcclccllbVKKDDKDDKDbclcv:.",
"+hnbcbbbVDKKAAclllcccllcblfhfnz3ebzclczbbccclbVFKKVNVVVNbcllcv:.",
"+hvbcbnvNDKKDIVblcbbbbllcchflmb4ebzllccbbcllzNnmbvccDKmcvbzlbv-.",
"+ujjfzjzvbDVBVmzjhhhllhlclsddzj10vllczcbbjjljmbljfsdzvjhjzfhjj=.",
"$@&*$1$1*>1;,****--$*$*>&**$%$==*1::>>2:*:**&**$*:$%%$-$=>$*$$#."
};
