/* XPM */
static char *_3dad093d6c341a8ca8d0f90b9ae32ccWWGMcqSvva5Ycj5Q[] = {
/* columns rows colors chars-per-pixel */
"64 64 190 2 ",
"   c #1F1A12",
".  c #241F17",
"X  c #333028",
"o  c #3A3730",
"O  c #3F3B33",
"+  c #57150C",
"@  c #581A12",
"#  c #6A1F0F",
"$  c #661D11",
"%  c #782B1A",
"&  c #5E2921",
"*  c #403D35",
"=  c #792F20",
"-  c #7D3423",
";  c #6F3F35",
":  c #45423A",
">  c #4A453D",
",  c #4D493F",
"<  c #72483C",
"1  c #4D4940",
"2  c #524D44",
"3  c #565046",
"4  c #585247",
"5  c #555249",
"6  c #5A554B",
"7  c #5D584E",
"8  c #5E5950",
"9  c #744E43",
"0  c #615B4F",
"q  c #7A5447",
"w  c #625D52",
"e  c #666155",
"r  c #686256",
"t  c #6A655A",
"y  c #6E695D",
"u  c #706B5F",
"i  c #7F6B5B",
"p  c #736D61",
"a  c #767165",
"s  c #787367",
"d  c #7B766A",
"f  c #7E796C",
"g  c #802C16",
"h  c #90341C",
"j  c #8B3B2B",
"k  c #953821",
"l  c #923C2A",
"z  c #8F3F35",
"x  c #A53F2A",
"c  c #8D4534",
"v  c #97463A",
"b  c #9C4D3C",
"n  c #A04026",
"m  c #AA442C",
"M  c #A44431",
"N  c #A74435",
"B  c #AC4A3B",
"V  c #B34632",
"C  c #B54D33",
"Z  c #BD4C33",
"A  c #BC4C38",
"S  c #AF5035",
"D  c #C34D34",
"F  c #CB5336",
"G  c #C85538",
"H  c #D55D3C",
"J  c #994844",
"K  c #8F574E",
"L  c #995647",
"P  c #9A4E51",
"I  c #925953",
"U  c #A94E48",
"Y  c #B24C44",
"T  c #BE5948",
"R  c #A9575C",
"E  c #BA5D58",
"W  c #88644C",
"Q  c #8A6957",
"!  c #966A5C",
"~  c #9A7458",
"^  c #9C765C",
"/  c #A26B50",
"(  c #B86855",
")  c #A47B5A",
"_  c #AA7F5D",
"`  c #9F5C61",
"'  c #A55E66",
"]  c #8D6C60",
"[  c #9A6965",
"{  c #887567",
"}  c #817B6E",
"|  c #957864",
" . c #967D6B",
".. c #837D72",
"X. c #A67562",
"o. c #BD7C6C",
"O. c #C45B46",
"+. c #CB5E45",
"@. c #D35D41",
"#. c #CF6349",
"$. c #D86647",
"%. c #CA6957",
"&. c #D16B50",
"*. c #CA775B",
"=. c #D27459",
"-. c #CC6C66",
";. c #AD825F",
":. c #96846B",
">. c #858076",
",. c #888377",
"<. c #8C877A",
"1. c #8E897B",
"2. c #968475",
"3. c #9A8373",
"4. c #918B7E",
"5. c #9B897B",
"6. c #AD8361",
"7. c #B28561",
"8. c #B78C65",
"9. c #BE936B",
"0. c #A48679",
"q. c #B88372",
"w. c #BB8B79",
"e. c #AF9472",
"r. c #B49778",
"t. c #CE8167",
"y. c #C1966C",
"u. c #C1986F",
"i. c #C48874",
"p. c #C18F7C",
"a. c #C49B72",
"s. c #C9A177",
"d. c #C1A179",
"f. c #CBA47B",
"g. c #CAA57B",
"h. c #948F82",
"j. c #9E8E80",
"k. c #969184",
"l. c #999485",
"z. c #969389",
"x. c #9A9689",
"c. c #9D998C",
"v. c #9F9B90",
"b. c #A68F83",
"n. c #A39284",
"m. c #AE9181",
"M. c #AF9E87",
"N. c #A29789",
"B. c #A8978B",
"V. c #A59F8F",
"C. c #AA9E8E",
"Z. c #B39988",
"A. c #A49F90",
"S. c #AB9F90",
"D. c #A6A08F",
"F. c #BDA586",
"G. c #A6A191",
"H. c #A9A495",
"J. c #ACA798",
"K. c #AFAA9C",
"L. c #B2A292",
"P. c #B5A896",
"I. c #B0AB9C",
"U. c #B0AB9E",
"Y. c #B1AC9E",
"T. c #B2AD9F",
"R. c #BAAE9A",
"E. c #BDB09B",
"W. c #AEABA0",
"Q. c #B3AEA1",
"!. c #B4AFA1",
"~. c #B4AFA2",
"^. c #B4B0A3",
"/. c #B5B1A4",
"(. c #B7B3A6",
"). c #B7B4A7",
"_. c #B8B4A7",
"`. c #B7B4A9",
"'. c #B8B5A8",
"]. c #B9B6AA",
"[. c #BCB9AD",
"{. c #BFBCB1",
"}. c #C5A587",
"|. c #CDAB84",
" X c #CCAE8A",
".X c #D0AF88",
"XX c #CDB28E",
"oX c #C5B194",
"OX c #C9B599",
"+X c #C2BAA8",
/* pixels */
"7 d a p y 7 a 3 6 r 6 y 2 6 w 7 p w 7 t 2 7 w 2 3 3 3 3 4 w w 4 e w 2 2 3 w 7 y w 4 w 4 u y 6 y 7 6 w 4 p 6 2 p 6 3 2 2 3 3 2 3 ",
"y } u a r e p w p u t s 0 e t w y y r p 7 e t e y y p p a f d a d t y t y } d ,.d t d y a a u d p r a y d y w ,.p p t w p a 7 t ",
": l.A.G.V.G.G.G.G.H.G.J.G.G.H.G.G.H.G.H.V.A.G.G.G.H.A.H.V.J.h.4 1.Q.Q.Q.J.K.Y.U.K.K.J.Q.Q.Q.K.^.Q.K.Q.K.U.K.Q.).(.Q.(.(.^.Q.7 X ",
"> J.J.K.K.U.U.K.K.K.U.K.J.K.U.J.J.J.J.J.G.G.H.G.J.H.G.G.V.J.h.> z.[.].^.U.Y.(.(.^.!.Y.(.!.Y.Y.Y.Y.(.].Q.).(.Q.!.(.(.^.(.Q.].7 . ",
": G.U.U.U.K.K.J.J.J.K.J.J.J.J.J.J.J.G.G.H.G.J.G.G.H.G.G.G.J.k.7 x.[._.(.Y.^.(.(.(.(.Q.Q.Y.Q.Q.Y.Q.^.^.(.(.Y.Q.Y.(.].^.(.Q.].7 . ",
"* c.K.U.K.J.K.J.K.J.J.J.J.J.K.J.J.H.V.A.G.G.G.G.G.J.J.J.H.J.h.7 x.{.(.Q.Y.^.].].Q.U.U.U.U.Y.Y.U.Y.Y.^.(.].Q.(.Q.).^.^.(.Q.`.7 . ",
"O x.J.U.K.J.J.J.J.K.J.J.K.K.J.H.J.G.V.V.G.J.G.G.G.G.G.G.G.J.h.7 x.[.(.^.Y.Q.(.^.Q.Y.K.U.K.J.Y.Y.!.^.Y.^.].(.^.(.^.!.Q.].(.].8 . ",
"* x.H.U.K.J.J.U.K.J.J.K.J.J.J.J.J.A.G.G.G.H.G.G.G.G.V.G.G.J.h.7 z.[.(.^.K.U.).(.Y.Y.K.J.J.Y.Y.U.^.].(.^.Y.Q._.(.(.(.(.].^.].7 . ",
"* c.K.K.U.K.J.J.J.J.J.K.U.K.J.J.J.G.J.J.G.V.G.G.G.G.V.G.G.J.h.7 k.[.].^.Y.U.).(.Y.Y.J.J.J.J.K.U.Y.^.^.^.Q.(.(.!.].(.].].].].7 . ",
"* c.K.J.K.J.J.J.J.J.J.J.J.J.J.J.G.H.G.G.G.V.G.G.G.G.G.G.G.J.h.7 z.[.(.^.Q.Y.).(.U.!.Y.Q.Q.Y.!.Q.K.].].(.).(.].(.].[.].].Q.].8 . ",
"* c.J.J.J.H.J.J.J.J.U.J.G.J.G.J.G.G.G.J.G.V.G.G.G.G.V.G.H.J.k.7 k.].Q.Q.Y.Q.).^.Y.Q.Y.Y._.(.^.(.Q.`.].(.)._.].].(.[.(.^.Y.`.7 . ",
"* c.H.J.J.J.J.J.U.K.U.J.G.G.J.G.G.H.G.G.G.V.G.G.G.G.G.G.G.J.k.7 k._.!.Q.U.U.(.!.Q.Q.Y.Y.(.(.^.Q.(.).].(.].(._.Q.(.^.Q.(.Q.`.7 . ",
"* c.H.J.J.J.J.J.J.J.J.J.J.H.G.D.G.H.G.G.G.G.G.G.V.V.V.V.V.J.h.7 h.(.K.U.Y.J.Y.R.P.U.Y.(.Q.(.].].].^.(.^.`.].].Q.U.^.Y.Y.^.(.7 . ",
"* c.J.J.J.H.H.J.J.J.J.J.J.G.H.H.G.G.G.G.G.V.V.V.V.V.V.V.V.J.h.7 k.(.J.Q.Q.U.R.}.r.n.J.!.Q.Y.Q.Q.(.(.Y.Q.Q.).Y.U.J.U.U.U.Y.(.7 . ",
"O x.J.K.J.J.J.J.K.J.J.J.G.J.G.G.J.G.G.G.G.G.V.V.V.V.V.V.V.J.h.7 k.(.Q.].^.U.oXs._ 5.J.Y.Q.^.!.Q.^.(.Y.Q.Q.Q.Y.U.J.K.Y.Y.Y.`.7 . ",
"O x.J.J.J.J.J.K.K.J.J.J.G.G.J.G.V.G.G.V.G.G.V.V.V.V.V.V.V.J.h.7 h.(.Y.).(.E.|.9.^ N.U.Q.!.Q.Q.^.Q.Y.Y.U.U.U.U.Y.U.U.Q.^.(.`.7 . ",
"* c.J.J.J.J.J.J.J.J.J.G.J.G.G.G.G.J.J.G.V.V.V.V.V.V.V.V.G.J.h.7 x.].U.Q._.OXf._  .G.Y.!.Q.Q.Q.Q.^.Y.!.Q.U.U.U.^.Y.U.U.(.(.`.7 . ",
"* c.J.J.J.H.J.J.J.J.G.H.J.V.G.G.G.G.G.G.V.V.A.G.V.V.V.V.G.J.h.7 x.].Y.!.E. X9.^ j.J.U.U.!.(.(.Q.Q.Y.Y.(.Q.Y.Y.Y.Q.Y.Y.(.Q.`.7 . ",
"* c.K.J.J.J.J.J.J.J.G.J.V.G.G.G.J.G.G.G.V.V.V.G.V.V.V.V.V.J.h.7 z.].Y.Y.oXf.;.| V.U.U.Y.Y.^.^.Q.^.Q.^.(.Q.Q.^.Q.U.Y.Q.Q.(.].8 . ",
"* c.J.J.J.J.J.J.J.J.G.G.G.H.H.G.V.G.H.V.V.G.G.G.G.V.G.G.V.J.h.7 z.].Y.E. Xa.^ 5.J.U.Y.Y.Q.^.(.(.).Q.(.(.^.^.Q.Q.Y.!.Q.Q.].[.8 . ",
"* c.J.J.J.J.J.J.J.J.J.J.G.J.G.G.G.G.V.V.V.G.G.G.V.V.G.G.G.J.h.7 z.].Y.OXf.7.| N.K.U.Q.Q.(.(.(.].(.!.Q.(.`.(.J.Q.Q.].!.^.(.].7 . ",
"* c.J.J.K.J.J.J.J.J.J.G.G.V.G.G.G.G.V.V.V.V.G.G.G.V.G.G.G.J.h.7 k.].R.XXa.^ 5.J.U.U.Q.^.Q.^.]._.).(.(.].(.(.^.Q.Q.(.(.!.(.(.7 . ",
"O z.G.J.J.J.J.G.H.G.J.G.G.V.G.H.G.G.V.V.V.V.G.G.G.G.V.G.G.J.h.7 z.[.oX|.7.| V.Q.Y.Y.U.(.(.(.].(.(.Q.].(.].].].(.(.Q.Q.(.Y.Q.6 . ",
"o h.J.J.J.K.J.H.G.G.H.J.G.G.G.G.G.G.V.V.V.V.G.G.G.G.G.G.G.J.h.7 z.+XXXa.) 2.J.(.^.Q.Q._.^.(.(.].(.Q.^.!.].].].^.^.(.Q.Q.Y.(.6 . ",
"O z.J.J.J.J.J.J.G.J.J.J.G.H.V.G.G.V.V.V.V.V.G.G.A.G.J.G.V.J.k.6 x.OX|.8.^ N.Y.].].(.^.(.^.Q.].(._.^.Q.(.].[.(.^.Q.(.Y.U.^.[.8 . ",
"* c.J.J.J.J.J.G.G.G.H.G.G.G.G.V.G.G.G.V.V.V.G.G.G.G.G.G.G.J.x.w N.OXs.) 2.J.(.(.]._._.].].(.].(.(.(.(.].].].(.(.Q.^.^.Q.].[.8 . ",
"* c.G.J.G.J.J.G.G.G.G.V.G.G.G.G.G.G.G.V.V.G.G.V.V.V.G.G.G.J.N.u M..X8.| V.(.].(.(.].].].(.(.(.].(.(.].[.].].(.Y.^.(.(.).].].7 . ",
"* x.G.J.H.J.J.V.G.G.G.V.G.V.G.G.G.V.V.G.V.G.G.V.V.V.G.G.G.H.V.{ F.f._ 3.J.(.].(.(.].].].(.(.).(.^.`.].].].].(.(.^.Q.^.].Q.].7 . ",
"O l.G.H.G.G.G.G.V.A.G.V.G.V.V.G.V.V.G.G.V.G.G.V.V.V.G.G.V.G.x.:.|.9.^ N.^.(.(._.].(.(.(.(._.].(.(.(.].(.].].^.].Q.Q.Q.^.^.(.7 . ",
"O h.V.G.V.G.G.G.V.V.V.V.V.G.G.V.V.V.V.V.V.V.V.V.V.V.V.V.V.G.l.e.f.6.3.K.].].(.].].(.(.Q.U.^.(.(.(.(.].(.(.(.).(.Q.^.^.(.(.`.7 . ",
"o 4.G.H.G.J.G.G.G.G.G.G.G.H.J.G.G.G.G.G.G.J.J.G.G.G.G.G.G.J.M.d.y.X.B.(.[.].[.[.[.[.[._.^.(.].^.(.].].].].].].(.].(.].]._.].8 . ",
"> ..k.k.k.l.k.4.k.4.k.1.4.k.4.h.4.<.1.<.1.h.1.1.4.<.1.1.4.l.r.s.7. .h.v.G.c.A.A.x.A.v.x.c.x.x.k.z.x.x.z.c.x.x.x.x.c.k.x.x.z.6 * ",
"0 e a a p p u t a y y y y p y p p w y y u d w p s w t e u :.d.u.~ i p y } d p y y p a y s y e p t f d y s a p y y f y p t p 2 3 ",
"5 ,.h.4.h.k.4.l.A.k.4.k.h.h.h.h.k.h.h.k.l.x.k.x.x.k.k.h.l.F.f.7.Q 4.k.k.c.x.l.x.k.k.c.x.l.k.4.l.l.l.c.l.k.l.l.k.l.x.k.l.k.c.1 O ",
"* v.J.G.H.J.J.!.].K.J.J.J.J.J.G.J.J.G.J.H.J.J.J.J.J.J.J.P. Xa.~ { J.J.Y.Y.J.J.J.J.J.Y.J.J.J.G.J.J.G.G.J.H.H.H.H.J.H.H.G.J.J.>   ",
"* c.J.G.G.J.J.J.(.K.J.J.J.J.G.G.G.G.J.J.G.G.J.J.J.G.C.Z.}.f.7.W } J.H.J.J.J.A.G.J.J.G.G.G.V.G.G.G.G.V.H.G.H.V.V.V.V.V.V.G.J.: . ",
"O x.J.J.J.J.J.J.].Q.G.J.J.J.G.G.H.G.J.J.J.G.S.G.S.C.Z.i.t.*./ q ..Y.J.J.J.G.A.H.J.G.G.G.G.V.H.G.V.V.G.G.G.G.V.V.V.V.V.V.G.K.:   ",
"O x.J.Y.J.J.J.J.(.].G.G.J.J.G.G.J.J.J.J.L.Z.w.q.q.q.o.%.+.C b < ..Y.J.H.G.V.G.J.G.V.G.G.H.H.G.G.V.V.G.G.V.V.V.V.V.V.V.V.J.Q.2 . ",
"* c.J.(.U.K.J.J.J.(.G.V.G.J.J.G.G.J.J.L.w.*.&.#.+.O.O.A V x c 9 >.Y.H.G.G.V.G.G.G.V.G.V.G.G.G.G.G.V.V.G.G.V.V.V.V.V.V.G.Y.Q.5 . ",
"O x.G.K.J.U.K.J.Q.(.G.V.V.V.G.J.G.G.L.p.=.$.$.H H F F D V m b q ..J.J.H.V.G.G.V.V.V.V.V.V.V.G.G.G.V.V.G.V.V.V.V.V.V.V.G.Y.Q.1 . ",
"* x.H.J.J.J.J.(.].(.H.V.V.V.V.G.H.Z.i.=.$.$.$.$.@.G F D A Y U I { H.G.G.V.G.G.V.V.G.G.V.V.V.V.V.G.G.V.G.G.V.V.V.V.V.V.G.J.Q.3 . ",
"O x.J.J.G.G.J.].].(.J.G.V.V.G.H.G.m.( C C T %.%.+.G D D A Y R ' [ B.V.V.V.V.V.V.V.G.G.V.V.V.V.V.J.J.G.J.J.G.V.V.V.V.V.G.J.J.6 . ",
"O k.H.G.G.G.(.].].^.J.J.G.V.G.G.G.n.X.c % = j v C Z Z Z V U R ' ` 0.N.V.V.V.V.V.V.V.V.V.V.V.V.V.J.G.G.H.J.G.V.V.V.V.V.H.J.H.4 . ",
"O k.J.J.J.J.(.].(.J.J.J.G.V.V.G.G.V.0.! ; @ + $ % k m V V N J P P [ n.G.G.V.V.V.V.V.V.V.V.G.G.G.G.G.G.G.G.V.G.G.V.G.H.G.J.J.6 . ",
"O k.H.J.G.J.(.(.(.Y.G.G.J.J.G.V.V.G.V.n.| 9 & @ # g k M B B v J v I 5.G.A.V.V.V.V.V.V.V.V.G.G.G.J.H.G.G.V.G.G.V.G.G.G.G.G.J.6 . ",
"* x.Y.J.G.J.(.Q.].^.J.V.G.G.G.V.G.G.V.V.N.3.Q < - h x Y E E B v z K 5.V.V.V.G.G.V.V.G.J.J.G.J.J.J.G.G.G.J.H.J.G.G.G.V.G.J.J.6 . ",
"O l.Y.J.G.K.].K.].^.Y.J.J.J.V.V.G.G.V.G.H.C.n.3.! L B O.-.-.O.m l I j.A.G.V.V.V.G.J.J.J.G.G.J.J.G.G.G.J.J.J.G.J.G.G.V.V.G.J.6 . ",
"O k.J.G.H.Y.).!.Q.^.U.J.G.G.V.G.J.H.V.G.J.J.V.V.n.0.X.( %.%.#.D n K j.V.G.G.G.V.J.J.G.G.V.V.G.G.G.J.J.J.G.G.J.G.G.V.V.V.G.J.6 . ",
"O k.J.G.J.J.(.J.J.H.J.G.G.V.V.G.G.G.V.G.Q.!.J.G.V.C.C.m.q.o.( S b ! j.A.G.J.J.G.J.G.G.J.G.V.V.V.G.J.G.G.G.G.G.A.V.V.V.V.G.H.6 . ",
"O l.J.J.J.U.].K.J.D.J.J.G.V.V.G.G.G.G.J.Q.(.J.G.H.G.J.J.G.P.b.q ] n.V.H.J.J.G.J.J.G.G.H.G.G.H.G.V.G.V.V.V.V.V.V.V.V.V.V.G.H.4 . ",
"* c.J.J.J.J.].J.U.J.U.^.J.J.G.G.H.J.J.J.U.(.Q.V.H.H.G.J.J.].J.r } J.H.J.J.J.G.Y.Y.J.G.G.V.G.G.A.V.V.V.V.V.V.V.V.V.V.V.A.J.K.6 . ",
"O l.G.H.G.J.Q.Y.(.G.J.J.J.J.A.G.G.H.G.G.J.Y.J.G.G.H.G.U.Q.].K.t >.J.G.J.J.J.J.(.(.Q.J.V.V.V.V.V.V.V.V.V.G.V.V.G.U.J.H.J.K.Q.6 . ",
"O k.G.J.G.H.Y.K.K.G.G.J.G.G.G.J.G.G.G.J.J.J.J.J.J.H.G.J.^.{.Q.t >.Y.G.G.G.G.J.K.H.G.G.G.G.V.A.G.H.G.V.V.G.G.G.Q.^.K.J.G.J.Q.6 . ",
"* x.G.J.G.J.(.Y.J.J.J.J.V.G.J.J.G.G.G.H.H.J.Y.J.H.H.G.J.Q.{.K.t ..J.G.V.G.J.K.J.V.V.V.G.J.G.J.J.G.G.V.V.G.G.K.(.Q.J.J.H.K.Q.6 . ",
"* x.J.J.G.J.Q.].(.Y.J.J.J.J.J.J.J.H.V.G.J.J.Y.J.G.G.H.H.J.[.W.t ..J.G.J.Q.(.(.J.V.G.G.G.G.G.G.G.G.G.V.V.V.V.G.G.J.J.G.G.G.J.6 . ",
"* x.H.J.J.J.U.(.].^.Y.K.H.G.G.G.G.J.G.G.H.J.J.G.V.V.H.J.G.Q.K.t d G.H.Y.(.].].(.Q.J.G.G.V.H.J.G.G.V.V.V.V.V.J.G.G.J.G.J.G.K.6 . ",
"O x.G.H.J.J.G.Y.].(.[.(.J.J.V.V.V.G.H.G.G.J.J.U.J.V.G.H.G.K.H.t ..J.G.G.J.U.^.(.Q.J.J.J.H.J.J.J.H.G.V.G.G.G.G.J.G.G.G.G.G.J.6 . ",
"* c.G.J.J.J.G.J.).Q.(.].J.G.H.V.V.A.H.J.G.G.J.Q.Q.J.V.G.J.Q.H.t >.J.G.H.G.J.J.U.J.H.G.G.G.G.J.J.J.J.J.G.G.H.J.K.G.G.G.G.G.J.6 . ",
"* c.J.J.J.J.G.Q.].(.(.[.J.G.G.V.G.G.G.J.G.G.G.Y.^.H.V.V.J.].J.t >.J.G.G.H.H.G.J.J.G.J.J.G.G.G.J.Q.].].^.U.(.!.Q.K.J.G.G.G.J.6 . ",
"* x.J.J.J.G.H.Y.[.(.].(.K.J.V.V.V.G.G.J.V.V.A.H.J.G.V.V.G.J.c.8 d G.G.H.G.A.V.G.G.V.G.G.V.V.J.Q.].].(.(.].(.(.].(.J.G.V.G.H.6 . ",
"O x.J.J.G.J.J.J.Q.(.].].^.^.G.V.V.V.G.G.G.V.V.G.J.V.l.c.l.J.A.r ..J.A.G.V.G.A.J.J.G.G.G.V.J.Q.).].].Q.Y.Q.Q.Q.Y.J.G.V.V.G.H.6 . ",
"O x.H.J.G.J.J.H.Y.(.].].(.[.Q.J.V.G.J.J.J.J.V.V.G.G.x.l.V.K.J.t ..J.A.V.V.G.G.J.J.G.V.V.A.Y.J.K.J.H.G.G.(.].K.G.H.J.A.V.J.H.4 . ",
"O <.x.c.l.A.x.A.H.J.(.!.W.Q.K.A.x.c.x.c.V.V.c.c.G.N.h.k.k.A.c.w d H.V.N.G.A.G.J.J.x.x.N.c.K.J.N.x.l.h.k.A.H.c.c.c.A.l.x.x.c.3 . ",
"> * 1 2 > w > w 2 7 w 5 8 2 2 2 2 4 4 > 2 > 2 7 1 2 2 > , > 3 3 2 w 6 6 7 7 e 6 2 6 2 2 1 2 2 > 2 6 > , , > 4 > 3 7 > 2 > > : . "
};
