/* XPM */
static char *_38464b8563a43fdef2b8f819b665fd6b9qAOfVZeULtm5Z5[] = {
/* columns rows colors chars-per-pixel */
"64 64 218 2 ",
"   c #0A0704",
".  c #130C01",
"X  c #1D1401",
"o  c #18140B",
"O  c #1F1A13",
"+  c #221802",
"@  c #251A00",
"#  c #2A1E00",
"$  c #241F17",
"%  c #371E15",
"&  c #13231E",
"*  c #2E2100",
"=  c #2F240D",
"-  c #332600",
";  c #372800",
":  c #382900",
">  c #2C2313",
",  c #2D2A24",
"<  c #36332A",
"1  c #2F3333",
"2  c #373834",
"3  c #3F3B33",
"4  c #50322A",
"5  c #403D35",
"6  c #663D2E",
"7  c #45413A",
"8  c #4A453D",
"9  c #4D493F",
"0  c #584A31",
"q  c #694534",
"w  c #70533A",
"e  c #6F045A",
"r  c #661752",
"t  c #36434A",
"y  c #4C4942",
"u  c #464A48",
"i  c #524D44",
"p  c #4D504E",
"a  c #565046",
"s  c #595246",
"d  c #55524A",
"f  c #5A554B",
"g  c #5D584F",
"h  c #4B5558",
"j  c #5C5952",
"k  c #545A5A",
"l  c #65594B",
"z  c #715847",
"x  c #625D52",
"c  c #685C56",
"v  c #4A6358",
"b  c #766547",
"n  c #666155",
"m  c #666258",
"M  c #6A655A",
"N  c #6E695D",
"B  c #716B5F",
"V  c #76735D",
"C  c #415B69",
"Z  c #505B60",
"A  c #5B6464",
"S  c #4C6B7C",
"D  c #507174",
"F  c #686B67",
"G  c #726E62",
"H  c #767165",
"J  c #787367",
"K  c #7A7669",
"L  c #7E7A6D",
"P  c #776E73",
"I  c #6A7475",
"U  c #797B76",
"Y  c #86533E",
"T  c #86066D",
"R  c #8E0774",
"E  c #985A44",
"W  c #88694A",
"Q  c #8B694B",
"!  c #8B7653",
"~  c #937C56",
"^  c #AF6C50",
"/  c #B56D52",
"(  c #817C6D",
")  c #827E72",
"_  c #CE7D5E",
"`  c #568B7D",
"'  c #978059",
"]  c #A5855E",
"[  c #8A8579",
"{  c #988E70",
"}  c #918C7E",
"|  c #A58C62",
" . c #A68E67",
".. c #AC9369",
"X. c #B2966B",
"o. c #B49A6C",
"O. c #B89F72",
"+. c #BDA273",
"@. c #C08461",
"#. c #D98464",
"$. c #E58B69",
"%. c #EF916E",
"&. c #F69974",
"*. c #FC9A75",
"=. c #C5A776",
"-. c #CAAC7A",
";. c #CEB07C",
":. c #D2B27E",
">. c #ECA87B",
",. c #FAA57B",
"<. c #557687",
"1. c #597D91",
"2. c #647983",
"3. c #5D8397",
"4. c #7C8686",
"5. c #7D8989",
"6. c #688B90",
"7. c #6EA695",
"8. c #6CAC99",
"9. c #6993A9",
"0. c #6A94AA",
"q. c #719DB5",
"w. c #5FA6AB",
"e. c #73B5A1",
"r. c #74A1B9",
"t. c #7EC8B3",
"y. c #7DADC6",
"u. c #7DD0CB",
"i. c #848D8B",
"p. c #928E81",
"a. c #969184",
"s. c #999486",
"d. c #979388",
"f. c #9A9689",
"g. c #9D998C",
"h. c #849090",
"j. c #879394",
"k. c #8E9A9A",
"l. c #A59F8F",
"z. c #A49E90",
"x. c #A0939A",
"c. c #AAA488",
"v. c #A6A191",
"b. c #A9A495",
"n. c #ACA798",
"m. c #AFAA9C",
"M. c #B0AB9D",
"N. c #B1AD9F",
"B. c #B9B998",
"V. c #96A2A2",
"C. c #9AA6A6",
"Z. c #9DAAAA",
"A. c #9BB2B9",
"S. c #A3AEAC",
"D. c #B2AEA1",
"F. c #B3AEA1",
"G. c #B5B0A3",
"H. c #B6B2A5",
"J. c #B8B4A7",
"K. c #B7B4A9",
"L. c #B9B5A9",
"P. c #BCB9AD",
"I. c #B9ABB4",
"U. c #A6B4B4",
"Y. c #A9B6B6",
"T. c #ACBBBB",
"R. c #DABA84",
"E. c #C2B892",
"W. c #EDBC87",
"Q. c #C7B4AF",
"!. c #E3C289",
"~. c #E9C78D",
"^. c #FEC48D",
"/. c #EFCC90",
"(. c #F4CE92",
"). c #F6D295",
"_. c #FAD496",
"`. c #FDD799",
"'. c #FED99A",
"]. c #D4CEA7",
"[. c #F4E6B6",
"{. c #82B3CD",
"}. c #88BAD5",
"|. c #CDBDC7",
" X c #8CC1DE",
".X c #98C3D8",
"XX c #B4C3C3",
"oX c #B8C7C7",
"OX c #BCCBCB",
"+X c #8EC5E2",
"@X c #92CAE8",
"#X c #96D0EE",
"$X c #9AD4F3",
"%X c #9EDAFA",
"&X c #B3D9EB",
"*X c #A3DCFA",
"=X c #AEE0FB",
"-X c #B7E4FB",
";X c #C3D3D3",
":X c #C7D8D8",
">X c #CBDBDB",
",X c #F6F2C7",
"<X c #EAD8E3",
"1X c #CFE0E0",
"2X c #CAE3E9",
"3X c #D3E5E5",
"4X c #D7E8E9",
"5X c #DAECEC",
"6X c #C5EBFB",
"7X c #CBEEFC",
"8X c #D7EDF1",
"9X c #D5F3FD",
"0X c #DFF6FA",
"qX c #DDF6FC",
"wX c #FEEBF7",
"eX c #E2F4F4",
"rX c #E5FAFC",
"tX c #EBFEFE",
/* pixels */
"g K H G N g H a f m f N i f x g G x g M i g x i a a a a s x x s n x i i a x g N x s x s B N f N g f x s G f i G f a i i a a i a ",
"N ( B H M n G x G B M J x n M x N N m G g n M n N N G G H L K H K M N M N ( K [ K M K N H H B K G M H N K N x [ G G M x G H g M ",
"7 s.z.v.l.v.v.v.v.b.v.n.v.v.b.v.v.b.v.b.l.l.v.v.b.v.z.v.l.n.p.s [ g.g.z.b.m.N.M.m.m.n.F.F.F.m.G.F.m.F.m.M.m.F.J.H.F.H.H.G.F.g , ",
"8 n.n.m.m.M.M.m.m.m.M.m.n.m.M.n.n.n.n.n.v.b.b.b.n.b.v.v.l.n.p.< o X + X . 2 L z.F.F.N.H.F.N.N.N.N.H.L.F.J.H.F.F.H.H.G.H.F.L.g $ ",
"7 v.M.M.M.m.m.n.n.n.m.n.n.n.n.n.n.n.v.b.b.b.n.b.v.b.b.v.v.n.d + ; : : : : ; # X , M [ m.N.F.F.N.F.G.G.H.H.N.F.N.H.L.G.H.F.L.g $ ",
"5 g.m.M.m.n.m.n.m.n.n.n.n.n.m.n.n.b.l.l.b.v.v.b.b.n.n.n.b.x @ : : : : : : : : : ; * + , g.N.N.M.N.N.G.H.L.F.H.F.J.G.G.H.F.K.g $ ",
"3 f.n.M.m.n.n.n.n.m.n.n.m.m.n.b.n.b.l.l.b.n.v.v.v.b.v.v.K X : : : : : : : : ; ; : : - O f.n.N.N.F.G.N.G.L.H.G.H.G.F.F.L.H.P.j $ ",
"5 f.b.M.m.n.n.M.m.n.n.m.n.n.n.n.n.z.v.b.b.b.v.b.b.v.l.s.O ; : : : : : # X @ - ; : ; . ) n.N.N.M.G.L.H.G.N.F.J.H.H.H.H.L.G.L.g $ ",
"5 g.m.m.M.m.n.n.n.n.n.m.M.m.n.n.n.b.n.n.v.l.v.v.v.v.l.d * : : : : : ; ! ).]   X * o ! j n.n.m.M.N.G.G.G.F.H.H.F.L.H.L.L.L.L.g $ ",
"5 g.m.n.m.n.n.n.n.n.n.n.n.n.n.n.v.b.v.b.v.l.v.b.v.v.[ + : : : : : : # -.0 @ . w | b + . v.N.F.F.m.L.L.H.J.H.L.H.L.P.L.L.F.P.j $ ",
"5 g.n.n.n.b.n.n.n.n.M.n.b.n.b.n.v.v.b.n.b.l.v.v.v.v.G * : : : : : : X o.- # @ # /.! - # L H.G.H.F.K.L.H.J.J.L.L.H.P.H.G.N.K.g $ ",
"5 g.b.n.n.n.n.n.M.m.M.n.v.b.n.v.b.b.v.v.z.l.v.d A u y * : : : : : : 4 | = R.!.+.(.;...W y H.G.F.H.J.L.H.L.H.J.F.H.G.F.H.F.K.g $ ",
"5 g.b.n.n.n.n.n.n.n.n.n.n.b.v.v.v.b.v.b.b.z.s.D 9XT.  @ : : : : : : b !.R.+.x. .'.'./.=.W n.L.L.L.G.H.G.K.L.L.F.M.G.N.N.G.H.g $ ",
"5 g.n.n.n.b.b.n.n.n.n.n.b.f.a.[ ) H N f k I j.A 0.A XXX : ; : : : ; ! '.!.I.wXI.~.'.o.Q.o.a.F.F.H.H.N.F.F.J.N.M.n.M.M.M.N.H.g $ ",
"3 f.n.m.n.n.n.n.m.n.L 2.1.F C.XX;X>X5XrXtXtX5XXX1 5XrX. : + + ; : - ~ '.+.<X|.I.! _.Q.I.=.[ F.F.G.H.N.F.F.F.N.M.n.m.N.N.N.K.g $ ",
"3 f.n.n.n.n.n.m.m.s.C $X%X#X{.A.>XtXrX;XXXT.OXI oXtXtXh - 0 =.X ; - | -.X.P c W E `...j R.H F.G.F.N.N.M.M.M.M.N.M.M.F.G.H.K.g $ ",
"5 g.n.n.n.n.n.n.n.p @X%X%X%X%X%X-XtXtXtXtXtX5XF tXtXtX5.. | :.=.X * | | | !.'.~ %.W.(.o.R.G F.F.G.N.F.F.M.M.M.G.N.M.M.H.H.K.g $ ",
"5 g.n.n.n.b.n.n.z.M C r.@X%X%X%X6XtXtXtXrX5Xk.OXtXtXtXY.$ q Q _.-.> ~ ~.+._.'.Q ^ / &.] -.p.H.F.F.N.N.H.F.N.N.N.F.N.N.H.F.K.g $ ",
"5 g.m.n.n.n.n.n.n.z.4.;Xk.D r.@X&XY.i.k k 5.2 rXtXtXtXT.| =.=.R.'.R...'.' | `.R.!.o.! ;.~ v.G.F.G.F.G.H.F.F.G.F.M.N.F.F.H.P.j $ ",
"5 g.n.n.n.n.n.n.n.b.i.tXtXrX;Xk.j.T.>XeX9X}.j.tXtXtXtX5Xj.b =.~.'.'.'.'.).b  .X.X.+.~ -.z F.H.H.J.F.H.H.G.G.F.F.N.F.F.F.L.P.j $ ",
"5 g.n.n.n.n.n.n.n.b.j.tXtXtXtX4XtXtXtX9X%Xq.oXtXtXtXtXtXtX5XY.k  .'.'.'.=.;.B.].E.].V !.s H.H.L.H.F.F.H.K.H.n.F.F.L.F.G.H.L.g $ ",
"5 f.n.n.m.n.n.n.n.l.k.tXtXtXtXU.tXtXrX*X%XS 5XtXtXtXtXtXtXtXtXT.% | '.'.).O.( c.} r r ).i G.J.H.J.H.H.L.H.H.G.F.F.H.H.F.H.H.g $ ",
"3 d.v.n.n.n.n.b.b.f.C.tXtXtXtXV.tXtX=X%X%Xh tXtXtXtXtXtXtXtXtX3XE w =.'.'.o.! e R R e /.s H.L.H.H.F.L.H.L.L.L.H.H.F.F.H.N.F.f $ ",
"2 p.n.n.n.m.n.b.b.l.k.tXtXtXtXC.tX9X%X%X+Xk.tXtXtXtXtXtXtXtXtXtXl &.q (.'...z R R R T R.l H.H.L.H.F.G.F.L.L.L.G.G.H.F.F.N.G.f $ ",
"3 d.n.n.n.n.n.n.v.v.5.tXtXtXtXS.tX-X%X%X{.XXtXtXtXtXtXtXtXtXtXtX4.%._ / `.| 4 T R R R X.b F.L.H.J.G.F.H.L.P.H.G.F.H.N.M.G.P.j $ ",
"5 g.n.n.n.n.n.v.v.b.I tXtXtXtXU.tX*X%X%Xr.;XtXtXtXtXtXtXtXtXtXtXV.$.&.6 ,.:.].L r e B c.w H.L.H.H.H.H.L.L.L.H.H.F.G.G.F.L.P.j $ ",
"5 g.v.n.b.n.n.v.v.v.S rXtXtXtXT.qX%X%X%X9.3XtXtXtXtXtXtXtXtXtXtXZ.#.*.^ / ^ [.B.,XB.c.X.b m.H.L.H.H.L.P.L.L.H.N.G.H.H.J.L.L.g $ ",
"5 f.v.n.b.n.n.l.v.l.<.6XtXtXtXY.9X%X%X%X3.3XtXtXtXtXtXtXtXtXtXtXV.#.*.#.4 #.' E.,X{ @.>.4 m.J.H.G.K.L.L.L.L.H.H.G.F.G.L.F.L.g $ ",
"3 s.v.b.b.v.v.b.l.f.1.*XrXtXtXY.9X%X%X%X1.4XtXtXtXtXtXtXtXtXtXtXi.W.,.&.E 6 ^ Y O./ %.6 g.J.L.H.H.H.L.H.L.L.G.L.F.F.F.G.G.H.g $ ",
"3 } l.v.l.v.v.b.l.a.9.%X=XrXtXT.7X%X%X%X3.3XtXtXtXtXtXtXtXtXtXtXI )._.,.*.%./ 6 w $.q d.M.G.H.H.H.H.L.H.H.H.J.H.F.G.G.H.H.K.g $ ",
"< } v.b.b.n.b.b.b.a.0.%X%X=X8XT.7X%X%X%X9.3XtXtXtXtXtXtXtXtXtXtXp '.'._.*.*.*.q a.m g.J.G.H.L.G.H.L.L.L.L.L.L.H.L.H.L.L.J.P.j $ ",
"8 ) a.a.a.s.a.} a.K q.%X%X%X+XoX7X%X%X%X9.3XtXtXtXtXtXtXtXtXtXeX0 '.'.'._.*._ G g.z.g.f.g.f.f.a.d.f.f.d.g.f.f.f.f.g.a.f.f.d.f 5 ",
"x n H H G G B M H a r.%X%X%X}.;X7X%X%X%X9.3XtXtXtXtXtXtXtXtXtX;X~ '.'.'.'.^.^ g N G H N J N n G M L K N J H G N N K N G M G i a ",
"d [ p.} } a.} s.z.H y.%X%X%X{.>X7X%X%X%X1.3XtXtXtXtXtXtXtXtXtXC.-.'.'.'.'.'.^ [ a.a.g.f.s.a.} s.s.s.f.s.a.s.s.a.s.f.a.s.a.l.y 3 ",
"5 g.n.v.b.n.n.F.P.L y.%X%X%X{.>X9X%X%X%X<.5XtXtXtXtXtXtXtXtXrXk ).'.'.'.'.'.X.p.n.n.N.n.n.n.b.n.n.b.b.n.b.b.b.b.n.b.b.b.n.n.8 O ",
"5 g.n.b.b.n.n.n.H.G {.%X%X%Xy.4XqX%X%X%XS 1XtXtXtXtXtXtXtXtXoX .'.'.'.'.'.'.-.H n.n.b.b.v.l.v.b.v.v.l.b.v.b.l.l.l.l.l.l.v.n.7 $ ",
"3 f.n.n.n.n.n.n.L.j +X%X%X%Xy.3XrX%X@X3.h.F F k.C.U.oXoXoXoXI R.'.'.'.'.'.'.(.f n.b.v.b.v.l.b.v.l.l.b.v.v.v.l.l.l.l.l.l.v.m.7 O ",
"3 f.n.N.n.n.n.n.H.y $X%X%X%X+X1X4X3.i.3XtXtX>XS.I   & D 7.8.` ~ _.'.'.'.'.'._.< K [ s.l.b.b.b.v.l.l.v.v.l.l.l.l.l.l.l.l.n.F.i $ ",
"5 g.n.H.M.m.n.n.n.j Z D <.1.3.j.p ;XtXtXtXtXtXtXtXeX>XU.h.6.` & 0 ..-.:.;.O.w w.u.t.8.` v g H s.v.l.l.v.v.l.l.l.l.l.l.v.N.F.d $ ",
"3 f.b.m.n.M.m.n.F.H.v.l.l.l.s.s.[ G F j.U.;X5XtXtXtXtXtXtXtXrX3X;XXXS.k.j.5.5.7.6.7.8.e.e.8.D 1 s.l.l.v.l.l.l.l.l.l.l.v.N.F.y $ ",
"5 f.b.n.n.n.n.H.L.H.b.l.l.l.l.v.b.b.G .X3XoXC.4.5.S.oX>X8XtXtXtXtXtXtXtXtXtXtXtXtXtX5X3X3X3X3X>XK v.l.v.v.l.l.l.l.l.l.v.n.F.a $ ",
"3 f.n.n.v.v.n.L.L.H.n.v.l.l.v.b.v.v.( q.6XtXtXtXtX4X;XU.j.I I j.S.OX3XrXtXtXtXtXtXtXtXtXtXtXtX>XL n.v.n.n.v.l.l.l.l.l.v.n.n.f $ ",
"3 a.b.b.v.b.H.L.L.G.n.n.b.l.v.b.v.l.l.t  X7XtXtXtXtXtXtXtXtXrX5X>XoXZ.4.U i.V.T.XXXXXXXXXXT.S.k a.b.l.v.n.v.l.l.l.l.l.b.n.b.s $ ",
"3 a.n.n.n.n.H.L.H.n.n.n.v.l.l.v.v.v.v.s.u y.6XtXtXtXtXtXtXtXtXtXtXtXtXtXtXrX4X3X>X>X;XOXOXOXZ.7 v.b.v.v.v.l.v.v.l.v.b.b.n.n.f $ ",
"3 a.b.n.b.n.H.H.H.N.b.b.n.n.v.l.l.v.l.b.v.m t A.eXtXtXtXrXrXtXtXtXtXtXtXtXtXtXtXtXtXtXtXtXeXA } n.b.v.l.l.v.v.l.v.v.v.v.b.n.f $ ",
"5 f.N.n.v.n.H.F.L.G.n.l.v.v.v.l.v.v.l.v.v.v.p.n F 5XtXtXtX9X-X9XrXtXtXtXtXtXtXtXtXtXtXtX3XF p.n.n.b.v.v.n.b.n.v.v.b.l.v.n.n.f $ ",
"3 s.N.n.v.m.L.m.J.G.N.n.n.n.l.l.v.b.l.v.n.b.v.b.p.k.tXtXtXtXrX7X*X=X-X7X9XqXqXqXqXqX2XV.f s.n.n.b.v.b.n.n.n.b.n.v.v.l.l.b.n.f $ ",
"3 a.n.b.b.N.J.F.F.G.M.n.v.b.l.v.n.b.l.v.n.n.v.v.z.A tXtXtXtXtXtXtX9X6X=X*X%X%X%X*X X2 [ l.l.v.v.b.n.n.b.b.b.n.b.v.l.l.l.v.n.f $ ",
"3 a.n.b.n.n.H.n.n.b.n.v.b.l.l.v.v.v.l.b.F.F.n.v.l.y eXtXtXtXtXtXtXtXtXtXtXtXtXtXrXk l.n.v.l.l.l.v.n.v.v.v.v.v.z.l.l.l.l.v.b.f $ ",
"3 s.n.n.n.M.L.m.n.v.n.n.v.l.l.v.v.v.v.n.F.H.n.v.b.d 1XtXtXtXtXtXtXtXtXtXtXtXtXtX:Xn v.b.v.v.b.v.l.v.l.l.l.l.l.l.l.l.l.l.v.b.s $ ",
"5 f.n.n.n.n.L.n.M.n.M.G.n.n.v.v.b.n.n.n.M.H.F.l.b.G OXtXtXtXtXtXtXtXtXtXtXtXtXtXU.) b.v.l.v.v.l.l.l.l.l.l.l.l.l.l.l.l.z.n.m.f $ ",
"3 s.v.b.v.n.F.N.H.v.n.n.n.n.z.v.v.b.v.b.n.N.n.v.b.J ;XtXtXtXtXtXtXtXtXtXtXtXtXtXC.a.n.l.l.l.l.l.l.l.l.l.b.l.l.b.M.n.b.n.m.F.f $ ",
"3 a.v.n.b.b.N.m.m.v.b.n.v.v.b.n.b.b.v.n.n.n.n.n.n.m &XtXtXtXtXtXtXtXtXtXtXtXtXtXC.a.v.b.v.l.z.v.b.v.l.l.v.v.v.F.G.m.n.b.n.F.f $ ",
"5 f.b.n.v.n.H.N.n.n.n.n.l.v.n.n.v.v.v.b.b.n.N.n.f.1.%XqXtXtXtXtXtXtXtXtXtXtXtXtXT.) l.v.n.v.n.n.v.v.l.l.v.v.m.H.F.n.n.b.m.F.f $ ",
"5 f.n.n.v.n.F.L.H.N.n.n.n.n.n.n.n.b.l.v.n.n.N.n.f }.%X-XtXtXtXtXtXtXtXtXtXtXtXtX1Xd v.b.v.v.v.v.v.v.l.l.l.l.v.b.n.n.v.b.b.n.f $ ",
"5 f.b.n.n.n.M.H.L.G.N.m.b.v.v.v.v.n.v.b.b.n.n.L 3.%X%X%X9XtXtXtXtXtXtXtXtXtXtXtXtXh s.v.l.b.n.b.v.l.l.l.l.l.n.v.v.n.v.n.v.m.f $ ",
"3 f.v.b.n.n.b.N.L.H.P.G.n.n.l.l.l.v.b.v.b.n.} C $X%X%X%X*XrXtXtXtXtXtX1XtXtXtXtXtXT.m n.b.n.n.n.b.v.l.b.v.b.b.n.v.v.v.b.v.n.f $ ",
"5 g.v.n.n.n.v.n.J.F.H.L.n.v.b.l.l.z.b.n.v.a.h @X%X%X%X%X%X=XrXtXtXtXtXoXtXtXtXtXtXeXu a.v.b.n.n.n.n.n.b.v.b.n.m.b.v.v.v.v.n.f $ ",
"5 g.n.n.n.n.b.F.L.H.H.P.n.v.v.l.v.b.v.n.v.H k 3.q.}.#X%X%X%X=XrXtXtXtXZ.tXtXtXtXtXtXXXg b.v.v.n.F.L.L.G.M.H.F.F.m.n.b.v.v.n.f $ ",
"5 f.n.n.n.v.b.N.P.H.L.H.m.n.l.l.l.v.b.n.l.l.z.z.a.L m k <.9.y..X0XtXtXk.tXtXtXtXtXtXrXA [ l.n.F.L.L.H.H.L.H.H.L.H.n.v.l.v.b.f $ ",
"3 f.n.n.v.n.n.n.F.H.L.L.H.H.v.l.l.l.v.v.v.l.l.b.n.l.s.f.s.f.) 7 u k.;X5.5X3X3X3X3X3X>XC.8 n.F.J.L.L.F.N.F.F.F.N.n.v.l.l.v.b.f $ ",
"3 f.b.n.v.n.n.b.N.H.L.L.H.P.F.n.l.v.n.n.n.n.l.l.v.v.f.s.l.m.n.M ) g.L x f M N G G N N N ) N.n.m.n.b.v.b.H.L.m.v.b.n.z.l.n.b.s $ ",
"3 [ f.g.s.z.f.z.v.n.H.F.F.F.m.z.f.f.s.f.l.l.f.l.v.l.p.a.a.z.g.x K v.l.l.v.z.v.n.n.f.f.l.g.m.n.g.f.s.p.a.z.v.g.f.g.z.s.f.f.g.a $ ",
"8 5 y i 8 x 8 x i g x d j i i i i s s 8 i 8 i g y i i 8 9 8 a a i x f f g g n f i f i i y i i 8 i f 8 9 9 8 s 8 a g 8 i 8 8 7 $ "
};
