/* XPM */
static char *_bfc5b508b784ce5e59ca07185ce2549w2DyoUWnVolmx70a[] = {
/* columns rows colors chars-per-pixel */
"64 64 241 2 ",
"   c #13170D",
".  c #1E1912",
"X  c #281C00",
"o  c #241F17",
"O  c #241F18",
"+  c #2D2102",
"@  c #342600",
"#  c #372800",
"$  c #382900",
"%  c #33270C",
"&  c #352A17",
"*  c #32291B",
"=  c #343129",
"-  c #3A3730",
";  c #3E3B34",
":  c #442D12",
">  c #70301D",
",  c #583327",
"<  c #403D35",
"1  c #653326",
"2  c #773426",
"3  c #58492E",
"4  c #45423A",
"5  c #4A453C",
"6  c #4D493F",
"7  c #564735",
"8  c #724B39",
"9  c #6B593B",
"0  c #73195D",
"q  c #34564C",
"w  c #386568",
"e  c #4C4A44",
"r  c #524D44",
"t  c #565146",
"y  c #575248",
"u  c #5A554B",
"i  c #5D584E",
"p  c #475256",
"a  c #5E5950",
"s  c #595E5C",
"d  c #655A4D",
"f  c #795D41",
"g  c #625D52",
"h  c #5C635A",
"j  c #6D614C",
"k  c #756244",
"l  c #656055",
"z  c #676359",
"x  c #6A655A",
"c  c #6E695D",
"v  c #736859",
"b  c #506667",
"n  c #686C69",
"m  c #726D62",
"M  c #796863",
"N  c #6B776C",
"B  c #767165",
"V  c #767369",
"C  c #7A7669",
"Z  c #7E796D",
"A  c #6B7575",
"S  c #7C7B73",
"D  c #747B78",
"F  c #903A27",
"G  c #8B4230",
"H  c #984839",
"J  c #AD4D36",
"K  c #AC4B3B",
"L  c #B84A35",
"P  c #C7543A",
"I  c #CB563A",
"U  c #83086A",
"Y  c #8F0774",
"T  c #85366D",
"R  c #925747",
"E  c #A35A4A",
"W  c #B95644",
"Q  c #B05048",
"!  c #A65251",
"~  c #866A4A",
"^  c #966F53",
"/  c #8A7555",
"(  c #A7644B",
")  c #AF6C56",
"_  c #B96A53",
"`  c #B87859",
"'  c #A85F61",
"]  c #857A6B",
"[  c #997266",
"{  c #827E72",
"}  c #A8736A",
"|  c #CB5C42",
" . c #D0664B",
".. c #C66656",
"X. c #C77A5C",
"o. c #C57864",
"O. c #718176",
"+. c #9B835C",
"@. c #A4835D",
"#. c #988969",
"$. c #878478",
"%. c #8A867A",
"&. c #8D897D",
"*. c #95887A",
"=. c #A88A67",
"-. c #B88466",
";. c #AA9267",
":. c #B69A6D",
">. c #A78A76",
",. c #A38D7C",
"<. c #AF9077",
"1. c #B99775",
"2. c #BDA172",
"3. c #C6806B",
"4. c #DD8666",
"5. c #C88975",
"6. c #C19E7C",
"7. c #DB9470",
"8. c #E88D6B",
"9. c #ED926E",
"0. c #F1936F",
"q. c #F49672",
"w. c #FC9A75",
"e. c #C3A779",
"r. c #CBAD7B",
"t. c #D3B07D",
"y. c #D1B27E",
"u. c #F9A87C",
"i. c #5E7988",
"p. c #617A87",
"a. c #5E9D98",
"s. c #6B8F8B",
"d. c #7D8787",
"f. c #668798",
"g. c #778D97",
"h. c #6BAA97",
"j. c #6F98AE",
"k. c #7698A9",
"l. c #76B6AE",
"z. c #78AFC2",
"x. c #878A85",
"c. c #938E82",
"v. c #988D83",
"b. c #81918C",
"n. c #969184",
"m. c #999486",
"M. c #989A82",
"N. c #969389",
"B. c #9A9689",
"V. c #9D998C",
"C. c #899596",
"Z. c #979D98",
"A. c #A89788",
"S. c #A59F8F",
"D. c #B09589",
"F. c #A49F90",
"G. c #A99D94",
"H. c #85A89F",
"J. c #B5A98B",
"K. c #A6A191",
"L. c #A9A495",
"P. c #A0A19E",
"I. c #ACA798",
"U. c #AEA99B",
"Y. c #B9AB97",
"T. c #B1AC9E",
"R. c #BBB19B",
"E. c #AC9DA4",
"W. c #8CADAE",
"Q. c #95A2A2",
"!. c #99A5A5",
"~. c #9DA8A8",
"^. c #9DAAAA",
"/. c #A8ABA7",
"(. c #B3AEA1",
"). c #B5B2A5",
"_. c #B9B4A6",
"`. c #B7B4A9",
"'. c #B9B5A9",
"]. c #BCB9AD",
"[. c #A9B8B8",
"{. c #B8B5B7",
"}. c #C1998A",
"|. c #C4A888",
" X c #CEB084",
".X c #D7B785",
"XX c #DBBB84",
"oX c #C2AD93",
"OX c #C4A79C",
"+X c #C4B495",
"@X c #F3B584",
"#X c #A9C1BD",
"$X c #E4C38A",
"%X c #EAC88D",
"&X c #F6C68D",
"*X c #EECB91",
"=X c #F3CD92",
"-X c #FECE93",
";X c #F8D396",
":X c #FED99A",
">X c #E9E2B8",
",X c #83B2CC",
"<X c #94B7C8",
"1X c #8ABCD6",
"2X c #A0B9C1",
"3X c #CBBBC3",
"4X c #9EC5D9",
"5X c #B4C3C3",
"6X c #B7C8C8",
"7X c #BDCCCC",
"8X c #AECBD3",
"9X c #8EC4E1",
"0X c #94CBE8",
"qX c #98D1EF",
"wX c #97D1F0",
"eX c #9AD4F3",
"rX c #9EDAFA",
"tX c #B3DBEE",
"yX c #A4DCFA",
"uX c #ABDEF9",
"iX c #ADE0FB",
"pX c #B8E5FA",
"aX c #C0CECE",
"sX c #D7C7D1",
"dX c #C4D4D5",
"fX c #C4D8D7",
"gX c #CCDCDC",
"hX c #CEE1E2",
"jX c #D3E4E4",
"kX c #D7E8E8",
"lX c #DBECED",
"zX c #C7ECFC",
"xX c #D6EEF4",
"cX c #DEF0F1",
"vX c #D3F2FD",
"bX c #DBF5FB",
"nX c #DFF8FD",
"mX c #E3F5F5",
"MX c #E3F7FA",
"NX c #E5F9FB",
"BX c #EBFEFE",
/* pixels */
"i C B m x i B t u z u c r u g i m g i x r i g r t t t t y g g y g g r r t g i c g y g y c c u c i u g y m u r m u y u d j j d u ",
"c { c B z l m g m c x C g l x g c c z m i l x l c c m m B Z C B C x c x c { C $.C x C x B B c C m z B c C c l $.B ] ] ] >.>./ v ",
"4 m.F.K.S.K.K.K.K.L.K.I.K.K.L.K.K.L.K.S.m.m.V.S.K.L.F.L.S.I.c.y &.(.).(.I.U.T.T.U.U.I.(.(.(.U.).(.U.(.U.T.U.)._.R.oXoX|.e.1./ 7 ",
"5 I.I.U.U.T.T.U.U.U.T.U.I.U.T.I.I.L.c.m 6 5 u m $.n.S.K.S.I.c.5 N.].'.).T.T._.).).(.T.).(.T.T.T.T.)._.(._.R.R.oX|.|.1.1.=.>.k , ",
"4 K.T.T.T.U.U.I.I.I.U.I.I.I.I.I.K.Z 5 X @ @ @ + + 5 B %.V.I.v.d B.]._.).T.).).).).).(.(.T.(.(.T.T.).R.+X+X|.|.6.1.<.>.>.,.G.d * ",
"< V.U.T.U.I.U.I.U.I.I.I.I.I.U.K.m * @ $ $ $ $ $ # @ & 4 i ] [ R <.OXY.Y.T.(.'.'.(.T.T.T.T.T.T.Y.Y.oXoX|.|.1.1.<.>.,.A.G.L.(.i O ",
"; B.I.T.U.I.I.I.I.U.I.I.U.U.I.C = @ $ $ $ $ $ $ $ $ $ # : 1 H K o.5.5.}.D.U.).).(.T.T.T.Y.Y.Y.oX|.|.1.1.<.>.>.A.A.L.I.).(.].a o ",
"< B.L.T.U.I.I.T.U.I.I.U.I.I.&.; @ $ $ $ $ $ @ % @ $ $ $ : > F J |  . .o.5.D.Y.R.T.T.Y.Y.Y.|.|.6.1.1.<.>.,.A.L.I.T.).).'.).'.i o ",
"< V.U.U.T.U.I.I.I.I.I.U.T.V.t @ $ $ $ $ $ @ k 2.9 % @ $ : 1 8 G K  . . ...3.}.}.J.oX|.|.|.1.1.<.>.,.A.S.L.T.(.(.'.).'.'.'.'.i o ",
"< V.U.I.U.U.I.I.I.I.I.I.I.$.X $ $ $ $ $ # : r.XX:.9 3 : 9 ~ 8 2 H W | I | ..o.3.5.6.6.1.<.>.>.A.A.I.(.(.).).'.).'.].'.'.(.].a o ",
"< V.I.I.I.L.I.I.I.I.T.I.K.Z + $ $ # # # @ ~ :.9 3 9 =.2./ ~ 1 1 F J P I I P W W ` -.=.>.,.A.L.T.T.).'._.`._.'.'.).].).).T.`.i o ",
"< V.L.I.I.I.I.I.T.U.T.I.F.C + $ $ $ $ $ + =.9 + 9 & +.XX9 : 1 1 > F L P P L L J E } ,.A.I.T.(.(.).`.'.).'.)._.(.).).(.).(.`.i o ",
"< V.L.I.I.I.I.I.I.I.I.S.&.l X $ $ $ $ $ % :.9 ;.e.;.r.%X9 ~ , 2 2 F J L L L K E [ v.L.T.T.(.'.'.'.).).).`.`.'.(.T.).T.T.).).i o ",
"< V.I.K.N.$.S S n h s d.Z.b.X @ @ # $ # 3 XX;X1.3X3Xr.:X*X1.~ 2 G F J L L Q ! } ,.G.I.(.(.T.(.(.)._.T.(.(.`.T.T.I.T.T.T.T.).i o ",
"; N.%.f.j.k.^.7XjXmXNXmXlX[.X & k & # @ k $X%XE.sXsX|.;XXX3X=.G E Q K K K ! ' } D.T.T.T.(.).(.(.).).T.T.(.(.T.T.I.U.T.T.T.`.i o ",
"; &.f.9XrXeX9X<XhXNXmXjXdX/.  k r.+.X @ / *X$XG.E.{.>.%X+X3X:.H ) _ _ Q Q ! ' >.L.T.(.(.(.(.(.).(.T.T.I.T.T.T.T.T.T.(.).).`.i o ",
"< V f.qXrXrXrXrXpXNXBXBXBXgX= k +.%X/ X +.$X$Xr.r.=.` &X Xv.r.8 } o...Q K R ' v.L.U.(.(.(.(.(.(.).T.(.(.T.T.T.).T.T.T.).).`.i o ",
"< %.A p.j.9XrXrXzXBXmXjXdX^./ @.^ %X%X~ +.2.;.$X=X-.4.@XXX;.XX, >.o...W H R [ A.I.T.T.T.(.).).(.(.T.T.).(.T.T.T.(.T.T.).(.`.i o ",
"< N.Z.fXdXC.b z.<Xd.p n Q.W.t 1.*X;X:X%Xy.XXy.y.=X/ f ` X.:.2.6 ,.1._ K H ^ *.A.U.T.T.T.T.).).(.).(.).).(.(.).(.T.T.(.(.).].a o ",
"< B.Z.jXBXBXlX[.^.7XlXBXzX,XZ.!.j :.;X:X:X:X$X/ .X=X;X:.;.=Xj y v.D.} E ^ } S.L.T.T.T.T.(.).).).`.(.).).).).(.(.T.(.(.(.'.].a o ",
"< N.Z.jXBXBXBXmXlXBXBXzXeXW.7X7X-.) =.;X:X;X*X+.+X+XJ.<./ XXu i N.T.D.>.,.S.I.I.T.T.(.(.).).).'.).(.(.).`.).I.(.(.'.(.).).'.i o ",
"< N.Z.kXBXBXBXhXgXBXvXyXeXk.gX/.8.q.( 2.;X;Xe.:.M.R.A.] 2.r.m i N._.I.L.L.I.T.T.T.T.(.).(.).'._.`.).).'.).).).(.(.).).(.).).i o ",
"; c.Z.jXBXBXBXdXjXNXpXrXwXC.jXY.9.w.8.^ $X:Xr.:.0 T U 0 .X;.Z i N.].T.I.I.T.(.(.T.T.T.).).).'.).).(.'.).'.'.'.).).(.(.).T.(.u o ",
"- &.Z.jXBXBXBX7XlXvXyXrX9X^.lX}.0.w.w.X.:.:Xy.7 U Y Y U  X/ $.i N.].T.I.T.T.(.).(.(.(._.).).).'.).(.).(.'.'.'.).).).(.(.T.).u o ",
"; c.Z.jXBXBXBX6XcXzXrXrX,X5XcXOX0.w.w.8.` %X=.*.M U Y U 1.~ &.u N.'.T.I.T.T.(.'.'.).).).).(.'.)._.).(.).'.].).).(.).T.T.).].a o ",
"< B.Z.gXBXBXBX6XbXpXrXrXj.dXNX(.9.w.w.0._ 7.^ >XJ.Y.{ A.;.k n.i N.].(.(.(.).).).'._._.'.'.).'.).).).).'.'.'.).).(.).).(.'.].a o ",
"< B.b.7XBXBXBX6XbXiXrXrXk.gXBX[.7.w.w.w._ X.X.|.J.>XR.e.$X7 S.x c.'.).'.).'.'.).).'.'.'.).).).'.).).'.].'.'.).T.).).).`.'.'.i o ",
"< N.b.8XNXBXBX5XvXyXrXrXf.jXBXgX<.w.w.w.X.E 9.4.-.r.y.=X=X= S.x c.].).).).).'.).).'.'.'.).).`.).).`.'.'.'.'.).).).(.).'.(.'.i o ",
"; c.g.0XvXBXNX5XvXyXrXrXf.kXBXNXP.8.w.w.9.) ( 4.0.9.u.u.` x m.g c.].).).).).)._.'.).).).)._.'.).).).'.).'.'.).'.(.(.(.).).).i o ",
"; %.g.0XiXMXNX5XvXrXrXrXf.kXBXBXjX~ w.w.w.q.4.( ( 8.8.R 5 B.c.t c.].).'.'.'.).'.'.).).(.T.).).).).).'.).).).`.).(.).).).).`.i o ",
"- %.g.0XrXiXMX[.vXrXrXrXk.kXBXBXBX!.X.w.w.w.w.w.X.1 8 2.;.- m r c.].'.'.].'.].].].].]._.).).'.).).'.'.'.'.'.'.).'.).'.'._.].a o ",
"5 C f.qXrXrXyX[.vXrXrXrXk.jXBXBXBXmXM 8.w.w.w.w.w.q.@X:X:X*X:.k v B.B.V.K.V.F.F.V.F.V.B.V.B.B.N.N.V.B.N.V.B.B.B.B.V.N.B.B.N.u < ",
"g i f.qXrXrXeX/.vXrXrXrXk.jXBXBXBXBX7X} 0.w.w.w.w.u.-X:X:X:X:X=Xe.j c c { C m c c m B c B c l m x Z C c B B m c c Z c m x m r t ",
"t S f.wXrXrXwX[.vXyXrXrXf.jXBXBXBXBXNX[.o.q.w.w.w.u.-X:X:X:X:X:X;X=.$.N.V.B.m.B.N.n.V.B.m.N.&.m.m.m.B.m.n.m.m.N.m.V.n.m.N.V.e ; ",
"< c.f.eXrXrXwX[.vXyXrXrXp.lXBXBXBXBXBXcX/.3.w.w.w.@X;X:X:X:X:X:X:X;.m.T.T.I.I.I.I.I.T.I.I.I.L.I.I.L.L.I.L.L.L.L.I.L.L.L.I.I.5 . ",
"< &.f.rXrXrXqX6XvXyXrXrXi.lXBXBXBXBXBXBXlXP.o.w.w.@X:X:X:X:X:X:X;X+.S.I.I.I.S.K.I.I.L.L.K.S.K.L.K.K.S.L.K.L.S.S.S.S.S.S.K.I.4 o ",
"; $.f.rXrXrX9X7XbXuXeX1Xp D 5XdXhXcXmXNXNXcXC.) w.-X:X:X:X:X:X:XXX*.K.I.I.K.S.L.I.L.K.L.K.S.L.K.S.S.L.K.K.K.S.S.S.S.S.S.K.U.4 . ",
"; S j.rXrXrXwX6XxX4Xk.^.lXdXC.n p O   q q b w w ] XX;X:X:X:X:X%X+.c.F.K.L.S.L.I.L.S.K.K.L.L.L.K.S.S.K.S.S.S.S.S.S.S.S.S.I.(.r o ",
"< S f.,X,X,X1X[.^.~.gXBXBXBXNXkX7X[.C.H.H.l.l.z.a.N ;.r.$X*X XM.s.g.b.&.$.&.S.K.K.S.K.S.K.K.K.K.K.S.S.K.K.S.S.S.S.S.S.K.T.(.t o ",
"; &.%.&.%.&.x.$.O.~.[.7XgXlXNXBXBXBXmXjXfX7X5X5X[.H.A n ] #.h a.l.l.h.h.s.O.V V.S.S.S.S.S.S.K.K.K.S.S.K.S.S.S.S.S.S.S.K.T.(.e o ",
"< B.L.I.I.I.I.(.(.I.x 2X5X^.Z.[.dXjXNXBXBXBXNXmXcXlXjXjXjXhXhXhXfX6X#X[.[.#XC.n.S.K.K.S.S.S.S.S.K.K.S.K.K.S.S.S.S.S.S.K.I.(.t o ",
"; B.I.I.K.K.I.'.'.).m 1XbXmXcXgX5XQ.D D Q.[.fXlXBXBXBXBXBXBXBXBXBXNXNXNXNXNX5Xn.S.K.K.S.S.S.S.S.I.I.K.I.I.K.S.S.S.S.S.K.I.I.u o ",
"; N.L.L.K.L.).'.'.).%.f.uXNXBXBXBXBXBXmXgX5X!.D s C.[.dXkXmXmXmXmXmXmXmXmXcX^.c.S.S.S.S.S.S.S.S.I.L.S.K.I.K.S.S.S.S.S.L.I.L.y o ",
"; N.I.I.I.I.).'.).I.L.x j.tXMXBXBXBXBXBXBXBXBXBXNXkXdX[.!.b.Q.^.!.Q.Q.Q.C.A u m.S.S.S.S.S.K.K.K.K.L.S.K.K.S.K.K.S.K.L.L.I.I.u O ",
"; N.L.I.L.I.).).).T.L.S.V g.4XlXBXBXBXBXBXBXBXBXBXBXBXBXBXBXBXNXmXcXlXlXjX!.Z S.S.S.S.S.S.K.K.K.I.L.K.S.S.K.K.S.K.K.K.K.L.I.u o ",
"< B.T.I.K.I.).(.'.).I.S.S.%.n b.dXBXBXBXMXbXMXBXBXBXBXBXBXBXBXBXBXBXBXNX5XS m.K.S.S.L.I.I.L.I.I.I.L.S.K.I.L.I.K.K.L.S.K.I.I.u o ",
"; m.T.I.K.U.'.U.`.).T.I.I.I.m.&.D lXBXBXBXbXzXpXvXnXBXBXBXBXBXBXBXBXcX^.S m.S.S.K.I.I.I.L.K.I.I.L.S.L.I.I.I.L.I.K.K.S.S.L.I.u o ",
"; N.I.L.L.T.`.(.(.).T.I.K.L.S.K.{ 6XBXBXBXBXBXvXpXyXyXiXpXzXzXzXpX2Xs $.S.L.K.S.I.I.L.K.S.S.K.K.L.I.I.L.L.L.I.L.K.S.S.S.K.I.u o ",
"; N.I.L.I.I.).I.I.L.I.K.L.S.S.K.c.Z.BXBXBXBXBXBXBXMXzXpXiXiXiXpX<XA B.K.K.I.I.K.I.L.K.I.K.S.S.S.K.I.K.K.K.K.K.F.S.S.S.S.K.L.u o ",
"; m.I.I.I.T.'.U.I.S.I.I.K.S.S.S.m.n BXBXBXBXBXBXBXBXBXBXBXBXBXlXC.B.L.L.I.I.L.I.I.L.K.L.K.K.L.K.S.K.S.S.S.S.S.S.S.S.S.S.K.L.y o ",
"< B.I.I.I.I.'.I.T.I.T.).I.I.K.K.S.- NXBXBXBXBXBXBXBXBXBXBXBXBXgXA L.L.I.I.I.L.T.T.I.L.K.S.K.K.F.S.S.S.S.S.S.S.S.S.S.S.F.I.U.u o ",
"; m.K.L.K.I.(.T.).K.I.I.I.I.F.K.K.5 mXBXBXBXBXBXBXBXBXBXBXBXBXdXz I.K.I.I.I.I.).).(.I.S.S.S.S.S.S.S.S.S.L.S.S.L.T.I.L.I.U.(.u o ",
"; N.K.I.L.L.T.U.U.K.L.I.K.K.L.I.L.e bXBXBXBXBXBXBXBXBXBXBXBXBX6Xz T.L.K.K.K.I.U.L.K.K.L.K.S.F.K.L.K.S.S.K.K.K.(.).U.I.L.I.(.u o ",
"< B.L.I.K.I.).T.I.I.I.I.S.K.I.I.V.i.zXBXBXBXBXBXBXBXBXBXBXBXBX7Xz I.K.S.S.I.U.I.S.S.S.K.I.K.I.I.K.K.S.S.K.K.U.).(.I.I.L.U.(.u o ",
"< B.I.I.K.I.(.'.).T.I.I.I.I.I.I.Z ,XuXNXBXBXBXBXBXBXBXBXBXBXBXfXn K.K.I.(.).).I.S.K.K.L.K.K.K.K.K.K.S.S.S.S.K.L.I.I.K.L.L.I.u o ",
"< B.L.I.I.I.T.).'.).T.U.L.K.K.c.p.wXyXzXBXBXBXBXBXBXBXBXBXBXBXjXd.m.L.T.).'.'.).(.I.L.K.S.L.I.L.K.S.S.S.S.S.I.K.K.I.K.I.K.U.u o ",
"; B.K.L.I.I.L.T.'.).].).I.I.m.N ,XrXrXiXbXBXBXBXBXBXBXBXBXBXBXmX!.&.K.L.I.T.).).(.I.I.I.L.I.I.I.L.K.S.L.K.L.L.I.K.K.K.L.K.I.u o ",
"< V.K.I.I.I.K.I.`.(.).'.I.S.S j.wXrXrXyXpXNXBXBXBXBXcXNXBXBXBXBX6XS S.L.K.I.I.T.I.L.L.K.K.L.I.I.I.I.I.L.K.L.I.U.L.K.K.K.K.I.u . ",
"< V.I.I.I.I.L.(.'.).).].I.%.f.0XrXrXrXrXyXzXBXBXBXNXjXcXBXBXBXBXcXd.&.K.L.L.K.I.I.K.I.I.L.K.K.I.(.'.'.).T.).(.(.U.I.L.K.K.I.u . ",
"< B.I.I.I.K.L.T.].).'.).I.m p f.z.9XrXrXrXrXvXBXBXNXfXlXBXBXBXBXBX5Xz L.K.F.S.L.K.S.L.K.S.S.I.(.'.'.).).'.).).'.).I.K.S.K.L.u o ",
"; B.I.I.K.I.I.I.(.).'.'.).).S.n.{ c s f.k.z.1XhXmXNXaXjXBXBXBXBXBXmXD %.S.K.F.I.I.K.K.K.S.I.(.`.'.'.(.T.(.(.(.T.I.K.S.S.K.L.u o ",
"; B.L.I.K.I.I.L.T.).'.'.).].(.I.S.K.I.V.c.{ c A ^.6X[.7XhXgXgXgXgXfX!.e S.K.K.I.I.K.S.S.F.T.I.U.I.L.K.L.).'.U.K.L.I.F.S.I.L.y o ",
"; %.V.V.m.F.V.F.L.I.).(.(.(.(.F.V.B.B.B.S.S.B.m.c.S V x.x.x.x.n V x.S V F.F.K.I.I.V.V.S.V.U.I.S.V.m.c.n.F.L.V.B.V.F.m.B.V.V.t o ",
"5 < e r 5 g 5 g r i g t a r r r r y y 5 r 5 r i e r r 4 5 4 r r r i t u i i l u r u r r e r r 5 r u 5 6 6 5 y 5 t i 5 r 5 5 4 o "
};
