/* XPM */
static char *fa2f01a3cf774a5f9b551c45837a82479Bjan764DViosotk[] = {
/* columns rows colors chars-per-pixel */
"64 64 192 2 ",
"   c #040102",
".  c #0B0704",
"X  c #0E0B05",
"o  c #130A05",
"O  c #1F0F06",
"+  c #120E0B",
"@  c #191307",
"#  c #16110B",
"$  c #1B160D",
"%  c #1F180D",
"&  c #1B1710",
"*  c #1D1913",
"=  c #230F05",
"-  c #260E08",
";  c #2E160C",
":  c #221A0E",
">  c #341C0C",
",  c #3A190E",
"<  c #2C1713",
"1  c #241E15",
"2  c #201E1B",
"3  c #371B10",
"4  c #262115",
"5  c #2B2315",
"6  c #25221C",
"7  c #2A251B",
"8  c #2E281C",
"9  c #332315",
"0  c #3E2316",
"q  c #312519",
"w  c #3B251C",
"e  c #332B1D",
"r  c #392F1D",
"t  c #3A321E",
"y  c #272522",
"u  c #292723",
"i  c #2D2A25",
"p  c #2D2C28",
"a  c #3A2721",
"s  c #332D24",
"d  c #382F22",
"f  c #342E28",
"g  c #353125",
"h  c #3A3324",
"j  c #363129",
"k  c #3B342A",
"l  c #3E392C",
"z  c #3A3630",
"x  c #3E3B33",
"c  c #3B3A35",
"v  c #551614",
"b  c #6C0E0E",
"n  c #601C18",
"m  c #41220B",
"M  c #50230E",
"N  c #462511",
"B  c #4C2B15",
"V  c #40261C",
"C  c #4B251F",
"Z  c #4A2919",
"A  c #532B14",
"S  c #562F17",
"D  c #4D351F",
"F  c #553019",
"G  c #58361B",
"H  c #5D341B",
"J  c #69241A",
"K  c #61371E",
"L  c #703F1D",
"P  c #472523",
"I  c #502822",
"U  c #423621",
"Y  c #4A3022",
"T  c #433923",
"R  c #413B2E",
"E  c #4A3E28",
"W  c #5A3D23",
"Q  c #423D34",
"!  c #4E3E37",
"~  c #453F38",
"^  c #5A3933",
"/  c #6B3E25",
"(  c #69372A",
")  c #603931",
"_  c #7E3F31",
"`  c #464035",
"'  c #494236",
"]  c #45423A",
"[  c #4B453C",
"{  c #4E483F",
"}  c #564537",
"|  c #524A3E",
" . c #5E523C",
".. c #6A4529",
"X. c #734327",
"o. c #75452C",
"O. c #7E4529",
"+. c #7E492C",
"@. c #6B4736",
"#. c #794C35",
"$. c #7B5037",
"%. c #4A4741",
"&. c #4E4A41",
"*. c #484A47",
"=. c #524D43",
"-. c #584F44",
";. c #565146",
":. c #5A5246",
">. c #555149",
",. c #5B554B",
"<. c #5D584E",
"1. c #5D5951",
"2. c #674C45",
"3. c #685A47",
"4. c #615A4F",
"5. c #625D53",
"6. c #6B5E51",
"7. c #735651",
"8. c #70634C",
"9. c #666055",
"0. c #686357",
"q. c #656158",
"w. c #6A655A",
"e. c #6E695D",
"r. c #7A6F55",
"t. c #716C5E",
"y. c #7E745C",
"u. c #6B6860",
"i. c #726D61",
"p. c #767165",
"a. c #797266",
"s. c #777369",
"d. c #7A766A",
"f. c #7E796D",
"g. c #7E7A71",
"h. c #9C0B14",
"j. c #AA0A17",
"k. c #E20D27",
"l. c #82492E",
"z. c #8A532E",
"x. c #874430",
"c. c #944E34",
"v. c #86563A",
"b. c #975D38",
"n. c #A95B3C",
"m. c #8C603A",
"M. c #95764F",
"N. c #88775A",
"B. c #A37946",
"V. c #B67F4F",
"C. c #837760",
"Z. c #817C6E",
"A. c #827D72",
"S. c #8E8065",
"D. c #858175",
"F. c #898377",
"G. c #868379",
"H. c #8B8579",
"J. c #8D897C",
"K. c #928C7E",
"L. c #C3985E",
"P. c #938E81",
"I. c #988F85",
"U. c #969184",
"Y. c #999485",
"T. c #969389",
"R. c #9A968A",
"E. c #9D998C",
"W. c #9F9B90",
"Q. c #A49E8F",
"!. c #A49E90",
"~. c #A6A08F",
"^. c #A6A191",
"/. c #A9A495",
"(. c #A7A498",
"). c #ACA798",
"_. c #ADA899",
"`. c #AFAA9C",
"'. c #AFAA9D",
"]. c #B0AB9E",
"[. c #B2AD9F",
"{. c #AEABA0",
"}. c #B3AEA1",
"|. c #B4AFA2",
" X c #B4B0A3",
".X c #B6B2A5",
"XX c #B7B4A7",
"oX c #B8B4A7",
"OX c #B7B4A9",
"+X c #B9B6AA",
"@X c #BCB9AD",
"#X c #BFBCB1",
/* pixels */
"<.d.p.i.w.<.p.;.,.0.,.e.=.,.5.<.i.5.<.w.=.<.5.=.;.;.;.;.:.5.5.:.9.5.=.=.;.5.<.e.5.:.5.:.t.e.,.e.<.,.5.:.i.,.=.i.,.;.=.=.;.;.=.;.",
"e.Z.t.p.0.9.i.5.i.t.w.a.4.9.w.5.e.e.0.i.<.9.w.9.e.e.i.i.p.f.d.p.d.w.e.w.e.Z.d.F.d.w.d.w.p.p.t.d.i.0.p.e.d.e.5.F.i.i.w.5.i.p.<.w.",
"] Y.!.^.Q.^.^.^.^./.^.).^.^./.^.^./.^./.Q.!.^.^.^./.!./.Q.).P.:.J.}.}.}._.`.[.].`.`._.}.}.}.`. X}.`.}.`.].`.}.XX.X}..X.X X}.<.i ",
"[ ).).`.`.].].`.`.`.].`._.`.]._.).).).).^.^./.^.)./.^.^.Q._.P.[ T.@X+X X].[..X.X X|.[..X|.[.[.[.[..X+X}.XX.X}.|..X.X X.X}.+X<.1 ",
"] ^.].].].`.`._.)._.`._._._._._._.).^.^./.^.).^.^./.^.^.^.).U.<.R.@XoX.X[. X.X.X.X.X}.}.[.}.}.[.}. X X.X.X[.}.[..X+X X.X}.+X<.1 ",
"Q E.`.].`.).`._.`.)._._.).).`.).)./.Q.!.^.^.^.^.^.).).).!.^.K.<.R.#X.X}.[. X+X+X}.].].].].[.[.].[.[. X.X+X}..X}.XX X X.X}.OX<.1 ",
"x R._.].`.)._._._.`.).).`.`._./.).^.Q.Q.^.).^.^.^.^.^.Y.e.:.6.,.T.@X.X X[.}..X X}.[.`.].`._.[.[.|. X[. X+X.X X.X X|.}.+X.X@X1.1 ",
"Q R./.].`.)._.].`.).).`._.).)._.).!.^.^.^./.^.^.^.^.E.4.x c k :.H.@X.X X`.].XX.X[.[.`._._.[.[.]. X+X.X X[.}.oX.X.X.X.X+X.X@X<.1 ",
"Q E.`.`.].`.)._._._.).`.].`._.).).^.).).^.Q.^.^.^.~.K.' x *.Q | d.@X+X X[.].XX.X[.[._.)._._.`.].[. X X X}..X.X|.+X.X+X+X+X+X<.1 ",
"Q E.`.).`._._.).)._._._._._.).).^./.^.^.^.Q.^.^.^.^.U.-.f %.R | d.@X.X X}.[.XX.X].|.[.}.}.[.|.}.`.+X+X.XXX.X+X.X+X@X+X+X}.@X1.1 ",
"Q E._.)._./.).)._._.]._.^.).^.).^.^.^.).^.Q.^.^.^.^.Q.d.k z k } J.+X}.}.[.}.XX X[.}.[.[.oX.X X.X}.OX+X.XXXoX+X+X.X@X.X X[.OX<.1 ",
"Q E./._._.)._.).].`.]._.^.^.).^.^./.^.^.^.Q.^.^.^.^.^.i.R l R ` g..X|.}.].]..X|.}.}.[.[..X.X X}..XXX+X.X+X.XoX}..X X}..X}.OX<.1 ",
"Q E./._.)._.).)._._._.).)./.^.~.^./.^.^.^.^.^.^.Q.Q.Z.[ l l l R &.G./.].[._.[.[.}.}.[..X}..X+X+X+X X.X XOX+X+X}.]. X[.[. X.X<.1 ",
"Q E._.).)././._.).)._.).).^././.^.^.^.^.^.Q.Q.Q.~.Z.' l l l l l R ` f.).}.`.`.].[.[.[.|.}.[.}.}..X.X[.}.}.XX[.]._.].].].[..X<.1 ",
"x R._.`.)._.)._.`.).)._.^.).^.^.).^.Q.Q.Q.Q.Q.Q.P.,.r h l l Q ` ` ` &.R.}.`.`.[.}.}.[.[.}. X|.}. X.X[.}.}.}.[.].).`.[.[.[.OX<.1 ",
"x R.)._.).).).`.`._.).).^.^.).^.Q.Q.i.| d.K.P.K.t.R s s h R 3.N.N.S.C.Z.I.!.Q..X X|.}.}.|.}.}. X}.[.[.].].].].[.].].}. X.XOX<.1 ",
"Q E._.)._.).)._._._.).^.).^.^.^.^.D.R h h h k k R r 5 1 s R  .3.8.r.y.t.) 2.7.R./.`.[.|.}.}.}.}. X[.|.}.].].]. X[.].]..XOXOX<.1 ",
"Q E.).).)./.).).).).^./.).Q.^.^.^.f.R r r e q e e e 7 5 g g Q ` ` [ [ Q I C I c u.).].].|..X.X}.}.[.[..X}.[.[.[.}.[.[..X}.OX<.1 ",
"Q E.`._.)._.).).).).^.).Q.^.^.^.).Y.;.5 7 5 5 5 5 7 7 r g g l k g g f f a w a f 1.^.].[.[. X X}. X}. X.X}.}. X}.].[.}.}..X@X1.1 ",
"Q E._.).)._._._.).).^.^.^././.^.Q.^.5.5 : : 1 7 1 7 r T g Q Q s 7 f f 7 6 6 7 i q./.[.[.}. X.X.XXX}..X.X X X}.}.[.|.}.}.+X#X1.1 ",
"Q E._.)._.).).).).).).).^.).^.^.^.^.<.5 4 1 1 7 1 7 h E s Q h 4 V ( ( q * ; v f d._.}.}..X.X.X+X.X|.}..XOX.X).}.}.+X|. X.X+X<.1 ",
"Q R.).).`.).).).).).).^.^.Q.^.^.^.^.5.q 5 5 4 7 1 4 e T e l 8 1 C _ ( 9 $ j.k.P p._.}. X}. X+XoXXX.X.X+X.X.X X}.}..X.X|..X.X<.1 ",
"c T.^.)._.)._.^./.^.).Q.^.Q.^./.^.^.5.q 5 4 4 5 4 7 @.W q C q % 1 w w $ # b h.< ^ H.]..X.X.X+X.X.X}.+X.X+X+X+X.X.X}.}..X[.}.,.1 ",
"z P.).`._._.)./.^.J.i.p.5.H.Q.^.^.^.5.q 5 4 4 5 4 q l./ w n 0 9 O Z $.@.1 o # < ^ F.}.XX|..X.X+X.X}. X|.+X+X+X X X.X}.}.[. X,.1 ",
"c U.).)._._.).).Q.d.o . l A.Q.Q.Q.Q.9.q 5 4 4 5 4 q c.O.Z J H X.O.z.b.#.Y V a w.2.K..X.X}.`.5.%.1.).}..X+X@X.X X}..X[.]. X@X1.1 ",
"Q E.).).).).).!.K.d.=.7 6 c i.A.K.U.i.5 5 1 : 1 4 7 x.n.+.J N B A M A 3 ; 0 4.].Y.!.).T.T.P.d.g.D.`..X+X+X+X.X.X}. X X}.+X@X1.1 ",
"Q E.^.).^.).).U.f.Y.U.e.p.0.i.Z.H.U.K.5 4 1 : 1 1 1 0 +.o.H , 0 G m.V.m.9 w 0.!.W.s.1.c %.5.W..X.X.X+X@X+X+X.X[. X.X.XXX+X+X<.1 ",
"Q R.^.)./.).Q.e.:.5.H.R.^.Q.Y.D.A.F.K.Q 4 1 : : 5 5 5 5 F K Z 3 W B.L.M.Y Y d.U.E.P.5.2 . i ,.G.!..X+X+X+X+X.X.X X}. X+X}.+X<.1 ",
"x Y.^./.^.^.E.e.[ c J.Q.^.Q.Q.^.R.J.J.=.1 : % : 4 5 5 5 B S H / / z.v...#.} E.`.`./.g.z &.q.%.] 1.J.(..X+X+X X+X}.}.}. X X.X<.1 ",
"c P.Q.^.Q.^.Q.Y.K.J.E.Q.Q.^.^.Q.Q.Q.Q.Z.1 % @ @ % 1 4 4 B A N K o.l.v.v.v.a.`.}..X}.(.U.R./.W.E.R.T.J.J.`..XXX.X}. X X.X.XOX<.1 ",
"l K.^./.^.).^.^.^.^.^.^.^./.).^.^.^.^.Q.d.=.j 1 % : 1 : F H > > F X.+.o.2.).+X@X@X@X@XoX X.X+X X.X.X{.`..X+X+X.X+X.X+X+XoX@X1.1 ",
"[ A.U.U.U.Y.U.K.U.K.U.J.K.K.F.J.J.F.F.F.F.D.4.h r e 7 4 G L m = = ; > < ' s.J.R.R.!.W.R.E.R.R.U.T.E.R.T.E.R.R.R.R.E.U.R.R.T.,.Q ",
"4.9.p.p.i.w.5.:.:.=.[ ~ Q l k j j d f f f s e q r k k r D ..S N > O o : 5 e g k =.e.p.e.a.e.9.i.w.f.d.e.a.p.i.e.e.f.e.i.w.i.=.;.",
">.g.i.:.' ~ Q Q k k d s e 8 8 e e e 8 e e 8 8 r r r r h T T T U D t r r s s h k l 9.U.U.U.U.K.Y.U.Y.R.Y.U.Y.Y.U.Y.E.U.Y.U.E.&.c ",
"] =.` ` ' [ ` Q k h d s s s s s g g s r s e 7 q t h t t t r r t t t t r e e 8 6 6 6 ] w.d.D.U.Q.!.Q.^.)././././.)././.^.)._.] * ",
"~ ` [ [ | =.| ` R l k h h h h h h h h h h h s r r g t t t h U h t r e q 8 7 7 6 2 2 y u u u i >.w.d.D.U.Y.E.E.Q.Q.Q.Q.Q.^.).] 1 ",
"~ ` [ { =.;.:.=.{ ` Q R l l l l l l l l l k k k h h g h h h h h h r r q 8 7 7 6 6 6 u i i u u u u i i x >.9.a.H.Y.Q.Q.Q.^.`.] * ",
"Q 1.[ [ | =.:.,.,.:.| [ ` ` Q R R R R R R R R l l l l l l k k h h h s s s s i i i f p i i i i i i i i p p i i ] 0.A.U.Q.).}.=.1 ",
"Q J.A.0.[ [ =.:.,.,.,.:.;.| | [ ` ` Q Q R R R R R R R R R l l l l k k h h h j d f f f s i i i i i i p p p p p p i z <.d.E.}.>.1 ",
"x R.Q.E.J.i.=.[ &.=.;.:.,.,.,.:.;.=.| [ ` ` Q R R R R R R R l l l l k k k h h k f d f f f f f p p p p p p p p p i y y j 1.D.[ 1 ",
"Q R./._./.Q.Y.G.0.[ [ { =.=.=.;.:.:.:.:.=.=.| [ ` ` Q R Q c l l k k k k k k h h j d f f f f p i i i i i i i i u u y y u i x x 6 ",
"x R.).).^.^._..X X/.H.e.&.[ [ [ [ &.=.=.=.=.=.=.| | [ [ ` ~ Q R l k k k k f d d f f s s i i i i i i u u u u u u u u i i p p p 7 ",
"c U./.^.^.^..X+X+X X).).Q.F.i.>.[ [ ] Q Q Q ! ! ` ] ] ] ` ~ ~ Q Q Q c z l k k j j d f f f f i s i i i i s i i i i s f f f z z 6 ",
"c U.)._.).)..X+X.X_.).).^.Q.Q.Q.Y.H.f.5.] ' @.^ i f f k k k k k k k k j j f f f f f f f f f f f j k l l c Q Q ] ' =.w.d.P.^.,.1 ",
"c U./.).^._..X.X.X[.^.^.).).^.Q.Q.^.Q.^.Q.R.Y.i.x 7 * 1 5 5 7 7 7 5 7 6 6 6 7 [ <.<.<.<.<.<.5.5.w.i.i.a.Z.F.J.P.Y.^.^.^.^.).,.1 ",
"Q R.[.).^.)..X}.+X X).Q.^.^.^.Q.^.^.Q.^.^.!.^.E.D.[ $ 1 1 1 1 1 1 * & # + + * Z.Q.Q.^.).).^.).)._.^.^.^.)./.).^.^.^.Q.^.).).,.1 ",
"x Y.[.).^.`.+X`.+X X[.).).).Q.Q.^.^.Q.^.).^.^.^.!.e.7 1 : : % % & $ $ X     & P.^.).).).^.^.).).^.^.^.).)._.^.).^.^.Q.Q.^._.,.1 ",
"c Y.).^./.[.XX|.}. X].).^.^.Q.^.)./.Q.^.).).^.^.^.K.[ 1 % $ @ $ $ # # X     [ Q.).).^.^.Q.Q.^.~.^.).).).^.^.).^.^.Q.Q.Q.^.).,.1 ",
"c U.).^.).)..X_.)./.).^.^.Q.Q.^.^.^.Q.^.}.|.).^.Q.^.s.i * & & & $ # $ +     s.^.).^.^.).^.Q.Q.Q.^.).^.^.^.^.^.!.Q.Q.Q.Q.^./.,.1 ",
"x Y._._.).].+X`._.~.).).^.Q.Q.~.^.^.^.).}..X_.^./.^.A.j * * * * $ - - X     f.).).^.^./.^.^./.^.Q.^.Q.Q.Q.Q.Q.Q.Q.Q.Q.Q.^./.:.1 ",
"Q E.)._.)._.+X_.].).]. X_.).^.^./.).)._.]..X}.Q././.f.j * * * * $ o o .     J.[.[.).^.^.Q.^.^.!.Q.Q.Q.Q.Q.Q.Q.Q.Q.Q.Q.!.).`.,.1 ",
"x Y.^./.^.).}.[..X^.)._.).).!.^.^./.^.^._.[.).^.^./.d.f * & $ & i 1.&.w.[ X P..X.X}.).Q.Q.Q.Q.Q.Q.Q.Q.Q.^.Q.Q.^.]._./.).`.}.,.1 ",
"c U.^._.^./.[.`.`.^.^.).^.^.^.).^.^.^.).).)._._.)./.a.x >.D.P.5.D.[.^.^.Q.F.E.`./.^.^.^.^.Q.!.^./.^.Q.Q.^.^.^.}. X`.).^._.}.,.1 ",
"Q R.^._.^.)..X[.).).).).Q.^.)._.^.^.^././.).[._././.E.!.}.#X`.w.A.).^.Q.^.).`.).Q.Q.Q.^.).^.).).^.^.Q.Q.^.^.`..X}._.)./.`.}.,.1 ",
"Q R.).).^._.}.+X.X[.).).).).)._.)./.Q.^.).).[._.^.^././._.@X{.w.A.).^._.}..X.X).Q.^.^.^.^.^.^.^.^.^.Q.Q.Q.Q.^.^.).).^.^.^.).,.1 ",
"Q R./._.)._.]..X+X X[.`./.^.^.^.^.).^.^./.).).^.Q.Q./.).^.|.`.w.d.^./.[..X+X+X.X}._.^.^.Q./.).^.^.Q.Q.Q.Q.Q.).^.^.).^.).^.`.,.1 ",
"x R.^./.).).^.[.+X.X@X X).).Q.Q.Q.^./.^.^.).).]._.Q.^./.^.`.(.w.A.).^.^.).]. X.X}._.).)./.)._.)./.^.Q.^.^.^.^.).^.^.^.^.^._.,.1 ",
"Q E.^.).)._.^.).XX}..X+X).^./.Q.Q.!./.).^.^.).}.}.).Q.^.).}./.w.D._.^./.^.)._.]._./.^.^.^.^.)._._.)._.^.^./._.`.^.^.^.^.^.).,.1 ",
"Q E.).).).).^.}.+X.X.X@X).^.^.Q.^.^.^.).^.^.^.[. X/.Q.Q._.+X).w.D._.^.^././.^.).).^.).).^.^.^.).}.+X+X X]..X}.}.`._.^.^.^.).,.1 ",
"Q R.)._.).^./.[.@X.X+X.X`.).Q.Q.Q.^.^.).Q.Q.!./.).^.Q.Q.^._.R.1.d.^.^./.^.!.Q.^.^.Q.^.^.Q.Q.).}.+X+X.X.X+X.X.X+X.X).^.Q.^./.,.1 ",
"x R._.).^.).).).}..X+X+X X X^.Q.Q.Q.^.^.^.Q.Q.^.).Q.Y.R.Y._.!.0.A.).!.^.Q.^.!.).).^.^.^.Q.).}.XX+X+X}.[.}.}.}.[.).^.Q.Q.^./.,.1 ",
"x R./.).^.)._./.[..X+X+X.X@X}.).Q.^.).).).).Q.Q.^.^.R.Y.Q.`.).w.A.).!.Q.Q.^.^.).).^.Q.Q.!.[._.`.)./.^.^..X+X`.^./.).!.Q.)./.:.1 ",
"c H.E.E.Y.!.E.!./.)..X|.{.}.`.!.E.R.R.R.Q.Q.R.Q.^.Q.P.U.U.!.E.5.d./.Q.Q.^.!.^.).).E.E.Q.E.`.).Q.E.Y.P.U.!./.E.R.E.!.Y.R.E.E.;.1 ",
"[ Q &.=.[ 5.[ 5.=.<.5.>.1.=.=.=.=.:.:.[ =.[ =.<.&.=.=.[ { [ ;.;.=.5.,.,.<.<.9.,.=.,.=.=.&.=.=.[ =.,.[ { { [ :.[ ;.<.[ =.[ ] ' 1 "
};
