/* XPM */
static char *_e0175a803f94dabbe65cccc3c07fa4ezaNFA2JqNTryUV4p[] = {
/* columns rows colors chars-per-pixel */
"64 64 172 2 ",
"   c #030303",
".  c #0A0706",
"X  c #070708",
"o  c #080709",
"O  c #0C0C0C",
"+  c #110E0D",
"@  c #0E0E10",
"#  c #110F10",
"$  c #131314",
"%  c #191716",
"&  c #1D1913",
"*  c #171618",
"=  c #181718",
"-  c #171D1F",
";  c #1B1B1B",
":  c #241F17",
">  c #211E1E",
",  c #291A1A",
"<  c #341619",
"1  c #23211E",
"2  c #181E21",
"3  c #211F20",
"4  c #242323",
"5  c #292725",
"6  c #2B2926",
"7  c #292728",
"8  c #2C2B2B",
"9  c #312E2B",
"0  c #372C28",
"q  c #33312E",
"w  c #3B352F",
"e  c #2C3B3E",
"r  c #343433",
"t  c #393734",
"y  c #3E3B34",
"u  c #3C3C3B",
"i  c #481B21",
"p  c #462127",
"a  c #58232B",
"s  c #4B3130",
"d  c #403D35",
"f  c #413E39",
"g  c #503232",
"h  c #61262C",
"j  c #6A2931",
"k  c #712C34",
"l  c #67353A",
"z  c #783139",
"x  c #44423C",
"c  c #4A453C",
"v  c #4D493F",
"b  c #2C3F44",
"n  c #444443",
"m  c #464946",
"M  c #4D4A44",
"N  c #4A4A4A",
"B  c #524E44",
"V  c #5B4D47",
"C  c #514E48",
"Z  c #4F504B",
"A  c #565046",
"S  c #585247",
"D  c #55524C",
"F  c #5A554B",
"G  c #5D584E",
"H  c #404F54",
"J  c #4A5151",
"K  c #555453",
"L  c #595751",
"P  c #5D5A52",
"I  c gray35",
"U  c #674442",
"Y  c #6E494A",
"T  c #764E4D",
"R  c #615B4F",
"E  c #625D53",
"W  c #6F5A53",
"Q  c #615F59",
"!  c #795A58",
"~  c #656155",
"^  c #686357",
"/  c #65625A",
"(  c #6A655B",
")  c #6E695D",
"_  c #74625C",
"`  c #706B5F",
"'  c #455D64",
"]  c #666561",
"[  c #686760",
"{  c #6D6A62",
"}  c #646F6C",
"|  c #6D6C6B",
" . c #726D63",
".. c #7A6C63",
"X. c #767166",
"o. c #7A7267",
"O. c #767269",
"+. c #7A766B",
"@. c #7D796D",
"#. c #787773",
"$. c #7E7B72",
"%. c #83363E",
"&. c #8C3B43",
"*. c #8B3E48",
"=. c #8F4048",
"-. c #964047",
";. c #91434C",
":. c #91484F",
">. c #875A5A",
",. c #A0474F",
"<. c #A04951",
"1. c #A4515A",
"2. c #85615E",
"3. c #B25D65",
"4. c #856F69",
"5. c #966768",
"6. c #897569",
"7. c #8A756B",
"8. c #817B6F",
"9. c #9C776E",
"0. c #97796E",
"q. c #817D72",
"w. c #8A7971",
"e. c #927772",
"r. c #927D73",
"t. c #9A7E72",
"y. c #AF7275",
"u. c #858176",
"i. c #898477",
"p. c #868379",
"a. c #8A867A",
"s. c #8D897C",
"d. c #97837A",
"f. c #918C7E",
"g. c #9A8B7E",
"h. c #658086",
"j. c #718C90",
"k. c #799095",
"l. c #8D8980",
"z. c #938E81",
"x. c #969184",
"c. c #999486",
"v. c #979389",
"b. c #9B968A",
"n. c #9D998C",
"m. c #849C9F",
"M. c #9E9B90",
"N. c #A4968A",
"B. c #A49E8E",
"V. c #A39E91",
"C. c #A6A08F",
"Z. c #A6A191",
"A. c #A9A495",
"S. c #ACA799",
"D. c #AFAA9C",
"F. c #AFAA9D",
"G. c #B0AB9E",
"H. c #B1AD9F",
"J. c #8FB0B7",
"K. c #AEABA0",
"L. c #B3AEA1",
"P. c #B2AFA2",
"I. c #B4B0A3",
"U. c #B7B3A6",
"Y. c #B7B4A7",
"T. c #B8B4A7",
"R. c #B7B4A9",
"E. c #B8B5A8",
"W. c #B9B6AA",
"Q. c #BCB9AD",
"!. c #BFBCB1",
"~. c #9FC0C4",
/* pixels */
"G +.X. .( G X.A F ^ F ) B F E G  .E G ^ B G E B A A A A S E E S ~ E B B A E G ) E S E S ` ) F ) G F E S  .F B  .F A B B A A B A ",
") 8.` X.^ ~  .E  .` ^ o.R ~ ^ E ) ) ^  .G ~ ^ ~ ) )  . .X.@.+.X.+.( ) ^ ) 8.+.i.+.^ +.( X.X.` +. .^ X.) +.) E i. . .^ E  .X.G ^ ",
"x c.V.Z.B.Z.Z.Z.Z.A.Z.S.Z.Z.A.Z.Z.A.Z.A.B.V.Z.Z.Z.A.V.Z.B.Z.s.F p.S.L.L.S.D.H.G.D.D.S.L.L.L.D.I.L.D.L.D.G.D.L.Y.U.L.U.U.I.L.G 6 ",
"c S.S.D.D.G.G.D.D.D.G.D.S.D.G.S.S.S.S.S.Z.Z.A.Z.S.Z.n.b.s.u.{ K I p.L.I.G.H.U.U.I.L.H.U.L.H.H.H.H.U.W.L.Y.U.L.L.U.U.I.U.L.W.G : ",
"x Z.G.G.G.D.D.S.S.S.D.S.S.S.S.S.S.S.Z.Z.A.Z.S.Z.b.O.#.#.| | | I n ] V.I.H.I.U.U.U.U.L.L.H.L.L.H.L.I.I.U.U.H.L.H.U.W.I.U.L.W.G : ",
"d n.D.G.D.S.D.S.D.S.S.S.S.S.D.S.S.A.B.B.Z.Z.Z.Z.b./ K I N u t u n L a.H.H.I.W.W.L.G.G.G.G.H.H.G.H.H.I.U.W.L.U.L.Y.I.I.U.L.R.G : ",
"y b.S.G.D.S.S.S.S.D.S.S.D.D.S.A.S.Z.B.B.Z.S.Z.Z.B.i.n K u O   ; r P v.L.H.L.U.I.L.H.D.G.D.S.H.H.L.I.H.I.W.U.I.U.I.L.L.W.U.W.P : ",
"d b.A.G.D.S.S.G.G.S.S.D.S.S.S.S.S.V.Z.Z.Z.A.Z.Z.Z.n./ n r r u u r / V.L.D.G.Y.U.H.H.D.S.S.H.H.G.I.W.U.I.H.L.T.U.U.U.U.W.I.W.G : ",
"d n.D.D.G.D.S.S.S.S.S.D.G.D.S.S.S.Z.S.S.Z.B.Z.Z.Z.B.i.Z m J n t x l.D.I.H.G.Y.U.H.H.S.S.S.S.D.G.H.I.I.I.L.U.U.L.W.U.W.W.W.W.G : ",
"d n.D.S.D.S.S.S.S.S.S.S.S.S.S.S.Z.A.Z.Z.Z.B.Z.Z.Z.Z.x.} m.k.H + x b.D.L.L.H.Y.U.G.L.H.L.L.H.L.L.D.W.W.U.Y.U.W.U.W.Q.W.W.L.W.P : ",
"d n.S.S.S.A.S.S.S.S.G.S.Z.S.Z.S.Z.Z.Z.S.Z.B.Z.Z.n.f.+.} ~.J.' . 6 / q.x.A.D.U.I.H.L.H.H.T.U.I.U.L.R.W.U.Y.T.W.W.U.Q.U.I.H.R.G : ",
"d n.A.S.S.S.S.S.G.D.G.S.Z.Z.S.Z.Z.A.Z.Z.Z.B.B.z.+.F 4 e j.h.b   o O ; n O.z.D.L.L.L.H.H.U.U.I.L.U.Y.W.U.W.U.L.A.L.L.L.U.L.R.G : ",
"d n.A.S.S.S.S.S.S.S.S.S.S.A.Z.C.Z.A.Z.Z.Z.B.a.D 1 * O O 2 - O   X O * ; ; M n.H.L.L.H.U.L.U.W.W.W.I.U.I.R.L.z. .p.A.G.H.I.U.G : ",
"d n.S.S.S.A.A.S.S.S.S.S.S.Z.A.A.Z.Z.Z.Z.Z.x.E ; O $ $ $ * $ O o X * 5 ; $ 4 l.S.H.H.H.L.L.H.L.L.U.U.H.L.L.b.Y l w { V.D.H.U.G : ",
"y b.S.D.S.S.S.S.D.S.S.S.Z.S.Z.Z.S.Z.Z.Z.Z.s.q O o o $ * 4 4 * O X ; t 4 ; ; $.S.L.L.H.H.L.I.L.L.I.U.H.L.A.r.;.:.i 9 { V.H.R.G : ",
"y b.S.S.S.S.S.D.D.S.S.S.Z.Z.S.Z.B.Z.Z.B.N.@.4 O O * * * r u r O   4 u 7 4 $ / A.I.L.L.L.L.L.L.I.L.H.H.G.Z.e.1.3.k < q $.D.R.G : ",
"d n.S.S.S.S.S.S.S.S.S.Z.S.Z.Z.Z.Z.S.S.Z.s.M ; $ O ; ; * t N n 5   5 n 7 4 O y n.L.H.H.L.L.L.L.L.I.H.L.L.S.d.*.<.&.j < C A.R.G : ",
"d n.S.S.S.A.S.S.S.S.Z.A.S.B.Z.Z.Z.Z.Z.B.+.5 * $ o $ ; * 7 n N t * 8 n 5 * X > s.S.G.G.G.L.U.U.L.L.G.H.U.n...z %.z j p ( V.R.G : ",
"d n.D.S.S.S.S.S.S.S.Z.S.B.Z.Z.Z.S.Z.A.s.D ; $ @ X o ; ; = r n n 7 8 b ; o X $ +.A.H.G.H.H.I.I.L.I.L.I.L.q.g Y 4._ ! @.b.L.W.P : ",
"d n.S.S.S.S.S.S.S.S.Z.Z.Z.A.A.Z.B.Z.B.X.6 * $ O X X $ ; $ 8 n n u 7 r = X X $ D v.G.H.H.L.I.U.U.Y.L.D.N.7.( a.V.n.n.A.H.W.Q.P : ",
"d n.S.S.S.S.S.S.S.S.S.S.Z.S.Z.Z.Z.Z.s.D ; $ $ o X   O * $ t n n u 8 7 4 X o * 1 q.S.L.L.U.U.U.W.U.S.N.t.d.B.Z.L.L.W.L.I.U.W.G : ",
"d b.S.S.D.S.S.S.S.S.S.Z.Z.B.Z.Z.Z.B. .6 * $ ; t 9 O O O # u N n t 7 r 8 O o ; * P z.D.I.L.I.W.T.L.N.t.r.V.U.I.L.L.U.U.L.U.U.G : ",
"y v.Z.S.S.S.S.Z.A.Z.S.Z.Z.B.Z.A.Z.s.D $ $ ; M O.( 1 X O @ u N N u 5 r 8 $ 9 1 ; 5 Q z.L.U.U.U.H.N.t.r.V.R.W.W.U.U.L.L.U.H.L.F : ",
"t z.S.S.S.S.S.A.Z.Z.Z.S.Z.Z.Z.Z.V. .9 $ ; M q.B.x.M $ @ @ u N N n 9 8 4 ; P L r 5 8 P v.A.S.S.v.t.7.V.L.W.W.W.I.I.U.L.L.H.I.F : ",
"y v.S.S.S.S.S.S.Z.S.S.S.Z.A.B.Z.b.E ; $ x @.B.Z.B.X.8 $ O t N N n r = ; ; L x.O.r 5 7 x P / / V ..V.G.U.W.Q.U.I.L.U.H.G.I.Q.P : ",
"d n.S.S.S.S.S.Z.Z.Z.A.Z.Z.Z.Z.B.q.x ; $ E c.Z.Z.B.O.9 $ O t N n r ; * ; * 8 l.V.+.q ; * ; 4 1 9 q.S.U.W.W.W.U.U.L.I.I.L.W.Q.P : ",
"d n.Z.S.Z.S.S.Z.Z.Z.Z.B.Z.Z.Z.B. .q * x q.B.Z.B.N.X.8 @ O t n n u 8 4 u 7 ; / n.V.{ $ o O O O ; D n.U.Q.W.W.U.H.I.U.U.Y.W.W.G : ",
"d b.Z.S.A.S.S.B.Z.Z.Z.B.Z.B.B.b.P > $ P f.Z.Z.B.c.F ; @ O t N N n u t n u 5 8 / b.V.O.9 % * ; 4 D b.U.W.W.W.U.U.I.L.I.W.L.W.G : ",
"y c.Z.A.Z.C.Z.Z.B.V.Z.B.Z.B.B.i.x * $ F s.Z.Z.B.x.y @ $ $ r n N N u 8 u n t ; 7 [ b.b.Q 7 4 n  .b.D.W.U.W.W.I.W.L.L.L.I.I.U.G : ",
"y z.B.Z.B.Z.C.Z.B.B.B.B.B.V.c.^ 9 $ 8 { c.B.B.B.i.9 $ $ $ r n n u 7 * ; 8 8 $   5 ( x.b.i.+.x.A.U.U.W.U.U.U.Y.U.L.I.I.U.U.R.G : ",
"w f.Z.A.Z.S.Z.Z.Z.Z.Z.Z.Z.n.+.x 5 8 ( z.Z.S.S.n.{ 6 $ $ * 8 u r 5 * ; ; ; 4 ; O X 7 { M.G.S.U.I.U.W.W.W.W.W.W.U.W.U.W.W.T.W.P : ",
"c q.x.x.x.c.x.f.x.f.x.s.i.{ y 5 4 f X.a.s.z.a.@.f = $ $ $ 5 7 4 > 5 7 4 7 8 7 4 ; $ 4 D a.v.b.x.v.n.b.v.n.b.b.b.b.n.x.b.b.v.F d ",
"R ~ X.X. . .` ^ X.( ( ^ F q 8 4 4 f E ( ` +.G C % @ $ @ # ; > 5 8 8 8 5 8 8 8 8 7 4 ; ; x ~ ~  .^ @.+.) o.X. .) ) @.)  .(  .B A ",
"D p.z.f.z.z.f.c.V.x.f.z.@.V c 0 8 / a.x.c.n.q.x $ $ $ $ ; 4 7 7 8 7 7 7 7 7 5 7 8 8 7 4 r ( s.c.c.c.b.c.x.c.c.x.c.n.x.c.x.B.v y ",
"d M.S.Z.A.S.S.L.W.D.S.B.g.7.o./ / s.B.S.A.B.X.1 @ $ $ ; 7 8 7 5 4 3 ; 4 4 > 4 7 8 8 8 8 8 D x.A.S.Z.Z.S.A.A.A.A.S.A.A.Z.S.S.c & ",
"d n.S.Z.Z.S.S.S.U.D.B.g.0.7.c.b.b.B.S.S.B.i.8 $ $ $ $ 4 7 8 7 4 = O X # # ; 7 8 8 8 8 8 8 r E c.B.Z.B.A.Z.A.B.B.B.B.B.B.C.S.x : ",
"y b.S.S.S.S.S.S.W.S.g.0.7.N.Z.Z.Z.Z.S.S.a.x $ $ $ $ * 7 8 8 7 4 o         o ; 5 7 8 8 8 8 8 u +.n.B.Z.Z.Z.Z.B.B.B.B.B.B.Z.D.x & ",
"y b.S.H.S.S.A.S.D.c.7.7.B.S.Z.Z.S.S.S.a.M ; $ $ $ $ ; 7 8 8 4 $             X O ; 5 8 8 8 8 r D z.B.Z.Z.B.B.B.B.B.B.B.B.S.L.C : ",
"d n.S.L.b.x.B.f...W ..c.Z.S.S.Z.Z.A.a.M ; $ $ $ $ $ 4 8 8 4 $           X X 1 4 5 6 7 7 8 8 8 u i.N.B.Z.Z.B.B.B.B.B.B.Z.H.L.D : ",
"y c.N.w.5.y.9.>.l _ f.B.B.B.Z.S.B.i.C ; $ $ $ $ * * 7 8 5 *         X q ( O.i.a.a.u.E 3 7 8 8 r q.n.B.Z.B.B.B.B.B.B.B.Z.H.L.M : ",
"d x.8.U *.3.1.=.! z.Z.B.B.B.B.B.i.C ; $ $ * ; ; ; ; 8 7 ; X       t ) i.c.n.B.B.B.c.( 4 7 8 8 t u.B.B.Z.Z.B.B.B.B.B.B.Z.S.L.A : ",
"y x.q.s h ;.,.-.2.b.S.Z.B.B.B.i.M ; ; ; ; ; ; ; ; 5 7 4 O     X q +.c.B.B.B.B.B.B.f.P 7 8 8 9 D c.S.Z.S.S.Z.B.B.B.B.B.Z.S.S.F : ",
"y x.b.D , a %.&.T a.S.S.Z.n.i.C 4 ; ; ; ; * ; 4 5 7 7 ; X ; n f ( B.B.B.B.B.B.B.B.s.D 7 7 r M q.V.Z.Z.A.S.Z.B.B.B.B.B.A.S.A.S : ",
"y x.Z.s.D , a k T a.S.S.B.a.C 4 ; ; * O $ * ; 7 7 7 5 y M ( u.~ i.S.B.Z.Z.B.B.B.B.a.C 5 7 u O.N.Z.Z.Z.Z.Z.B.Z.C.B.Z.A.Z.S.S.F : ",
"y x.A.S.i.F 0 g q.A.Z.Z.n.{ 9 9 f D x 4 4 5 ; 4 5 q L $.v.S.A.^ i.S.Z.Z.V.B.B.B.N.+.u 7 8 D z.V.S.A.Z.Z.B.Z.Z.B.Z.Z.Z.Z.Z.S.F : ",
"d b.H.S.B.f.O. .V.I.S.B.s.D F ) q.x. .r 8 7 5 4 8 D x.S.W.Q.S.^ q.S.Z.Z.B.B.Z.Z.f.E 7 7 t X.Z.S.S.Z.Z.Z.S.A.S.Z.Z.Z.B.Z.S.S.F : ",
"y c.H.S.Z.S.I.S.U.U.H.Z.a.+.c.B.B.f.F 7 8 8 8 8 u @.B.S.U.!.D.^ a.H.Z.Z.Z.B.B.n.+.x 7 5 D z.S.S.Z.C.Z.S.S.S.Z.S.Z.Z.B.B.Z.S.F : ",
"y x.S.Z.A.H.Y.L.L.I.G.Z.n.B.B.Z.A.X.t 8 8 8 8 t E c.A.A.H.Q.V.S l.U.A.Z.Z.Z.B.+.M 8 8 r ( B.Z.Z.Z.S.S.S.Z.Z.S.Z.Z.B.B.B.Z.S.F : ",
"y x.S.Z.S.S.U.S.S.A.S.Z.Z.B.B.Z.n./ 7 8 8 8 t E z.Z.S.S.S.W.A.G i.S.Z.Z.Z.S.n.{ u 7 8 x @.B.B.B.Z.S.Z.Z.Z.Z.Z.V.B.B.B.B.Z.A.F : ",
"y c.S.S.S.G.W.D.S.C.S.S.Z.B.B.B.i.C 8 8 8 t / z.Z.Z.S.S.S.I.V.F q.S.Z.A.S.S.V.x.P ; 4 C i.B.A.Z.B.Z.B.B.B.B.B.B.B.B.B.B.Z.A.S : ",
"d n.S.S.S.S.W.S.G.S.G.I.S.S.Z.B. .u 8 8 t { n.B.A.A.Z.S.S.W.S.~ q.S.A.S.S.S.Z.x.L X O F x.Z.Z.V.B.B.B.B.B.B.B.B.B.B.B.V.S.D.F : ",
"y c.Z.A.Z.S.L.H.U.Z.S.S.S.S.B.f.F 7 7 t ( b.S.Z.Z.A.Z.G.L.W.D.^ i.S.Z.S.S.S.Z.@.8     x i.B.B.B.B.B.B.B.Z.B.B.Z.S.S.A.S.D.L.F : ",
"y x.Z.S.Z.A.H.D.D.Z.A.S.Z.Z.V.q.x 4 r ( z.A.S.S.S.A.Z.S.I.!.L.^ i.H.Z.Z.Z.Z.S.~       1 / b.V.Z.A.Z.B.B.Z.Z.Z.L.L.D.S.Z.S.L.F : ",
"d b.Z.S.Z.S.U.H.S.S.S.S.B.Z.V.{ t 4 C s.A.S.H.S.A.A.Z.S.L.!.D.^ q.S.Z.B.Z.S.S.i.F t X X u @.n.A.Z.Z.B.B.Z.Z.D.U.L.S.S.A.D.L.F : ",
"d b.S.S.Z.S.L.W.U.H.S.S.A.B.q.M 8 8  .b.S.S.H.S.Z.Z.A.A.S.Q.K.^ q.S.Z.S.L.U.U.A.x.{ 8   X r  .s.B.Z.B.B.B.B.Z.Z.S.S.Z.Z.Z.S.F : ",
"d b.A.S.S.S.G.U.W.I.H.D.V.i.n 8 8 M a.Z.A.S.S.Z.B.B.A.S.Z.I.D.^ +.Z.A.H.U.W.W.U.L.b.( t 1 1 q / b.B.B.B.B.B.S.Z.Z.S.Z.S.Z.D.F : ",
"y b.Z.A.S.S.Z.H.W.U.Q.I.B.{ r 7 7 D z.Z.Z.S.S.G.S.B.Z.A.Z.D.A.^ q.S.Z.Z.S.G.I.U.L.S.n.q./ / ) s.V.Z.B.Z.Z.Z.Z.S.Z.Z.Z.Z.Z.S.F : ",
"d n.Z.S.S.S.Z.S.Y.L.U.W.B./ 4 $ 7 / x.S.Z.Z.S.L.L.S.B.Z.S.L.A.^ i.S.Z.A.Z.S.S.G.S.A.Z.V.B.V.Z.S.S.S.S.Z.Z.A.S.D.Z.Z.Z.Z.Z.S.F : ",
"d n.S.S.S.S.Z.L.W.U.U.U.i.y O o f a.V.S.Z.Z.Z.H.I.A.B.B.S.W.S.^ i.S.Z.Z.A.A.Z.S.S.Z.S.S.Z.Z.Z.S.L.W.W.I.G.U.L.L.D.S.Z.Z.Z.S.F : ",
"d b.S.S.S.Z.A.H.Q.U.U.b.M 4 O X 6 @.B.S.B.B.V.A.S.Z.B.B.Z.S.b.P +.Z.Z.A.Z.V.B.Z.Z.B.Z.Z.B.B.S.L.W.W.U.U.W.U.U.W.U.S.Z.B.Z.A.F : ",
"y b.S.S.Z.S.S.S.L.U.U.x.t ; ; * ; X.n.Z.Z.B.B.Z.S.B.c.b.c.S.V.^ q.S.V.Z.B.Z.V.S.S.Z.Z.Z.B.S.L.Y.W.W.L.H.L.L.L.H.S.Z.B.B.Z.A.F : ",
"y b.A.S.Z.S.S.A.H.U.U.S.l.+. .( { f.A.S.S.S.B.B.Z.Z.b.c.B.D.S.^ q.S.V.B.B.Z.Z.S.S.Z.B.B.B.H.S.D.S.A.Z.Z.U.W.D.Z.A.S.V.B.S.A.S : ",
"y a.n.n.c.V.n.V.A.S.U.L.S.V.M.x.z.c.b.b.B.B.b.B.Z.B.z.x.x.V.n.E +.A.B.B.Z.V.Z.S.S.n.n.B.n.D.S.B.n.c.z.x.V.A.n.b.n.V.c.b.n.n.A : ",
"c d M B c E c E C G E D G C C C B S S c B c C G M C C c v c A A B E F F G G ~ F B F B C M C C c C F c v v c S c A G c B c x c : "
};
