/* XPM */
static char *_3466c6db2eb43c8cf9fe19d892e87d26MXHeKdlOmkef1ur[] = {
/* columns rows colors chars-per-pixel */
"64 64 174 2 ",
"   c #030303",
".  c #0A0706",
"X  c #070708",
"o  c #080709",
"O  c #0C0C0C",
"+  c #110E0D",
"@  c #10100F",
"#  c #0E0E10",
"$  c #110F10",
"%  c #131314",
"&  c #191716",
"*  c #1B1915",
"=  c #171719",
"-  c #181719",
";  c #171D1F",
":  c #1B1B1B",
">  c #241F17",
",  c #211E1D",
"<  c #291A1A",
"1  c #341619",
"2  c #23211F",
"3  c #181E21",
"4  c #211F20",
"5  c #242323",
"6  c #282625",
"7  c #2C2926",
"8  c #292728",
"9  c #2C2B2B",
"0  c #322B26",
"q  c #382927",
"w  c #312E2C",
"e  c #33322E",
"r  c #3A342E",
"t  c #2C3B3E",
"y  c #343433",
"u  c #393633",
"i  c #3E3B34",
"p  c #3C3C3B",
"a  c #481B21",
"s  c #4A282B",
"d  c #58232B",
"f  c #4A302E",
"g  c #4F3030",
"h  c #403D35",
"j  c #413F39",
"k  c #61262C",
"l  c #6A2931",
"z  c #712C34",
"x  c #673439",
"c  c #783139",
"v  c #44423C",
"b  c #4A453D",
"n  c #4D493F",
"m  c #2C3F44",
"M  c #444444",
"N  c #494743",
"B  c #4C4A43",
"V  c #414A4B",
"C  c #4A4A4A",
"Z  c #524D44",
"A  c #5A4B44",
"S  c #524F49",
"D  c #565046",
"F  c #585247",
"G  c #55524B",
"H  c #5A554B",
"J  c #5D584E",
"K  c #404F54",
"L  c #4A5151",
"P  c #545452",
"I  c #595650",
"U  c #5D5A52",
"Y  c gray35",
"T  c #6C4646",
"R  c #774546",
"E  c #6B544C",
"W  c #615B4F",
"Q  c #7B504E",
"!  c #625D53",
"~  c #6B5B53",
"^  c #615F59",
"/  c #705B56",
"(  c #656055",
")  c #686357",
"_  c #65625A",
"`  c #6A655B",
"'  c #6D695D",
"]  c #74635B",
"[  c #7D635D",
"{  c #706B5F",
"}  c #455D64",
"|  c #6E6A62",
" . c #6A6965",
".. c #726E62",
"X. c #7C6E65",
"o. c #726F68",
"O. c #767165",
"+. c #7A7267",
"@. c #757169",
"#. c #7A766B",
"$. c #7D796D",
"%. c #697472",
"&. c #777674",
"*. c #7D7A72",
"=. c #83363E",
"-. c #8C3B43",
";. c #8B3E48",
":. c #8F4048",
">. c #964047",
",. c #91434C",
"<. c #91484F",
"1. c #835755",
"2. c #A0474F",
"3. c #A04951",
"4. c #A4515A",
"5. c #B25D65",
"6. c #856E66",
"7. c #986767",
"8. c #897265",
"9. c #867469",
"0. c #8C756B",
"q. c #817B6E",
"w. c #967A6D",
"e. c #98796D",
"r. c #827E73",
"t. c #937A71",
"y. c #AD6F72",
"u. c #858176",
"i. c #898477",
"p. c #868379",
"a. c #8A8579",
"s. c #8E897C",
"d. c #958579",
"f. c #928C7E",
"g. c #9A8B7D",
"h. c #658086",
"j. c #718C90",
"k. c #799095",
"l. c #8E8B82",
"z. c #938E81",
"x. c #9B8F82",
"c. c #969184",
"v. c #9A9486",
"b. c #979388",
"n. c #9B9689",
"m. c #9D998C",
"M. c #849C9F",
"N. c #9E9B91",
"B. c #A49E8E",
"V. c #A49E91",
"C. c #A6A08F",
"Z. c #A6A191",
"A. c #A9A495",
"S. c #ACA699",
"D. c #ADA899",
"F. c #AFAA9C",
"G. c #AFAA9D",
"H. c #B0AB9E",
"J. c #B1AC9E",
"K. c #8FB0B7",
"L. c #AEABA0",
"P. c #B3AEA1",
"I. c #B3AFA2",
"U. c #B4B0A3",
"Y. c #B5B1A4",
"T. c #B7B3A6",
"R. c #B7B4A7",
"E. c #B8B4A7",
"W. c #B7B4A9",
"Q. c #B8B5A8",
"!. c #B9B6AB",
"~. c #BCB9AD",
"^. c #BFBCB1",
"/. c #9FC0C4",
/* pixels */
"J #.O...` J O.D H ) H ' Z H ! J ..! J ) Z J ! Z D D D D F ! ! F ( ! Z Z D ! J ' ! F ! F { ' H ' J H ! F ..H Z ..H D Z Z D D Z D ",
"' q.{ O.) ( ..! ..{ ) +.W ( ) ! ' ' ) ..J ( ) ( ' ' ....O.$.#.O.#.` | ) ' q.#.i.#.) #.` O.O.{ #...) O.' #.' ! i.....) ! ..O.J ) ",
"v v.V.Z.B.Z.Z.Z.Z.A.Z.S.Z.Z.A.Z.Z.A.Z.A.B.V.Z.Z.Z.A.V.Z.B.V.a.H a.F.L.F.S.F.J.H.F.F.D.P.P.P.F.U.P.F.P.F.H.F.P.R.T.P.T.T.U.P.J 7 ",
"b S.S.F.F.H.H.F.F.F.H.F.D.F.H.D.S.S.S.S.Z.Z.A.Z.S.A.Z.Z.B.*.P P  .l.N.Z.Z.F.T.T.U.P.J.T.P.J.J.J.J.T.!.P.R.T.P.P.T.T.U.T.P.!.J > ",
"v Z.H.H.H.F.F.D.S.D.F.D.D.D.D.D.D.S.Z.Z.A.Z.S.Z.Z.A.Z.V.z.^ M Y  .@.@.&.*.*.S.T.T.T.P.P.J.P.P.J.P.U.U.T.T.J.P.J.T.!.U.T.P.!.J > ",
"h m.F.H.F.S.F.D.F.S.D.D.S.S.F.S.S.A.B.B.Z.Z.Z.Z.Z.S.S.Z.r.G M p u p C Y P  .F.!.P.H.H.H.H.J.J.H.J.J.U.T.!.P.T.P.R.U.U.T.P.W.J > ",
"i v.D.H.F.S.D.D.D.F.S.S.F.D.D.A.S.Z.B.B.Z.S.Z.Z.Z.Z.Z.Z.a.G y :   O p P B l.P.U.P.J.F.H.F.D.J.J.P.U.J.U.!.T.U.T.U.P.P.!.T.!.U > ",
"h v.A.H.F.S.D.H.F.S.S.F.D.S.S.D.S.V.Z.Z.Z.A.Z.Z.Z.Z.B.B.f.I y p p y y N | Z.T.T.J.J.F.D.D.J.J.H.U.!.T.U.J.P.E.T.T.T.T.!.U.!.J > ",
"h m.F.F.H.F.S.D.D.D.S.F.H.F.D.S.S.Z.S.S.Z.B.Z.Z.Z.Z.B.Z.m.$.v u M L V P z.D.R.T.J.J.D.S.D.D.F.H.J.U.U.U.P.T.T.P.!.T.!.!.!.!.J > ",
"h m.F.S.F.D.D.S.S.D.D.D.D.D.S.S.Z.A.Z.Z.Z.B.Z.Z.Z.Z.Z.B.m.a.v + K k.M.%.V.J.R.T.H.P.J.P.P.J.P.P.F.!.!.T.R.T.!.T.!.~.!.!.P.!.U > ",
"h m.D.S.D.A.S.S.D.D.H.D.Z.S.Z.S.Z.Z.Z.S.Z.B.Z.Z.Z.B.v.a.#.U 7 . } K./.%.u.m.F.P.J.P.J.J.E.T.U.T.P.W.!.T.R.E.!.!.T.~.T.U.J.W.J > ",
"h m.A.D.D.S.Z.m.S.D.H.D.Z.Z.S.Z.Z.A.Z.Z.Z.B.Z.Z.B.s.| v : O O   m h.j.t 5 U p.V.F.P.J.J.T.T.U.P.T.R.!.T.!.T.E.P.T.U.P.T.P.W.J > ",
"h m.A.D.S.B.r.` a.Z.D.S.S.A.Z.Z.Z.A.Z.Z.Z.Z.Z.Z.f.v * : % O X   O ; 3 O O - 5 I c.F.J.T.P.T.!.!.!.U.T.U.W.!.!.P.H.U.J.J.U.T.J > ",
"h m.D.S.m.` r x T f.D.S.S.Z.A.A.Z.Z.Z.Z.Z.B.B.B.u.2 % : 6 % X O O % % % % % O : ` V.J.P.P.J.P.P.T.T.J.P.P.R.J.H.D.H.H.H.J.T.J > ",
"i v.S.V.` w a <.,.0.B.D.Z.S.Z.Z.S.Z.Z.Z.Z.Z.B.m.@.* : 5 u : X O % 5 5 % % O X O y b.J.J.P.U.P.P.U.T.J.P.P.P.J.H.S.F.J.J.J.W.J > ",
"i v.B.#.w 1 z 5.4.t.B.S.V.V.A.Z.B.Z.Z.B.Z.Z.B.c.U % 5 9 p 5   O y p y % % % O # 5 p.S.P.P.P.P.U.P.J.J.H.H.H.H.J.H.H.P.U.T.W.J > ",
"h m.v.B 1 l -.3.;.d.S.Z.S.Z.Z.Z.Z.S.S.Z.B.B.B.s.r O 5 9 M 6   6 M C p % : : O % : G b.P.P.P.P.P.U.J.P.P.H.H.H.U.J.H.H.T.T.W.J > ",
"h m.m.! s l c =.c [ c.A.S.B.Z.Z.Z.Z.Z.Z.B.B.B.r.: X % 6 M 9 % u C M 9 % : $ O % % 6 r.S.P.T.T.P.P.J.J.T.P.J.J.J.P.J.J.T.P.W.J > ",
"h m.S.c.X./ ] 6.T g +.V.B.Z.Z.Z.S.Z.Z.Z.B.B.m.O.% X O : p 9 9 M M y : : : o X # % : I c.J.U.U.P.U.P.U.T.P.P.U.P.H.J.P.P.T.!.U > ",
"h m.D.A.B.c.v.m.u.~ 6.x.B.A.A.Z.B.Z.A.B.B.Z.f.G % X X & y 9 p M M 9 % : $ X X O % % 9 *.F.U.T.T.R.P.T.T.U.U.P.P.J.P.P.P.!.~.U > ",
"h m.D.S.D.S.S.S.Z.v.t.w.g.B.Z.Z.Z.Z.B.B.B.B.#., % O X 5 9 9 p M M u % % O   X O % % : U n.T.T.!.T.P.P.T.W.T.S.P.P.!.P.U.T.!.J > ",
"h m.S.S.F.S.S.S.S.S.v.0.w.g.B.Z.Z.Z.B.B.B.i.G % : O O 9 y 9 u M C p % O O O e u : % = 9 $.F.!.E.R.T.T.!.T.T.U.P.P.T.T.P.T.T.J > ",
"i b.Z.S.D.S.D.Z.A.Z.Z.x.0.e.g.B.V.Z.B.B.a.U 6 : : 9 % 9 y 6 p C C p # O X 6 @.*.G : % % U m.W.T.T.P.!.T.!.!.!.T.T.P.P.T.J.P.H > ",
"u z.S.D.D.F.S.A.Z.Z.A.Z.z.8.w.a.v.v.v.u.I 9 6 e G I : 5 9 w M C C p # # % B V.P.l.S : % y *.T.!.T.P.U.P.!.!.!.U.U.T.P.P.J.T.H > ",
"i b.D.S.D.D.S.S.Z.S.S.S.Z.c.] A H U G i 6 6 w ) a.G : : - y M C C u O % e #.F.W.T.s.N % : ` F.T.E.U.P.T.!.~.T.U.P.T.J.H.U.~.U > ",
"h m.S.S.S.S.S.Z.Z.Z.A.Z.Z.m.O.7 , 2 : % : 9 ` z.r.7 % : % : y M C u O % y *.F.T.!.S.| % : B l.T.T.T.T.!.!.!.T.T.P.U.U.P.!.~.U > ",
"h m.Z.S.Z.S.S.Z.Z.Z.Z.B.B.s.B * O O O O % _ z.s.H : 9 p 5 9 p M M u O # y r.T.T.T.T.l.B = u #.W.T.T.!.~.!.!.T.J.U.T.T.R.!.!.J > ",
"h v.Z.S.A.S.S.B.Z.Z.Z.B.B.a.B 2 : % & 7 ) f.s.U 6 6 p M u p M C C u O # 2 _ F.U.T.!.Z. .% 5 ` S.P.W.!.!.!.!.T.T.U.P.U.!.P.!.J > ",
"i v.Z.A.Z.C.Z.Z.B.V.Z.B.B.m.a._ j 2 6 H a.s.U 2 : u M p 9 p C C M y % % # v Z.T.W.T.N.^ % % B c.T.T.!.T.!.!.U.!.P.P.P.T.U.T.J > ",
"i z.B.Z.B.Z.C.Z.B.B.B.B.B.Z.B.c.u.| $.s.u.U 2   % 9 9 : % 9 p M M y % $ % u b.T.!.T.S.#.9 % y o.S.T.!.T.T.T.R.T.P.U.U.T.T.W.J > ",
"r f.Z.A.Z.S.Z.Z.Z.Z.Z.Z.Z.A.S.Z.Z.m.V.f.! 2 X O : 5 : : : % 6 y p 9 % % % 9 *.T.~.~.!.V...e 6 N u.D.!.!.!.!.!.T.!.T.!.!.E.!.U > ",
"b r.c.c.c.v.c.f.c.f.c.s.f.c.f.z.f.a.$.Z , % : 5 6 9 9 5 9 6 4 5 9 6 % % % : N l.v.V.N.v.r.v 5 6 p ..l.c.m.v.v.v.v.m.c.v.v.b.H h ",
"W ( O.O.....{ ) O.` ` ' ` ..` ....U j : : 5 9 9 9 9 9 6 9 9 9 6 , : $ $ % # * Z ) ..O.' ` v 5 5 9 u _ ` +.O...' ' $.' ..` ..Z D ",
"G p.z.f.f.c.f.v.V.c.f.c.z.z.z.z.z.` y 5 9 9 9 8 6 8 9 8 8 9 9 9 6 5 : % % % % v r.z.m.v.s._ 7 0 b A r.c.c.v.v.c.v.m.c.v.v.B.n i ",
"h N.S.Z.A.S.S.P.!.F.D.S.S.S.S.Z.c.G 9 9 9 9 9 6 5 , 5 5 : , 5 6 9 9 8 : % % # 2 ..V.J.D.Z.s._ ) +.0.g.B.Z.A.A.A.S.Z.A.Z.S.D.b * ",
"h m.S.Z.Z.S.S.D.T.F.S.S.S.S.V.c.! y 9 9 9 9 9 9 8 : $ $ X O % 5 9 9 9 5 % % % % 9 a.V.Z.Z.B.m.m.v.9.w.g.B.A.B.B.B.B.B.B.Z.S.v > ",
"i v.D.S.S.S.S.S.!.P.Z.S.D.S.B.#.p 9 9 9 9 9 9 6 : O         O : 9 9 9 8 = % % % % v u.Z.Z.B.Z.Z.B.v.8.e.g.B.B.B.B.B.B.B.Z.F.v * ",
"i v.S.J.S.S.S.S.T.!.Z.Z.S.S.c.H y 9 9 9 9 6 : O X             % 5 9 9 9 : % % % % : B u.Z.A.Z.Z.B.B.n.9.8.d.m.B.B.B.B.B.S.P.Z > ",
"h m.S.T.H.F.D.S.D.T.Z.B.Z.V.i.p 9 9 9 8 6 7 6 6 2 X X           % 5 9 9 5 % % % % % : B u.Z.Z.Z.Z.B.B.n.X.E ] a.v.a.z.B.J.P.G > ",
"i v.Z.F.D.H.F.D.P.T.Z.B.B.m.r.y 9 9 9 4 ! u.s.z.a.#.| r           % 6 9 8 % % % % % % : B r.B.Z.Z.B.B.Z.f.~ x 1.7.y.7.9.A.P.B > ",
"h v.A.D.S.S.S.T.!.T.A.B.B.B.r.i 9 9 9 5 | v.Z.S.Z.B.m.a...i       X : 9 9 : : : : = % % : B r.B.Z.Z.B.Z.B.r.Q :.4.5.;.T r.D.D > ",
"i v.S.S.Z.Z.D.!.!.T.S.Z.B.B.f.H w 9 9 9 U z.S.S.A.A.S.P.Z.r.N X     O 5 9 6 : : : : : : : : B r.Z.S.Z.S.S.a.1.>.2.,.k f r.Z.H > ",
"i c.A.Z.Z.Z.T.!.!.U.S.S.Z.B.B.u.B y 9 9 I s.Z.Z.Z.A.D.!.T.S.p.j r * X : 9 9 6 5 : % : : : : 5 Z a.B.V.A.S.q.R -.=.d < H m.A.F > ",
"i c.S.D.S.S.T.!.T.D.S.S.Z.B.B.B.O.p 9 6 G a.Z.S.S.Z.D.T.U.H.Z.( ` ` v y 6 9 9 8 : % % O % : : 5 Z s.B.Z.Z.r.T z d < S i.Z.S.H > ",
"i c.A.S.Z.D.T.T.T.J.Z.Z.S.S.Z.B.f.G 9 9 p $.B.S.S.Z.D.P.!.T.Z.) u.B.a.@.G e 6 5 : 6 5 5 v G j w e ' m.Z.B.m.X.g q G i.Z.Z.S.H > ",
"h v.J.S.Z.S.T.P.!.U.S.B.Z.Z.Z.B.B.O.u 6 8 ! f.S.S.Z.S.F.!.~.S.) r.S.B.B.z.S 9 5 6 9 9 y @.c.u...U G s.Z.S.A.z.` ` s.B.Z.S.S.H > ",
"i v.J.S.Z.F.!.F.!.U.J.S.S.S.B.B.B.z.G 6 9 v #.B.A.Z.S.S.T.^.F.) a.J.V.Z.B.#.p 9 9 9 9 9 I s.A.Z.m.O.a.V.S.D.Z.Z.B.B.B.B.Z.D.H > ",
"i c.S.Z.A.J.R.P.P.U.H.S.Z.Z.B.Z.S.B.` y 9 9 N $.B.Z.A.A.P.~.V.F l.T.Z.Z.B.v.! u 9 9 9 9 u ..B.Z.Z.V.m.Z.Z.Z.S.Z.Z.B.B.B.Z.S.H > ",
"i c.S.Z.S.S.T.D.S.A.S.Z.Z.B.B.Z.Z.Z.#.v 9 9 p | c.Z.S.S.D.!.Z.J u.D.Z.Z.Z.S.v._ u 9 9 9 9 _ m.B.Z.S.Z.Z.Z.Z.Z.V.B.B.B.B.Z.A.H > ",
"i v.D.D.S.H.!.F.D.C.S.S.Z.B.B.C.Z.Z.a.S 5 : U f.V.Z.S.D.S.U.V.H r.S.Z.A.S.S.Z.c._ u 9 9 9 Z a.V.B.Z.B.B.B.B.B.B.B.B.B.B.Z.A.F > ",
"h m.S.D.S.D.W.S.H.S.H.U.D.S.Z.Z.A.S.v.U O X I s.A.A.Z.S.S.!.S.( r.D.A.S.D.S.Z.F.m.` u 9 9 u ..B.B.B.B.B.B.B.B.B.B.B.B.V.S.F.H > ",
"i v.Z.A.Z.S.P.J.T.Z.S.D.S.S.V.Z.Z.Z.u.b     7 ..V.A.Z.H.P.!.F.) u.D.Z.S.D.S.S.U.P.m.` u 9 9 G f.B.B.B.B.Z.B.B.Z.H.D.A.S.F.P.H > ",
"i c.Z.D.Z.A.F.F.F.Z.A.S.B.Z.Z.S.Z.m._ 2       ! Z.A.Z.D.U.^.P.) u.J.Z.Z.Z.Z.D.F.A.Z.f._ y 5 v $.Z.Z.B.B.Z.Z.Z.P.U.F.S.Z.D.P.H > ",
"h v.Z.D.Z.S.T.J.S.S.S.S.B.Z.S.S.v.$.i X X u _ a.Z.A.Z.S.P.^.F.) r.S.Z.B.B.S.F.S.B.B.B.a.G 5 u ` m.Z.B.B.Z.Z.F.T.P.D.S.A.F.P.H > ",
"h v.S.S.Z.D.P.!.T.J.S.A.Z.S.Z.c.@.u X   w ..V.S.Z.Z.A.A.D.~.L.) r.S.Z.D.P.T.T.S.B.Z.Z.m.o.9 9 N *.m.B.B.B.B.Z.Z.S.S.Z.Z.Z.S.H > ",
"h v.A.D.S.D.H.T.!.U.J.F.Z.Z.m._ w 5 2 u ` c.S.Z.B.B.A.S.Z.P.F.) #.Z.A.J.T.!.!.T.P.D.Z.B.i.B 9 9 N u.B.B.B.B.S.Z.Z.S.Z.S.Z.F.H > ",
"i v.Z.A.S.S.Z.J.!.T.~.U.A.S.B.u._ ( _ $.v.Z.S.H.D.B.Z.A.Z.F.A.) r.S.Z.Z.S.H.U.T.P.D.S.S.z.H 9 8 y ' m.Z.Z.Z.Z.S.Z.Z.Z.Z.Z.D.H > ",
"h m.Z.S.S.D.Z.S.R.P.T.!.S.Z.A.B.B.B.V.Z.B.Z.S.P.P.S.B.Z.S.P.Z.) u.D.Z.A.Z.S.D.H.D.A.Z.Z.c._ 7 % 5 ` B.Z.Z.A.D.F.Z.Z.Z.Z.Z.S.H > ",
"h m.S.S.S.S.Z.P.!.T.T.~.S.Z.Z.B.C.Z.Z.S.Z.Z.Z.J.U.A.B.B.D.!.S.) u.D.Z.Z.A.A.Z.S.S.Z.S.S.Z.a.j O @ v l.F.H.T.P.P.F.D.Z.Z.Z.S.H > ",
"h v.S.D.S.Z.A.J.~.T.!.T.F.S.B.B.B.C.Z.S.B.B.V.A.S.Z.B.B.Z.D.m.U #.Z.Z.A.Z.V.B.Z.Z.B.Z.Z.m.$.9 X O 5 G v.T.T.T.!.T.S.Z.B.Z.A.H > ",
"i v.D.S.Z.S.S.S.P.T.!.!.U.U.Z.B.B.B.Z.Z.Z.B.B.Z.S.B.v.m.v.D.V.) r.S.V.Z.B.Z.V.S.S.Z.Z.Z.m.#.: % : : u s.F.P.P.J.S.Z.B.B.Z.A.H > ",
"i v.A.S.Z.S.D.A.J.T.!.!.T.~.P.S.B.Z.S.S.S.S.B.B.Z.Z.n.v.B.F.S.) r.S.V.B.B.Z.Z.S.S.Z.B.B.B.v.O.| ' ' r.v.P.!.F.Z.A.S.V.B.S.A.F > ",
"i a.m.m.v.V.m.V.Z.S.T.P.L.P.F.V.m.m.v.m.B.B.m.B.Z.B.z.c.c.V.m.! #.Z.B.B.Z.V.Z.S.S.m.m.B.m.S.m.z.s.a.f.z.V.Z.m.m.m.V.v.v.m.m.D > ",
"b h B Z b ! b ! Z J ! G J Z Z Z Z F F b Z b Z J B Z Z b n b D D Z ! H H J J ( H Z H Z Z B Z Z b Z H b n n b F b D J b Z b v b > "
};
