/* XPM */
static char *_39bf8244a13481d85558fd7c363fe24XioN3uMhstQc6rVq[] = {
/* columns rows colors chars-per-pixel */
"64 64 159 2 ",
"   c #241F17",
".  c #26211B",
"X  c #29251E",
"o  c #2A2724",
"O  c #2E2A24",
"+  c #2D2B2B",
"@  c #312F31",
"#  c #363430",
"$  c #3A3732",
"%  c #3E3B33",
"&  c #35353C",
"*  c #37383D",
"=  c #393A3F",
"-  c #403D35",
";  c #413F3B",
":  c #46423B",
">  c #4A453D",
",  c #4D493F",
"<  c #373740",
"1  c #373841",
"2  c #3B3C44",
"3  c #3E3E48",
"4  c #3E4047",
"5  c #3F4149",
"6  c #414145",
"7  c #494744",
"8  c #4E4941",
"9  c #42434C",
"0  c #46484F",
"q  c #4C4B4B",
"w  c #524E44",
"e  c #514F4E",
"r  c #565146",
"t  c #585247",
"y  c #54514C",
"u  c #5A554B",
"i  c #5D584F",
"p  c #454651",
"a  c #484751",
"s  c #464954",
"d  c #494A55",
"f  c #4C4E5A",
"g  c #4E515D",
"h  c #555353",
"j  c #595652",
"k  c #5D5951",
"l  c #51535E",
"z  c #5C5B5B",
"x  c #615B4F",
"c  c #625D52",
"v  c #615E59",
"b  c #666055",
"n  c #686257",
"m  c #65615B",
"M  c #6A655A",
"N  c #6E695D",
"B  c #706B5F",
"V  c #4F5160",
"C  c #535562",
"Z  c #565965",
"A  c #595B66",
"S  c #5B5D6A",
"D  c #5E5F70",
"F  c #615F61",
"G  c #5E616E",
"H  c #5F6170",
"J  c #636265",
"K  c #6A6760",
"L  c #6D6A64",
"P  c #62626D",
"I  c #686769",
"U  c #6C6A6B",
"Y  c #726E62",
"T  c #716F6C",
"R  c #767165",
"E  c #797467",
"W  c #75726B",
"Q  c #7A766B",
"!  c #7D786D",
"~  c #626473",
"^  c #666876",
"/  c #6B6B74",
"(  c #656778",
")  c #666979",
"_  c #6A6C7C",
"`  c #706F79",
"'  c #6F717D",
"]  c #737274",
"[  c #797672",
"{  c #7D7A73",
"}  c #74747B",
"|  c #7C7B7C",
" . c #817C6F",
".. c #817D74",
"X. c #827F7B",
"o. c #858177",
"O. c #888477",
"+. c #84817B",
"@. c #8A867C",
"#. c #8D8A7F",
"$. c #918C7E",
"%. c #6D6F80",
"&. c #6E7181",
"*. c #727484",
"=. c #787782",
"-. c #757886",
";. c #7C7C82",
":. c #747688",
">. c #767989",
",. c #7B7C8B",
"<. c #7C7E90",
"1. c #817F82",
"2. c #7D8290",
"3. c #858382",
"4. c #898680",
"5. c #8D8A83",
"6. c #87858A",
"7. c #89878A",
"8. c #8D8B89",
"9. c #928E82",
"0. c #908E8A",
"q. c #969184",
"w. c #999486",
"e. c #95928A",
"r. c #9A968A",
"t. c #9D998C",
"y. c #828494",
"u. c #878996",
"i. c #8C8E9C",
"p. c #908F94",
"a. c #959492",
"s. c #9D9A92",
"d. c #90929F",
"f. c #A49E8E",
"g. c #A39E91",
"h. c #A29F98",
"j. c #A6A192",
"k. c #AAA495",
"l. c #A6A399",
"z. c #ABA699",
"x. c #AEA99A",
"c. c #AFAA9C",
"v. c #AFAA9E",
"b. c #B0AA9C",
"n. c #B0AB9E",
"m. c #B1AC9E",
"M. c #9193A2",
"N. c #AFABA2",
"B. c #B3AEA1",
"V. c #B3AFA2",
"C. c #B4B0A3",
"Z. c #B5B0A4",
"A. c #B7B3A6",
"S. c #B7B4A7",
"D. c #B8B4A7",
"F. c #B7B4A9",
"G. c #B8B5A8",
"H. c #B9B6AB",
"J. c #BCB9AD",
/* pixels */
"i Q R Y M i R r u n u N w u c i J l l m w i c w r r r t k m c t b c w w r c i N c t c t B N u N i u c t Y u w Y u r w w r r w r ",
"N  .B R n b Y c Y B M E x b M c N z l l j b M b N N Y Y R ! Q R Q M N M N  .Q O.Q M Q M R R B Q Y n R N Q N v O.Y Y M c Y R i M ",
": w.g.j.f.j.j.j.j.k.j.z.j.j.k.j.j.g.X.A C ..w.j.j.j.g.j.f.z.9.t #.B.B.B.x.c.m.n.c.c.x.B.B.B.c.C.B.c.B.c.n.c.B.S.A.B.A.A.C.B.u O ",
"> z.z.c.c.n.n.c.c.c.n.c.x.c.n.x.z.z.k.5.A l T q.z.k.j.j.f.x.9.> e.J.H.C.n.m.A.A.C.B.m.A.B.m.m.m.m.A.H.B.S.A.B.B.A.A.C.A.B.H.i   ",
": j.n.n.n.c.c.x.z.x.c.x.x.x.x.x.x.z.f.j.@.J C J #.g.j.j.j.z.q.u r.J.D.A.m.C.A.A.A.A.B.B.m.B.B.m.B.C.C.A.A.m.B.m.A.H.C.A.B.H.i   ",
"- t.c.n.c.z.c.x.c.z.x.x.z.z.c.z.z.z.f.f.j.#.J g Z +.t.t.t.g.4.z 5.N.l.j.h.j.z.c.B.n.n.n.n.m.m.n.m.m.C.A.H.B.A.B.S.C.C.A.B.F.i   ",
"% w.x.n.c.z.x.x.x.c.z.z.c.c.x.k.z.j.f.f.j.z.9.I g l ] | ;.;.} ^ } ;.| | } } } 3.c.m.c.n.c.x.m.m.B.C.m.C.H.A.C.A.C.B.B.H.A.H.k   ",
"- w.k.n.c.z.x.n.c.z.z.c.x.z.z.x.z.f.j.j.j.f.9.U f f ^ _ _ _ _ _ ) ^ ^ ~ G S S =.l.m.c.x.x.m.m.n.C.H.A.C.m.B.D.A.A.A.A.H.C.H.i   ",
"- t.c.c.n.c.z.x.x.x.z.c.n.c.x.z.z.j.g.9.X.] I A f f ~ _ _ _ _ ) ~ ~ ~ G S S S ,.s.m.x.z.c.x.c.n.m.C.C.C.B.A.A.B.H.A.H.H.H.H.i   ",
"- t.c.z.c.x.x.z.z.x.x.x.x.x.z.t.5.{ U J Z C Z Z d d ~ _ _ _ _ ( ~ ~ G G S S S y.p.B.m.B.B.m.B.B.c.H.H.A.S.A.H.A.H.J.H.H.B.H.k   ",
"- r.j.z.x.k.z.z.x.x.n.x.j.z.j.@.A g g l C C Z C s a ^ _ ) ) ~ ~ ~ G G S Z Z ~ y.u.e.e.e.e.e.e.e.9.e.r.A.S.D.H.H.A.J.A.C.m.F.i   ",
"q 5.g.x.x.z.x.z.n.c.n.x.j.j.z.t...l f g C C Z C p p ~ _ ) ~ ^ ~ G G S Z Z Z _ y.<.} _ / / ^ J J J I h.A.H.A.D.B.A.C.B.A.B.F.i   ",
"7 w.k.x.z.x.z.z.x.x.x.z.z.k.j.f.f.5.z g C C C C p p ~ ) ^ ~ ~ P S S S Z C C *.y.:.) ~ ~ S A C C U s.B.C.F.H.H.B.n.C.m.m.C.A.u   ",
"; t.x.z.z.k.k.x.z.z.x.z.z.j.k.k.j.f.X.g l C C C 9 9 ~ ~ ~ ~ G S S A Z C C C ,.y.%.~ ~ H S Z Z [ z.A.m.B.B.S.m.n.x.n.n.n.m.A.u   ",
"- w.x.c.z.x.z.x.c.z.z.x.j.z.f.w.7.;.-.l g C C l 9 9 ~ ~ ~ G S S A Z Z C C C 2.,.) ~ ~ S A Z / e.l.B.c.B.m.B.m.n.z.c.m.m.m.F.i   ",
"d q.z.x.z.z.z.c.c.x.z.j.r.5.;.-.-.:.:.l g V C l 9 9 G P G S S A Z C C C g S y.*.) ~ H S A A ) } ' } 1.8.r.g.j.c.x.x.B.C.A.F.i   ",
"S ] g.k.x.z.z.x.z.j.e.| } *.*.*.:.*.:.l g g C g 3 3 S S S S A Z C C C g f _ 2._ ~ ~ G A Z A _ _ _ ) _ _ _ / / | +.8.t.z.N.B.u . ",
"7 T I 5.j.g.g.e.3.` ) _ _ _ %.&.*.*.*.l f f g g 3 3 S S S A Z C C C l g f -.-.( ~ H S Z C A _ _ _ _ ) ) ^ ~ ~ P G A Z A I { q @ ",
"- w.@.J W +./ P ~ ~ ( ) ) _ _ %.&.*.*.C f f g f 3 3 S S A Z C C C g l f l ,.*.~ ~ G A Z C A _ _ _ _ ) ^ ~ ~ G S A C l f d l 9 * ",
"- t.x.w.I Z A S S ~ ~ ~ ) ) _ _ _ &.%.C f f f f 2 3 S A Z C C C g g f f A ,.) ~ H S A C C A _ ) ) ) ) ~ ~ G S A A J I U { 8.y o ",
"- t.x.z.5.Z Z Z S G H ~ ~ ~ ) ) _ _ _ C d f f f 2 3 A Z C C l g f f f f ~ *.~ ~ G S Z C C S ) ) ) ~ ~ ^ / ] ] | 5.t.h.c.A.H.i   ",
"- t.z.t.' C C C Z A S S ~ ~ ~ ~ ) ) _ C d f f d 2 3 Z C C C g f f f f d _ _ ~ G S Z Z C g S ) ) ^ ;.3.0.r.l.c.B.B.A.A.B.A.A.u   ",
"% e.g.;.) g g C C Z A S S G ~ ~ ~ ) -.*.d d f d 2 2 Z C C g f f f f d s _ ) ~ G S Z C C g S ) ^ ^ 8.c.A.H.H.H.A.A.B.B.A.m.B.u   ",
"$ 9.8._ ) f f g g C C Z A S G P ~ *.i.i.^ d f d 1 2 C l g g f f f d s s _ ~ P S A C C g g S ( ~ ~ _ 7.h.F.H.H.C.C.A.B.B.m.A.u   ",
"% 5.} _ _ f d f f g l C Z A S S ) u.M.d.u.G f d < 2 C g g f f f d s s g _ ~ G S Z C C g f S ~ ~ G ^ / 1.s.N.A.C.B.A.B.n.C.J.k   ",
": | _ _ _ s 9 s d f f g C C Z A _ ,.y.y.u.,.g s * 2 l f f f d d s p p Z ~ ~ S A C C l g f S ~ S S / 8.h.l.h.g.c.B.C.A.B.H.J.k   ",
"l _ _ _ _ s 5 9 p d d f g l C Z ^ ) _ &.*.*.A s * 3 l f f f d d p p p A ~ G S Z C l l f f S P } e.l.A.J.H.B.j.t.s.A.A.S.H.H.i   ",
"~ _ _ _ _ p 2 3 9 9 p s f f g C ~ ) ) ) ) _ P p * 3 g f d d d p p p 9 A P S S Z C l l d d | s.z.B.F.H.H.H.H.A.c.j.s.s.c.B.H.k O ",
"~ _ _ _ _ 9 * 2 3 3 9 p s d f l ~ ~ ( ) ) ) ~ p * 3 g d d s p p 9 9 5 A G S Z C C g A | s.c.A.A.A.A.H.A.H.H.C.H.B.c.z.e.{ s.v # ",
"J _ _ _ _ a & * 2 2 3 9 9 p d g ~ ~ ~ ( ( ( ^ d * 3 l d d p p 9 9 9 5 A S A Z C C 4.j.z.c.C.A.A.A.A.H.A.A.A.S.A.B.C.j.O.t.N.k X ",
"; @.w.e.0...Y K z y 7 6 9 9 p f ~ ~ ~ ~ ~ ~ ~ f * 3 f d p p 9 9 9 5 5 Z S Z C C Z a.H.D.C.A.H.C.A.H.H.H.H.H.H.A.H.l.s.B.A.H.k   ",
"> ..q.q.q.q.$.@.#.@.@...K 9 9 d H ~ ~ ~ ~ ~ ^ l * 3 f p p p 9 9 9 3 3 C A Z C C S ;.e.w.t.w.w.q.e.t.w.e.t.w.w.w.5.e.9.w.w.e.u - ",
"x b R R Y Y B M R M M N M c 9 d P ~ ~ ~ ~ ~ ^ C * 3 d p 9 9 9 9 3 3 2 C Z C C g G -.*.K E N b Y M ! Q N W R Y L F L m Y W ..K u ",
"r O.9.$.9.q.$.w.g.q.$.q.9.9...z P ~ H H ~ ~ ~ A * 3 d 9 9 9 6 3 3 3 2 C Z C l f ~ -.-.;.4.3.X.4.3.+.| | ] | O.9.q.w.9.q.q.s.m 7 ",
"- s.z.j.k.z.z.B.H.c.x.z.z.z.z.t.[ P G G ~ P ~ S * 3 a 9 9 3 3 3 3 3 2 C C C g f ~ -.-.:.&._ _ ) ) ^ ^ ^ _ 6.t.j.k.k.k.j.z.x.>   ",
"- t.z.k.j.z.z.x.A.c.z.z.z.z.j.j.f.+.I S S G G G 2 3 p 9 9 3 3 2 3 2 2 C C l f f ) -.-.&._ ) ) ( ~ ~ ~ P _ ,.,.7.e.t.t.f.f.z.:   ",
"% w.x.z.z.z.z.z.H.B.j.z.x.z.j.j.k.j.5.G S S S G 5 3 9 3 3 3 3 2 2 2 2 l C l f f _ -.:._ ) ^ ~ ~ ~ G G S *.:.>.>.*.] { +.5.s.7 + ",
"% w.z.m.z.z.z.z.A.H.j.j.z.z.j.j.g.t.8.^ A S S S d 3 9 3 3 3 2 2 2 2 2 l C g f f ' :.*.( ~ ~ ~ ~ G S S G *.*.-.-._ Z Z Z Z A Z f ",
"- t.z.A.n.c.x.z.z.B.t.t.t.t.w.q.3.' ) H A A A S l 4 9 3 3 2 2 2 2 * 2 g g f f f &.*._ ~ ~ P G S S A Z G &.&.:.-.G C Z Z C C Z Z ",
"% w.j.c.z.j.g.g.j.l.q.q.9.9.o.J ~ ~ ) H Z Z Z Z Z 5 9 3 2 2 2 * * * 2 g g f f f &.*.~ ~ G S S S A Z Z G _ _ *.:.Z C C C C C C C ",
"- w.k.z.t.r.t.z.N.B.j.f.f.f.f.+.^ ~ ( G C C C Z C 9 9 3 2 2 * * * * 2 g g f d f *.' G S S A A Z C C C ~ ) ) _ _ C C C C C C C C ",
"% w.z.j.g.j.x.H.H.A.z.j.f.f.j.j.} ~ ~ S C C C C C s 9 2 2 * * * * * 2 g f f d g *.^ S A A Z C C C l l ~ ~ ~ ~ S C l C C C C C C ",
"% q.j.j.j.j.A.H.H.C.z.z.j.f.j.j.} ~ ~ S C C C C l d 5 2 * * * * * * 2 f f d s C ' G A Z C C C l g f f ~ ~ H D C l l C l l l g 0 ",
": q.k.x.z.z.A.H.A.x.z.z.j.f.f.t.} ~ ~ S l g l l l g 3 2 * * * * * & 2 f f d p C _ A Z C C l g f f f f S S S A C g g l J [ @.y + ",
"7 q.k.z.j.x.A.A.A.m.j.f.w.5.{ ] _ S G S f f g g l g 3 2 * * * * & * 2 f d a 9 S ~ C C C g f f d s p g A Z Z C A I { 5.q.f.j.u   ",
"> w.z.g.f.z.C.z.h.5.[ L J z l l ) S S S f f f f g g 3 2 * * * * & & 2 d s 9 9 S A C l f f f d s p 9 g C J [ #.9.t.f.f.j.z.z.u   ",
"- w.c.g.#.+.{ I F l d a a a d f ~ G S A f f f f d g 9 * * * * * * * 2 d a 9 9 S C f f d d p p 9 9 9 ] 9.t.j.j.z.j.j.f.f.j.x.u   ",
"% q.z.9.z d a p p p p p p p p d ~ H A Z d d d d d d 9 * * * * * * * 2 a p 9 9 S f d d p p 9 9 3 3 p } 3.w.j.z.j.j.f.f.f.j.z.u   ",
"% q.#.z a p p p p p 9 9 9 p p 9 ~ ~ Z C p p s d d d p * * * * * * * 2 p p 9 9 C d p p 9 9 3 3 2 2 9 *.=.| w.j.g.f.f.f.f.j.k.u   ",
"% Q [ 9.T d a 9 9 9 9 9 9 9 9 9 S ~ C C p 9 9 p p s p 2 * * & & & & 2 p p 9 9 d 9 9 9 3 3 3 6 6 e T 9.t.f.f.f.f.f.f.f.f.j.k.t   ",
"$ o.j.z.j.t.{ h q 9 9 9 9 9 9 6 C ~ C C 9 9 9 9 p p p 1 * * * * & & 2 p 9 9 9 9 9 3 3 2 3 q Q $.t.f.f.f.f.f.f.f.f.f.f.g.z.c.u   ",
"% q.j.k.j.j.B.g.+.h q 6 9 9 3 4 f H C l 9 3 5 9 9 9 9 2 * * * * & & 2 9 9 9 3 3 3 3 2 * < z w.f.f.f.f.f.j.f.f.j.n.x.j.z.c.B.u   ",
"% q.j.x.j.k.m.c.x.w.! 6 3 3 3 3 p H l g 9 3 3 3 3 9 9 2 * * * * & & 2 9 9 9 3 3 2 * * & * l | f.k.j.f.f.j.j.j.B.C.c.z.j.x.B.u   ",
"- w.j.x.j.z.A.m.z.z.f.6 2 2 2 3 9 S g f 3 2 3 3 3 3 5 2 * * * * & & 2 9 9 3 3 2 * & & & & f J +.g.j.f.f.j.j.c.A.B.x.z.k.c.B.u   ",
"- w.z.z.j.x.B.H.A.m.g.6 2 2 2 2 3 A l f 2 2 2 2 2 3 3 2 & & * * & & * 9 9 3 2 * & & & & & a C S 5.f.f.f.f.f.j.j.z.z.j.j.j.z.u   ",
"- w.k.x.z.x.n.A.H.C.x.7 2 * 2 * 2 l C d 2 < * * 2 2 2 2 * & & & & & * 9 4 3 2 * & & & & & 9 d f A 9.f.f.f.f.z.j.j.z.j.z.j.c.u   ",
"% w.j.k.z.z.j.m.H.C.H.q 2 * * * * d l p 2 * * * * * * * * * & & & & = 6 6 3 2 & & & & & & 2 9 9 a J w.j.j.j.j.z.j.j.j.j.j.x.u   ",
"- t.j.z.z.x.j.z.S.B.A.j * * * 2 v [ W z 2 & * * & & = v Q ..Q q v { Q Q Q { { { ! Q Q Q Q Q { { { { w.j.j.k.x.c.j.j.j.j.j.z.u   ",
"- t.z.z.z.z.j.B.H.A.A.m & * k ! q.j.t.#.Q v 6 & & & W q.x.H.z.M o.x.f.f.k.k.j.z.z.j.k.z.j.j.j.z.B.H.H.C.n.A.B.B.c.x.j.j.j.z.u   ",
"- w.z.x.z.j.k.m.J.A.l.y z { 9.f.f.j.j.z.f.q.o.W z = Q f.j.x.t.k Q j.j.j.j.g.f.j.j.f.j.j.f.f.z.B.H.H.A.A.H.A.A.H.A.z.j.f.j.k.u   ",
"% w.x.z.j.z.z.z.c.e.{ @.g.B.j.f.f.f.j.j.j.f.f.f.w...j ! w.x.g.n ..z.g.j.f.j.g.z.z.j.j.j.f.z.B.S.H.H.B.m.B.B.B.m.z.j.f.f.j.k.u   ",
"% w.k.z.j.z.x.f.#.e.j.A.A.J.B.z.f.j.z.z.z.z.f.f.j.f.O.c ..c.z.M ..z.g.f.f.j.j.z.z.j.f.f.f.m.x.c.z.k.j.j.A.H.c.j.k.z.g.f.z.k.t   ",
"% @.t.t.w.g.9.9.w.j.A.B.N.B.c.g.t.t.w.t.f.f.t.f.j.f.$.O.K @.t.c Q j.f.f.j.g.j.z.z.t.t.f.t.c.z.f.t.w.9.q.g.j.t.t.t.g.w.w.t.t.r   ",
"> - 8 w > c > i w i v r k w w w w t t > w > w u 8 w w > > $ > r w c u u i i b u w u w w 8 w w > w u > , , > t > r i > w > : :   "
};
